G04 #@! TF.FileFunction,Legend,Top*
%FSLAX46Y46*%
G04 Gerber Fmt 4.6, Leading zero omitted, Abs format (unit mm)*
G04 Created by KiCad (PCBNEW (2015-08-15 BZR 6094)-product) date Mon 17 Aug 2015 18:02:55 BST*
%MOMM*%
G01*
G04 APERTURE LIST*
%ADD10C,0.100000*%
%ADD11C,0.300000*%
%ADD12C,0.150000*%
%ADD13C,0.010000*%
G04 APERTURE END LIST*
D10*
D11*
X128266572Y-74164000D02*
X128980858Y-74164000D01*
X128123715Y-74592571D02*
X128623715Y-73092571D01*
X129123715Y-74592571D01*
X131623715Y-74592571D02*
X131123715Y-73878286D01*
X130766572Y-74592571D02*
X130766572Y-73092571D01*
X131338000Y-73092571D01*
X131480858Y-73164000D01*
X131552286Y-73235429D01*
X131623715Y-73378286D01*
X131623715Y-73592571D01*
X131552286Y-73735429D01*
X131480858Y-73806857D01*
X131338000Y-73878286D01*
X130766572Y-73878286D01*
X134195143Y-73164000D02*
X134052286Y-73092571D01*
X133838000Y-73092571D01*
X133623715Y-73164000D01*
X133480857Y-73306857D01*
X133409429Y-73449714D01*
X133338000Y-73735429D01*
X133338000Y-73949714D01*
X133409429Y-74235429D01*
X133480857Y-74378286D01*
X133623715Y-74521143D01*
X133838000Y-74592571D01*
X133980857Y-74592571D01*
X134195143Y-74521143D01*
X134266572Y-74449714D01*
X134266572Y-73949714D01*
X133980857Y-73949714D01*
X136552286Y-73806857D02*
X136766572Y-73878286D01*
X136838000Y-73949714D01*
X136909429Y-74092571D01*
X136909429Y-74306857D01*
X136838000Y-74449714D01*
X136766572Y-74521143D01*
X136623714Y-74592571D01*
X136052286Y-74592571D01*
X136052286Y-73092571D01*
X136552286Y-73092571D01*
X136695143Y-73164000D01*
X136766572Y-73235429D01*
X136838000Y-73378286D01*
X136838000Y-73521143D01*
X136766572Y-73664000D01*
X136695143Y-73735429D01*
X136552286Y-73806857D01*
X136052286Y-73806857D01*
X115213144Y-61899143D02*
X116356001Y-61899143D01*
X115784572Y-62470571D02*
X115784572Y-61327714D01*
X117856001Y-62470571D02*
X116998858Y-62470571D01*
X117427430Y-62470571D02*
X117427430Y-60970571D01*
X117284573Y-61184857D01*
X117141715Y-61327714D01*
X116998858Y-61399143D01*
X118427429Y-61113429D02*
X118498858Y-61042000D01*
X118641715Y-60970571D01*
X118998858Y-60970571D01*
X119141715Y-61042000D01*
X119213144Y-61113429D01*
X119284572Y-61256286D01*
X119284572Y-61399143D01*
X119213144Y-61613429D01*
X118356001Y-62470571D01*
X119284572Y-62470571D01*
X119713143Y-60970571D02*
X120213143Y-62470571D01*
X120713143Y-60970571D01*
X116713143Y-64870571D02*
X116713143Y-63370571D01*
X117070286Y-63370571D01*
X117284571Y-63442000D01*
X117427429Y-63584857D01*
X117498857Y-63727714D01*
X117570286Y-64013429D01*
X117570286Y-64227714D01*
X117498857Y-64513429D01*
X117427429Y-64656286D01*
X117284571Y-64799143D01*
X117070286Y-64870571D01*
X116713143Y-64870571D01*
X119070286Y-64727714D02*
X118998857Y-64799143D01*
X118784571Y-64870571D01*
X118641714Y-64870571D01*
X118427429Y-64799143D01*
X118284571Y-64656286D01*
X118213143Y-64513429D01*
X118141714Y-64227714D01*
X118141714Y-64013429D01*
X118213143Y-63727714D01*
X118284571Y-63584857D01*
X118427429Y-63442000D01*
X118641714Y-63370571D01*
X118784571Y-63370571D01*
X118998857Y-63442000D01*
X119070286Y-63513429D01*
D12*
X114736880Y-63563500D02*
X105735120Y-63563500D01*
X114736880Y-60063380D02*
X105735120Y-60063380D01*
X105735120Y-60063380D02*
X105735120Y-74564240D01*
X105735120Y-74564240D02*
X114736880Y-74564240D01*
X114736880Y-74564240D02*
X114736880Y-60063380D01*
X126974000Y-72420000D02*
X128524000Y-72420000D01*
X126974000Y-71120000D02*
X126974000Y-72420000D01*
X128397000Y-66929000D02*
X128397000Y-61087000D01*
X128397000Y-61087000D02*
X128651000Y-61087000D01*
X128651000Y-61087000D02*
X128651000Y-66929000D01*
X128651000Y-66929000D02*
X128524000Y-66929000D01*
X128524000Y-66929000D02*
X128524000Y-61087000D01*
X128270000Y-69596000D02*
X128270000Y-69977000D01*
X128778000Y-69596000D02*
X128778000Y-69977000D01*
X130810000Y-69596000D02*
X130810000Y-69977000D01*
X131318000Y-69596000D02*
X131318000Y-69977000D01*
X133350000Y-69596000D02*
X133350000Y-69977000D01*
X133858000Y-69596000D02*
X133858000Y-69977000D01*
X136398000Y-69596000D02*
X136398000Y-69977000D01*
X135890000Y-69596000D02*
X135890000Y-69977000D01*
X127254000Y-69596000D02*
X127254000Y-67056000D01*
X129794000Y-69596000D02*
X129794000Y-67056000D01*
X129794000Y-69596000D02*
X132334000Y-69596000D01*
X132334000Y-69596000D02*
X132334000Y-67056000D01*
X130810000Y-67056000D02*
X130810000Y-60960000D01*
X130810000Y-60960000D02*
X131318000Y-60960000D01*
X131318000Y-60960000D02*
X131318000Y-67056000D01*
X132334000Y-67056000D02*
X129794000Y-67056000D01*
X129794000Y-67056000D02*
X127254000Y-67056000D01*
X128778000Y-60960000D02*
X128778000Y-67056000D01*
X128270000Y-60960000D02*
X128778000Y-60960000D01*
X128270000Y-67056000D02*
X128270000Y-60960000D01*
X129794000Y-69596000D02*
X129794000Y-67056000D01*
X127254000Y-69596000D02*
X129794000Y-69596000D01*
X134874000Y-69596000D02*
X134874000Y-67056000D01*
X134874000Y-69596000D02*
X137414000Y-69596000D01*
X137414000Y-69596000D02*
X137414000Y-67056000D01*
X135890000Y-67056000D02*
X135890000Y-60960000D01*
X135890000Y-60960000D02*
X136398000Y-60960000D01*
X136398000Y-60960000D02*
X136398000Y-67056000D01*
X137414000Y-67056000D02*
X134874000Y-67056000D01*
X134874000Y-67056000D02*
X132334000Y-67056000D01*
X133858000Y-60960000D02*
X133858000Y-67056000D01*
X133350000Y-60960000D02*
X133858000Y-60960000D01*
X133350000Y-67056000D02*
X133350000Y-60960000D01*
X134874000Y-69596000D02*
X134874000Y-67056000D01*
X132334000Y-69596000D02*
X134874000Y-69596000D01*
X132334000Y-69596000D02*
X132334000Y-67056000D01*
X112268000Y-78994000D02*
X107188000Y-78994000D01*
X107188000Y-78994000D02*
X107188000Y-76454000D01*
X107188000Y-76454000D02*
X112268000Y-76454000D01*
X112268000Y-76454000D02*
X112268000Y-78994000D01*
X112268000Y-77724000D02*
X113538000Y-77724000D01*
X107188000Y-77724000D02*
X105918000Y-77724000D01*
X112268000Y-90678000D02*
X107188000Y-90678000D01*
X107188000Y-90678000D02*
X107188000Y-88138000D01*
X107188000Y-88138000D02*
X112268000Y-88138000D01*
X112268000Y-88138000D02*
X112268000Y-90678000D01*
X112268000Y-89408000D02*
X113538000Y-89408000D01*
X107188000Y-89408000D02*
X105918000Y-89408000D01*
X112268000Y-102362000D02*
X107188000Y-102362000D01*
X107188000Y-102362000D02*
X107188000Y-99822000D01*
X107188000Y-99822000D02*
X112268000Y-99822000D01*
X112268000Y-99822000D02*
X112268000Y-102362000D01*
X112268000Y-101092000D02*
X113538000Y-101092000D01*
X107188000Y-101092000D02*
X105918000Y-101092000D01*
X112268000Y-84074000D02*
X107188000Y-84074000D01*
X107188000Y-84074000D02*
X107188000Y-81534000D01*
X107188000Y-81534000D02*
X112268000Y-81534000D01*
X112268000Y-81534000D02*
X112268000Y-84074000D01*
X112268000Y-82804000D02*
X113538000Y-82804000D01*
X107188000Y-82804000D02*
X105918000Y-82804000D01*
X112268000Y-95758000D02*
X107188000Y-95758000D01*
X107188000Y-95758000D02*
X107188000Y-93218000D01*
X107188000Y-93218000D02*
X112268000Y-93218000D01*
X112268000Y-93218000D02*
X112268000Y-95758000D01*
X112268000Y-94488000D02*
X113538000Y-94488000D01*
X107188000Y-94488000D02*
X105918000Y-94488000D01*
X112268000Y-107442000D02*
X107188000Y-107442000D01*
X107188000Y-107442000D02*
X107188000Y-104902000D01*
X107188000Y-104902000D02*
X112268000Y-104902000D01*
X112268000Y-104902000D02*
X112268000Y-107442000D01*
X112268000Y-106172000D02*
X113538000Y-106172000D01*
X107188000Y-106172000D02*
X105918000Y-106172000D01*
X138150472Y-80264000D02*
G75*
G03X138150472Y-80264000I-2514472J0D01*
G01*
X122555000Y-77724000D02*
X120777000Y-77724000D01*
X122555000Y-80264000D02*
X120777000Y-80264000D01*
X122555000Y-82804000D02*
X120777000Y-82804000D01*
X131064000Y-85598000D02*
X139065000Y-85598000D01*
X139065000Y-85598000D02*
X139065000Y-74930000D01*
X139065000Y-74930000D02*
X131064000Y-74930000D01*
X122555000Y-85598000D02*
X131064000Y-85598000D01*
X131064000Y-85598000D02*
X131064000Y-74930000D01*
X131064000Y-74930000D02*
X122555000Y-74930000D01*
X122555000Y-80264000D02*
X122555000Y-74930000D01*
X122555000Y-80264000D02*
X122555000Y-85598000D01*
X138150472Y-91948000D02*
G75*
G03X138150472Y-91948000I-2514472J0D01*
G01*
X122555000Y-89408000D02*
X120777000Y-89408000D01*
X122555000Y-91948000D02*
X120777000Y-91948000D01*
X122555000Y-94488000D02*
X120777000Y-94488000D01*
X131064000Y-97282000D02*
X139065000Y-97282000D01*
X139065000Y-97282000D02*
X139065000Y-86614000D01*
X139065000Y-86614000D02*
X131064000Y-86614000D01*
X122555000Y-97282000D02*
X131064000Y-97282000D01*
X131064000Y-97282000D02*
X131064000Y-86614000D01*
X131064000Y-86614000D02*
X122555000Y-86614000D01*
X122555000Y-91948000D02*
X122555000Y-86614000D01*
X122555000Y-91948000D02*
X122555000Y-97282000D01*
X138150472Y-103632000D02*
G75*
G03X138150472Y-103632000I-2514472J0D01*
G01*
X122555000Y-101092000D02*
X120777000Y-101092000D01*
X122555000Y-103632000D02*
X120777000Y-103632000D01*
X122555000Y-106172000D02*
X120777000Y-106172000D01*
X131064000Y-108966000D02*
X139065000Y-108966000D01*
X139065000Y-108966000D02*
X139065000Y-98298000D01*
X139065000Y-98298000D02*
X131064000Y-98298000D01*
X122555000Y-108966000D02*
X131064000Y-108966000D01*
X131064000Y-108966000D02*
X131064000Y-98298000D01*
X131064000Y-98298000D02*
X122555000Y-98298000D01*
X122555000Y-103632000D02*
X122555000Y-98298000D01*
X122555000Y-103632000D02*
X122555000Y-108966000D01*
X91186000Y-107950000D02*
X91186000Y-62230000D01*
X96266000Y-62230000D02*
X96266000Y-105410000D01*
X91186000Y-62230000D02*
X96266000Y-62230000D01*
X91186000Y-107950000D02*
X93726000Y-107950000D01*
X94996000Y-108230000D02*
X96546000Y-108230000D01*
X93726000Y-107950000D02*
X93726000Y-105410000D01*
X93726000Y-105410000D02*
X96266000Y-105410000D01*
X96546000Y-108230000D02*
X96546000Y-106680000D01*
D13*
G36*
X118467841Y-65411795D02*
X118548038Y-65467343D01*
X118577372Y-65523872D01*
X118553939Y-65559719D01*
X118480416Y-65554686D01*
X118318621Y-65510704D01*
X118203957Y-65498887D01*
X118105920Y-65517617D01*
X118065900Y-65532732D01*
X117899192Y-65641387D01*
X117800630Y-65799980D01*
X117771333Y-65986442D01*
X117782120Y-66117752D01*
X117826428Y-66217448D01*
X117919527Y-66323660D01*
X118019365Y-66413885D01*
X118102829Y-66453471D01*
X118207271Y-66457214D01*
X118247610Y-66453628D01*
X118378852Y-66434512D01*
X118483048Y-66409479D01*
X118501583Y-66402505D01*
X118562103Y-66394633D01*
X118575666Y-66436148D01*
X118538608Y-66513933D01*
X118441539Y-66565785D01*
X118305615Y-66589858D01*
X118151994Y-66584306D01*
X118001832Y-66547282D01*
X117900305Y-66495083D01*
X117730943Y-66327610D01*
X117627624Y-66114083D01*
X117609986Y-66084045D01*
X117569912Y-66063335D01*
X117493865Y-66050270D01*
X117368305Y-66043167D01*
X117179695Y-66040342D01*
X117031828Y-66040000D01*
X116797362Y-66038665D01*
X116635223Y-66033750D01*
X116533102Y-66023890D01*
X116478686Y-66007721D01*
X116459666Y-65983878D01*
X116459000Y-65976500D01*
X116470863Y-65950890D01*
X116514541Y-65933049D01*
X116602162Y-65921677D01*
X116745859Y-65915475D01*
X116957759Y-65913142D01*
X117051666Y-65913000D01*
X117289715Y-65911820D01*
X117455459Y-65907371D01*
X117561238Y-65898285D01*
X117619392Y-65883198D01*
X117642263Y-65860743D01*
X117644333Y-65847398D01*
X117683217Y-65692210D01*
X117787221Y-65556898D01*
X117937371Y-65451496D01*
X118114693Y-65386041D01*
X118300214Y-65370570D01*
X118467841Y-65411795D01*
X118467841Y-65411795D01*
G37*
X118467841Y-65411795D02*
X118548038Y-65467343D01*
X118577372Y-65523872D01*
X118553939Y-65559719D01*
X118480416Y-65554686D01*
X118318621Y-65510704D01*
X118203957Y-65498887D01*
X118105920Y-65517617D01*
X118065900Y-65532732D01*
X117899192Y-65641387D01*
X117800630Y-65799980D01*
X117771333Y-65986442D01*
X117782120Y-66117752D01*
X117826428Y-66217448D01*
X117919527Y-66323660D01*
X118019365Y-66413885D01*
X118102829Y-66453471D01*
X118207271Y-66457214D01*
X118247610Y-66453628D01*
X118378852Y-66434512D01*
X118483048Y-66409479D01*
X118501583Y-66402505D01*
X118562103Y-66394633D01*
X118575666Y-66436148D01*
X118538608Y-66513933D01*
X118441539Y-66565785D01*
X118305615Y-66589858D01*
X118151994Y-66584306D01*
X118001832Y-66547282D01*
X117900305Y-66495083D01*
X117730943Y-66327610D01*
X117627624Y-66114083D01*
X117609986Y-66084045D01*
X117569912Y-66063335D01*
X117493865Y-66050270D01*
X117368305Y-66043167D01*
X117179695Y-66040342D01*
X117031828Y-66040000D01*
X116797362Y-66038665D01*
X116635223Y-66033750D01*
X116533102Y-66023890D01*
X116478686Y-66007721D01*
X116459666Y-65983878D01*
X116459000Y-65976500D01*
X116470863Y-65950890D01*
X116514541Y-65933049D01*
X116602162Y-65921677D01*
X116745859Y-65915475D01*
X116957759Y-65913142D01*
X117051666Y-65913000D01*
X117289715Y-65911820D01*
X117455459Y-65907371D01*
X117561238Y-65898285D01*
X117619392Y-65883198D01*
X117642263Y-65860743D01*
X117644333Y-65847398D01*
X117683217Y-65692210D01*
X117787221Y-65556898D01*
X117937371Y-65451496D01*
X118114693Y-65386041D01*
X118300214Y-65370570D01*
X118467841Y-65411795D01*
G36*
X120898526Y-65595583D02*
X120903991Y-65710721D01*
X120904000Y-65717971D01*
X120904000Y-65913000D01*
X121097604Y-65913000D01*
X121216828Y-65918225D01*
X121270612Y-65939089D01*
X121277818Y-65983373D01*
X121277155Y-65987083D01*
X121238606Y-66040697D01*
X121138397Y-66068877D01*
X121085872Y-66074071D01*
X120973881Y-66086678D01*
X120920816Y-66119458D01*
X120901081Y-66197611D01*
X120895737Y-66261280D01*
X120871837Y-66390138D01*
X120828162Y-66453784D01*
X120771563Y-66443147D01*
X120763770Y-66435993D01*
X120744790Y-66378098D01*
X120735020Y-66272245D01*
X120734666Y-66247045D01*
X120730168Y-66146577D01*
X120700914Y-66098397D01*
X120623264Y-66079794D01*
X120554750Y-66074184D01*
X120428993Y-66053535D01*
X120377282Y-66013002D01*
X120374833Y-65997667D01*
X120407559Y-65950914D01*
X120511800Y-65925121D01*
X120554750Y-65921149D01*
X120667440Y-65909150D01*
X120719287Y-65879249D01*
X120733920Y-65807817D01*
X120734666Y-65741232D01*
X120738651Y-65636042D01*
X120748588Y-65578193D01*
X120752370Y-65574333D01*
X120802133Y-65561164D01*
X120837037Y-65548637D01*
X120878426Y-65547162D01*
X120898526Y-65595583D01*
X120898526Y-65595583D01*
G37*
X120898526Y-65595583D02*
X120903991Y-65710721D01*
X120904000Y-65717971D01*
X120904000Y-65913000D01*
X121097604Y-65913000D01*
X121216828Y-65918225D01*
X121270612Y-65939089D01*
X121277818Y-65983373D01*
X121277155Y-65987083D01*
X121238606Y-66040697D01*
X121138397Y-66068877D01*
X121085872Y-66074071D01*
X120973881Y-66086678D01*
X120920816Y-66119458D01*
X120901081Y-66197611D01*
X120895737Y-66261280D01*
X120871837Y-66390138D01*
X120828162Y-66453784D01*
X120771563Y-66443147D01*
X120763770Y-66435993D01*
X120744790Y-66378098D01*
X120735020Y-66272245D01*
X120734666Y-66247045D01*
X120730168Y-66146577D01*
X120700914Y-66098397D01*
X120623264Y-66079794D01*
X120554750Y-66074184D01*
X120428993Y-66053535D01*
X120377282Y-66013002D01*
X120374833Y-65997667D01*
X120407559Y-65950914D01*
X120511800Y-65925121D01*
X120554750Y-65921149D01*
X120667440Y-65909150D01*
X120719287Y-65879249D01*
X120733920Y-65807817D01*
X120734666Y-65741232D01*
X120738651Y-65636042D01*
X120748588Y-65578193D01*
X120752370Y-65574333D01*
X120802133Y-65561164D01*
X120837037Y-65548637D01*
X120878426Y-65547162D01*
X120898526Y-65595583D01*
G36*
X118417928Y-65763067D02*
X118466125Y-65807167D01*
X118504055Y-65845581D01*
X118544666Y-65873353D01*
X118601385Y-65892211D01*
X118687638Y-65903879D01*
X118816854Y-65910082D01*
X119002459Y-65912547D01*
X119257880Y-65912999D01*
X119289604Y-65913000D01*
X119557461Y-65913956D01*
X119751753Y-65917470D01*
X119883566Y-65924514D01*
X119963987Y-65936057D01*
X120004103Y-65953071D01*
X120015000Y-65976500D01*
X120004141Y-65999799D01*
X119964221Y-66016745D01*
X119884228Y-66028288D01*
X119753146Y-66035377D01*
X119559962Y-66038964D01*
X119293662Y-66039998D01*
X119279035Y-66040000D01*
X118543070Y-66040000D01*
X118473726Y-66145833D01*
X118376266Y-66225437D01*
X118242597Y-66254444D01*
X118107468Y-66228443D01*
X118056908Y-66198750D01*
X117974380Y-66088619D01*
X117962783Y-65953719D01*
X118024081Y-65818396D01*
X118026013Y-65815918D01*
X118145607Y-65721175D01*
X118282486Y-65703434D01*
X118417928Y-65763067D01*
X118417928Y-65763067D01*
G37*
X118417928Y-65763067D02*
X118466125Y-65807167D01*
X118504055Y-65845581D01*
X118544666Y-65873353D01*
X118601385Y-65892211D01*
X118687638Y-65903879D01*
X118816854Y-65910082D01*
X119002459Y-65912547D01*
X119257880Y-65912999D01*
X119289604Y-65913000D01*
X119557461Y-65913956D01*
X119751753Y-65917470D01*
X119883566Y-65924514D01*
X119963987Y-65936057D01*
X120004103Y-65953071D01*
X120015000Y-65976500D01*
X120004141Y-65999799D01*
X119964221Y-66016745D01*
X119884228Y-66028288D01*
X119753146Y-66035377D01*
X119559962Y-66038964D01*
X119293662Y-66039998D01*
X119279035Y-66040000D01*
X118543070Y-66040000D01*
X118473726Y-66145833D01*
X118376266Y-66225437D01*
X118242597Y-66254444D01*
X118107468Y-66228443D01*
X118056908Y-66198750D01*
X117974380Y-66088619D01*
X117962783Y-65953719D01*
X118024081Y-65818396D01*
X118026013Y-65815918D01*
X118145607Y-65721175D01*
X118282486Y-65703434D01*
X118417928Y-65763067D01*
G36*
X115833574Y-65919489D02*
X115993932Y-65938860D01*
X116071757Y-65970968D01*
X116066562Y-66015668D01*
X116030506Y-66044085D01*
X115961493Y-66062074D01*
X115835721Y-66074037D01*
X115675458Y-66080075D01*
X115502972Y-66080287D01*
X115340529Y-66074775D01*
X115210398Y-66063639D01*
X115134845Y-66046979D01*
X115125500Y-66040000D01*
X115111204Y-65986594D01*
X115150795Y-65949466D01*
X115252487Y-65926377D01*
X115424500Y-65915085D01*
X115591166Y-65913000D01*
X115833574Y-65919489D01*
X115833574Y-65919489D01*
G37*
X115833574Y-65919489D02*
X115993932Y-65938860D01*
X116071757Y-65970968D01*
X116066562Y-66015668D01*
X116030506Y-66044085D01*
X115961493Y-66062074D01*
X115835721Y-66074037D01*
X115675458Y-66080075D01*
X115502972Y-66080287D01*
X115340529Y-66074775D01*
X115210398Y-66063639D01*
X115134845Y-66046979D01*
X115125500Y-66040000D01*
X115111204Y-65986594D01*
X115150795Y-65949466D01*
X115252487Y-65926377D01*
X115424500Y-65915085D01*
X115591166Y-65913000D01*
X115833574Y-65919489D01*
D12*
X105100381Y-67881333D02*
X104100381Y-67881333D01*
X104100381Y-67500380D01*
X104148000Y-67405142D01*
X104195619Y-67357523D01*
X104290857Y-67309904D01*
X104433714Y-67309904D01*
X104528952Y-67357523D01*
X104576571Y-67405142D01*
X104624190Y-67500380D01*
X104624190Y-67881333D01*
X104100381Y-66976571D02*
X105100381Y-66738476D01*
X104386095Y-66547999D01*
X105100381Y-66357523D01*
X104100381Y-66119428D01*
X105100381Y-65167047D02*
X104624190Y-65500381D01*
X105100381Y-65738476D02*
X104100381Y-65738476D01*
X104100381Y-65357523D01*
X104148000Y-65262285D01*
X104195619Y-65214666D01*
X104290857Y-65167047D01*
X104433714Y-65167047D01*
X104528952Y-65214666D01*
X104576571Y-65262285D01*
X104624190Y-65357523D01*
X104624190Y-65738476D01*
X125928381Y-68651047D02*
X125928381Y-69127238D01*
X124928381Y-69127238D01*
X125404571Y-68317714D02*
X125404571Y-67984380D01*
X125928381Y-67841523D02*
X125928381Y-68317714D01*
X124928381Y-68317714D01*
X124928381Y-67841523D01*
X125928381Y-67412952D02*
X124928381Y-67412952D01*
X124928381Y-67174857D01*
X124976000Y-67031999D01*
X125071238Y-66936761D01*
X125166476Y-66889142D01*
X125356952Y-66841523D01*
X125499810Y-66841523D01*
X125690286Y-66889142D01*
X125785524Y-66936761D01*
X125880762Y-67031999D01*
X125928381Y-67174857D01*
X125928381Y-67412952D01*
X126023619Y-66651047D02*
X126023619Y-65889142D01*
X125880762Y-65698666D02*
X125928381Y-65555809D01*
X125928381Y-65317713D01*
X125880762Y-65222475D01*
X125833143Y-65174856D01*
X125737905Y-65127237D01*
X125642667Y-65127237D01*
X125547429Y-65174856D01*
X125499810Y-65222475D01*
X125452190Y-65317713D01*
X125404571Y-65508190D01*
X125356952Y-65603428D01*
X125309333Y-65651047D01*
X125214095Y-65698666D01*
X125118857Y-65698666D01*
X125023619Y-65651047D01*
X124976000Y-65603428D01*
X124928381Y-65508190D01*
X124928381Y-65270094D01*
X124976000Y-65127237D01*
X124928381Y-64841523D02*
X124928381Y-64270094D01*
X125928381Y-64555809D02*
X124928381Y-64555809D01*
X125928381Y-63365332D02*
X125452190Y-63698666D01*
X125928381Y-63936761D02*
X124928381Y-63936761D01*
X124928381Y-63555808D01*
X124976000Y-63460570D01*
X125023619Y-63412951D01*
X125118857Y-63365332D01*
X125261714Y-63365332D01*
X125356952Y-63412951D01*
X125404571Y-63460570D01*
X125452190Y-63555808D01*
X125452190Y-63936761D01*
X125928381Y-62936761D02*
X124928381Y-62936761D01*
X125928381Y-62460571D02*
X124928381Y-62460571D01*
X124928381Y-62079618D01*
X124976000Y-61984380D01*
X125023619Y-61936761D01*
X125118857Y-61889142D01*
X125261714Y-61889142D01*
X125356952Y-61936761D01*
X125404571Y-61984380D01*
X125452190Y-62079618D01*
X125452190Y-62460571D01*
X109688953Y-78176381D02*
X109117524Y-78176381D01*
X109403238Y-78176381D02*
X109403238Y-77176381D01*
X109308000Y-77319238D01*
X109212762Y-77414476D01*
X109117524Y-77462095D01*
X110117524Y-78176381D02*
X110117524Y-77176381D01*
X110212762Y-77795429D02*
X110498477Y-78176381D01*
X110498477Y-77509714D02*
X110117524Y-77890667D01*
X109688953Y-89860381D02*
X109117524Y-89860381D01*
X109403238Y-89860381D02*
X109403238Y-88860381D01*
X109308000Y-89003238D01*
X109212762Y-89098476D01*
X109117524Y-89146095D01*
X110117524Y-89860381D02*
X110117524Y-88860381D01*
X110212762Y-89479429D02*
X110498477Y-89860381D01*
X110498477Y-89193714D02*
X110117524Y-89574667D01*
X109688953Y-101544381D02*
X109117524Y-101544381D01*
X109403238Y-101544381D02*
X109403238Y-100544381D01*
X109308000Y-100687238D01*
X109212762Y-100782476D01*
X109117524Y-100830095D01*
X110117524Y-101544381D02*
X110117524Y-100544381D01*
X110212762Y-101163429D02*
X110498477Y-101544381D01*
X110498477Y-100877714D02*
X110117524Y-101258667D01*
X108736572Y-83256381D02*
X108165143Y-83256381D01*
X108450857Y-83256381D02*
X108450857Y-82256381D01*
X108355619Y-82399238D01*
X108260381Y-82494476D01*
X108165143Y-82542095D01*
X109355619Y-82256381D02*
X109450858Y-82256381D01*
X109546096Y-82304000D01*
X109593715Y-82351619D01*
X109641334Y-82446857D01*
X109688953Y-82637333D01*
X109688953Y-82875429D01*
X109641334Y-83065905D01*
X109593715Y-83161143D01*
X109546096Y-83208762D01*
X109450858Y-83256381D01*
X109355619Y-83256381D01*
X109260381Y-83208762D01*
X109212762Y-83161143D01*
X109165143Y-83065905D01*
X109117524Y-82875429D01*
X109117524Y-82637333D01*
X109165143Y-82446857D01*
X109212762Y-82351619D01*
X109260381Y-82304000D01*
X109355619Y-82256381D01*
X110308000Y-82256381D02*
X110403239Y-82256381D01*
X110498477Y-82304000D01*
X110546096Y-82351619D01*
X110593715Y-82446857D01*
X110641334Y-82637333D01*
X110641334Y-82875429D01*
X110593715Y-83065905D01*
X110546096Y-83161143D01*
X110498477Y-83208762D01*
X110403239Y-83256381D01*
X110308000Y-83256381D01*
X110212762Y-83208762D01*
X110165143Y-83161143D01*
X110117524Y-83065905D01*
X110069905Y-82875429D01*
X110069905Y-82637333D01*
X110117524Y-82446857D01*
X110165143Y-82351619D01*
X110212762Y-82304000D01*
X110308000Y-82256381D01*
X111069905Y-83256381D02*
X111069905Y-82256381D01*
X111165143Y-82875429D02*
X111450858Y-83256381D01*
X111450858Y-82589714D02*
X111069905Y-82970667D01*
X108736572Y-94940381D02*
X108165143Y-94940381D01*
X108450857Y-94940381D02*
X108450857Y-93940381D01*
X108355619Y-94083238D01*
X108260381Y-94178476D01*
X108165143Y-94226095D01*
X109355619Y-93940381D02*
X109450858Y-93940381D01*
X109546096Y-93988000D01*
X109593715Y-94035619D01*
X109641334Y-94130857D01*
X109688953Y-94321333D01*
X109688953Y-94559429D01*
X109641334Y-94749905D01*
X109593715Y-94845143D01*
X109546096Y-94892762D01*
X109450858Y-94940381D01*
X109355619Y-94940381D01*
X109260381Y-94892762D01*
X109212762Y-94845143D01*
X109165143Y-94749905D01*
X109117524Y-94559429D01*
X109117524Y-94321333D01*
X109165143Y-94130857D01*
X109212762Y-94035619D01*
X109260381Y-93988000D01*
X109355619Y-93940381D01*
X110308000Y-93940381D02*
X110403239Y-93940381D01*
X110498477Y-93988000D01*
X110546096Y-94035619D01*
X110593715Y-94130857D01*
X110641334Y-94321333D01*
X110641334Y-94559429D01*
X110593715Y-94749905D01*
X110546096Y-94845143D01*
X110498477Y-94892762D01*
X110403239Y-94940381D01*
X110308000Y-94940381D01*
X110212762Y-94892762D01*
X110165143Y-94845143D01*
X110117524Y-94749905D01*
X110069905Y-94559429D01*
X110069905Y-94321333D01*
X110117524Y-94130857D01*
X110165143Y-94035619D01*
X110212762Y-93988000D01*
X110308000Y-93940381D01*
X111069905Y-94940381D02*
X111069905Y-93940381D01*
X111165143Y-94559429D02*
X111450858Y-94940381D01*
X111450858Y-94273714D02*
X111069905Y-94654667D01*
X108736572Y-106624381D02*
X108165143Y-106624381D01*
X108450857Y-106624381D02*
X108450857Y-105624381D01*
X108355619Y-105767238D01*
X108260381Y-105862476D01*
X108165143Y-105910095D01*
X109355619Y-105624381D02*
X109450858Y-105624381D01*
X109546096Y-105672000D01*
X109593715Y-105719619D01*
X109641334Y-105814857D01*
X109688953Y-106005333D01*
X109688953Y-106243429D01*
X109641334Y-106433905D01*
X109593715Y-106529143D01*
X109546096Y-106576762D01*
X109450858Y-106624381D01*
X109355619Y-106624381D01*
X109260381Y-106576762D01*
X109212762Y-106529143D01*
X109165143Y-106433905D01*
X109117524Y-106243429D01*
X109117524Y-106005333D01*
X109165143Y-105814857D01*
X109212762Y-105719619D01*
X109260381Y-105672000D01*
X109355619Y-105624381D01*
X110308000Y-105624381D02*
X110403239Y-105624381D01*
X110498477Y-105672000D01*
X110546096Y-105719619D01*
X110593715Y-105814857D01*
X110641334Y-106005333D01*
X110641334Y-106243429D01*
X110593715Y-106433905D01*
X110546096Y-106529143D01*
X110498477Y-106576762D01*
X110403239Y-106624381D01*
X110308000Y-106624381D01*
X110212762Y-106576762D01*
X110165143Y-106529143D01*
X110117524Y-106433905D01*
X110069905Y-106243429D01*
X110069905Y-106005333D01*
X110117524Y-105814857D01*
X110165143Y-105719619D01*
X110212762Y-105672000D01*
X110308000Y-105624381D01*
X111069905Y-106624381D02*
X111069905Y-105624381D01*
X111165143Y-106243429D02*
X111450858Y-106624381D01*
X111450858Y-105957714D02*
X111069905Y-106338667D01*
X127404762Y-84692572D02*
X127452381Y-84549715D01*
X127452381Y-84311619D01*
X127404762Y-84216381D01*
X127357143Y-84168762D01*
X127261905Y-84121143D01*
X127166667Y-84121143D01*
X127071429Y-84168762D01*
X127023810Y-84216381D01*
X126976190Y-84311619D01*
X126928571Y-84502096D01*
X126880952Y-84597334D01*
X126833333Y-84644953D01*
X126738095Y-84692572D01*
X126642857Y-84692572D01*
X126547619Y-84644953D01*
X126500000Y-84597334D01*
X126452381Y-84502096D01*
X126452381Y-84264000D01*
X126500000Y-84121143D01*
X126452381Y-83835429D02*
X126452381Y-83264000D01*
X127452381Y-83549715D02*
X126452381Y-83549715D01*
X127452381Y-82930667D02*
X126452381Y-82930667D01*
X126452381Y-82549714D01*
X126500000Y-82454476D01*
X126547619Y-82406857D01*
X126642857Y-82359238D01*
X126785714Y-82359238D01*
X126880952Y-82406857D01*
X126928571Y-82454476D01*
X126976190Y-82549714D01*
X126976190Y-82930667D01*
X127452381Y-81406857D02*
X127452381Y-81978286D01*
X127452381Y-81692572D02*
X126452381Y-81692572D01*
X126595238Y-81787810D01*
X126690476Y-81883048D01*
X126738095Y-81978286D01*
X126452381Y-80549714D02*
X126452381Y-80740191D01*
X126500000Y-80835429D01*
X126547619Y-80883048D01*
X126690476Y-80978286D01*
X126880952Y-81025905D01*
X127261905Y-81025905D01*
X127357143Y-80978286D01*
X127404762Y-80930667D01*
X127452381Y-80835429D01*
X127452381Y-80644952D01*
X127404762Y-80549714D01*
X127357143Y-80502095D01*
X127261905Y-80454476D01*
X127023810Y-80454476D01*
X126928571Y-80502095D01*
X126880952Y-80549714D01*
X126833333Y-80644952D01*
X126833333Y-80835429D01*
X126880952Y-80930667D01*
X126928571Y-80978286D01*
X127023810Y-81025905D01*
X127452381Y-80025905D02*
X126452381Y-80025905D01*
X127452381Y-79454476D01*
X126452381Y-79454476D01*
X126928571Y-78644952D02*
X126928571Y-78978286D01*
X127452381Y-78978286D02*
X126452381Y-78978286D01*
X126452381Y-78502095D01*
X126452381Y-77930667D02*
X126452381Y-77835428D01*
X126500000Y-77740190D01*
X126547619Y-77692571D01*
X126642857Y-77644952D01*
X126833333Y-77597333D01*
X127071429Y-77597333D01*
X127261905Y-77644952D01*
X127357143Y-77692571D01*
X127404762Y-77740190D01*
X127452381Y-77835428D01*
X127452381Y-77930667D01*
X127404762Y-78025905D01*
X127357143Y-78073524D01*
X127261905Y-78121143D01*
X127071429Y-78168762D01*
X126833333Y-78168762D01*
X126642857Y-78121143D01*
X126547619Y-78073524D01*
X126500000Y-78025905D01*
X126452381Y-77930667D01*
X126452381Y-76740190D02*
X126452381Y-76930667D01*
X126500000Y-77025905D01*
X126547619Y-77073524D01*
X126690476Y-77168762D01*
X126880952Y-77216381D01*
X127261905Y-77216381D01*
X127357143Y-77168762D01*
X127404762Y-77121143D01*
X127452381Y-77025905D01*
X127452381Y-76835428D01*
X127404762Y-76740190D01*
X127357143Y-76692571D01*
X127261905Y-76644952D01*
X127023810Y-76644952D01*
X126928571Y-76692571D01*
X126880952Y-76740190D01*
X126833333Y-76835428D01*
X126833333Y-77025905D01*
X126880952Y-77121143D01*
X126928571Y-77168762D01*
X127023810Y-77216381D01*
X127452381Y-75740190D02*
X127452381Y-76216381D01*
X126452381Y-76216381D01*
X127404762Y-96376572D02*
X127452381Y-96233715D01*
X127452381Y-95995619D01*
X127404762Y-95900381D01*
X127357143Y-95852762D01*
X127261905Y-95805143D01*
X127166667Y-95805143D01*
X127071429Y-95852762D01*
X127023810Y-95900381D01*
X126976190Y-95995619D01*
X126928571Y-96186096D01*
X126880952Y-96281334D01*
X126833333Y-96328953D01*
X126738095Y-96376572D01*
X126642857Y-96376572D01*
X126547619Y-96328953D01*
X126500000Y-96281334D01*
X126452381Y-96186096D01*
X126452381Y-95948000D01*
X126500000Y-95805143D01*
X126452381Y-95519429D02*
X126452381Y-94948000D01*
X127452381Y-95233715D02*
X126452381Y-95233715D01*
X127452381Y-94614667D02*
X126452381Y-94614667D01*
X126452381Y-94233714D01*
X126500000Y-94138476D01*
X126547619Y-94090857D01*
X126642857Y-94043238D01*
X126785714Y-94043238D01*
X126880952Y-94090857D01*
X126928571Y-94138476D01*
X126976190Y-94233714D01*
X126976190Y-94614667D01*
X127452381Y-93090857D02*
X127452381Y-93662286D01*
X127452381Y-93376572D02*
X126452381Y-93376572D01*
X126595238Y-93471810D01*
X126690476Y-93567048D01*
X126738095Y-93662286D01*
X126452381Y-92233714D02*
X126452381Y-92424191D01*
X126500000Y-92519429D01*
X126547619Y-92567048D01*
X126690476Y-92662286D01*
X126880952Y-92709905D01*
X127261905Y-92709905D01*
X127357143Y-92662286D01*
X127404762Y-92614667D01*
X127452381Y-92519429D01*
X127452381Y-92328952D01*
X127404762Y-92233714D01*
X127357143Y-92186095D01*
X127261905Y-92138476D01*
X127023810Y-92138476D01*
X126928571Y-92186095D01*
X126880952Y-92233714D01*
X126833333Y-92328952D01*
X126833333Y-92519429D01*
X126880952Y-92614667D01*
X126928571Y-92662286D01*
X127023810Y-92709905D01*
X127452381Y-91709905D02*
X126452381Y-91709905D01*
X127452381Y-91138476D01*
X126452381Y-91138476D01*
X126928571Y-90328952D02*
X126928571Y-90662286D01*
X127452381Y-90662286D02*
X126452381Y-90662286D01*
X126452381Y-90186095D01*
X126452381Y-89614667D02*
X126452381Y-89519428D01*
X126500000Y-89424190D01*
X126547619Y-89376571D01*
X126642857Y-89328952D01*
X126833333Y-89281333D01*
X127071429Y-89281333D01*
X127261905Y-89328952D01*
X127357143Y-89376571D01*
X127404762Y-89424190D01*
X127452381Y-89519428D01*
X127452381Y-89614667D01*
X127404762Y-89709905D01*
X127357143Y-89757524D01*
X127261905Y-89805143D01*
X127071429Y-89852762D01*
X126833333Y-89852762D01*
X126642857Y-89805143D01*
X126547619Y-89757524D01*
X126500000Y-89709905D01*
X126452381Y-89614667D01*
X126452381Y-88424190D02*
X126452381Y-88614667D01*
X126500000Y-88709905D01*
X126547619Y-88757524D01*
X126690476Y-88852762D01*
X126880952Y-88900381D01*
X127261905Y-88900381D01*
X127357143Y-88852762D01*
X127404762Y-88805143D01*
X127452381Y-88709905D01*
X127452381Y-88519428D01*
X127404762Y-88424190D01*
X127357143Y-88376571D01*
X127261905Y-88328952D01*
X127023810Y-88328952D01*
X126928571Y-88376571D01*
X126880952Y-88424190D01*
X126833333Y-88519428D01*
X126833333Y-88709905D01*
X126880952Y-88805143D01*
X126928571Y-88852762D01*
X127023810Y-88900381D01*
X127452381Y-87424190D02*
X127452381Y-87900381D01*
X126452381Y-87900381D01*
X127404762Y-108060572D02*
X127452381Y-107917715D01*
X127452381Y-107679619D01*
X127404762Y-107584381D01*
X127357143Y-107536762D01*
X127261905Y-107489143D01*
X127166667Y-107489143D01*
X127071429Y-107536762D01*
X127023810Y-107584381D01*
X126976190Y-107679619D01*
X126928571Y-107870096D01*
X126880952Y-107965334D01*
X126833333Y-108012953D01*
X126738095Y-108060572D01*
X126642857Y-108060572D01*
X126547619Y-108012953D01*
X126500000Y-107965334D01*
X126452381Y-107870096D01*
X126452381Y-107632000D01*
X126500000Y-107489143D01*
X126452381Y-107203429D02*
X126452381Y-106632000D01*
X127452381Y-106917715D02*
X126452381Y-106917715D01*
X127452381Y-106298667D02*
X126452381Y-106298667D01*
X126452381Y-105917714D01*
X126500000Y-105822476D01*
X126547619Y-105774857D01*
X126642857Y-105727238D01*
X126785714Y-105727238D01*
X126880952Y-105774857D01*
X126928571Y-105822476D01*
X126976190Y-105917714D01*
X126976190Y-106298667D01*
X127452381Y-104774857D02*
X127452381Y-105346286D01*
X127452381Y-105060572D02*
X126452381Y-105060572D01*
X126595238Y-105155810D01*
X126690476Y-105251048D01*
X126738095Y-105346286D01*
X126452381Y-103917714D02*
X126452381Y-104108191D01*
X126500000Y-104203429D01*
X126547619Y-104251048D01*
X126690476Y-104346286D01*
X126880952Y-104393905D01*
X127261905Y-104393905D01*
X127357143Y-104346286D01*
X127404762Y-104298667D01*
X127452381Y-104203429D01*
X127452381Y-104012952D01*
X127404762Y-103917714D01*
X127357143Y-103870095D01*
X127261905Y-103822476D01*
X127023810Y-103822476D01*
X126928571Y-103870095D01*
X126880952Y-103917714D01*
X126833333Y-104012952D01*
X126833333Y-104203429D01*
X126880952Y-104298667D01*
X126928571Y-104346286D01*
X127023810Y-104393905D01*
X127452381Y-103393905D02*
X126452381Y-103393905D01*
X127452381Y-102822476D01*
X126452381Y-102822476D01*
X126928571Y-102012952D02*
X126928571Y-102346286D01*
X127452381Y-102346286D02*
X126452381Y-102346286D01*
X126452381Y-101870095D01*
X126452381Y-101298667D02*
X126452381Y-101203428D01*
X126500000Y-101108190D01*
X126547619Y-101060571D01*
X126642857Y-101012952D01*
X126833333Y-100965333D01*
X127071429Y-100965333D01*
X127261905Y-101012952D01*
X127357143Y-101060571D01*
X127404762Y-101108190D01*
X127452381Y-101203428D01*
X127452381Y-101298667D01*
X127404762Y-101393905D01*
X127357143Y-101441524D01*
X127261905Y-101489143D01*
X127071429Y-101536762D01*
X126833333Y-101536762D01*
X126642857Y-101489143D01*
X126547619Y-101441524D01*
X126500000Y-101393905D01*
X126452381Y-101298667D01*
X126452381Y-100108190D02*
X126452381Y-100298667D01*
X126500000Y-100393905D01*
X126547619Y-100441524D01*
X126690476Y-100536762D01*
X126880952Y-100584381D01*
X127261905Y-100584381D01*
X127357143Y-100536762D01*
X127404762Y-100489143D01*
X127452381Y-100393905D01*
X127452381Y-100203428D01*
X127404762Y-100108190D01*
X127357143Y-100060571D01*
X127261905Y-100012952D01*
X127023810Y-100012952D01*
X126928571Y-100060571D01*
X126880952Y-100108190D01*
X126833333Y-100203428D01*
X126833333Y-100393905D01*
X126880952Y-100489143D01*
X126928571Y-100536762D01*
X127023810Y-100584381D01*
X127452381Y-99108190D02*
X127452381Y-99584381D01*
X126452381Y-99584381D01*
M02*
