G04 #@! TF.FileFunction,Copper,L2,Bot,Signal*
%FSLAX46Y46*%
G04 Gerber Fmt 4.6, Leading zero omitted, Abs format (unit mm)*
G04 Created by KiCad (PCBNEW (2015-08-15 BZR 6094)-product) date Mon 17 Aug 2015 18:15:34 BST*
%MOMM*%
G01*
G04 APERTURE LIST*
%ADD10C,0.100000*%
%ADD11R,3.500120X3.500120*%
%ADD12R,1.727200X2.032000*%
%ADD13O,1.727200X2.032000*%
%ADD14C,1.998980*%
%ADD15O,2.499360X1.501140*%
%ADD16R,1.727200X1.727200*%
%ADD17O,1.727200X1.727200*%
%ADD18C,1.270000*%
%ADD19C,0.254000*%
G04 APERTURE END LIST*
D10*
D11*
X110236000Y-73764140D03*
X110236000Y-67764660D03*
X105537000Y-70764400D03*
D12*
X128524000Y-71120000D03*
D13*
X131064000Y-71120000D03*
X133604000Y-71120000D03*
X136144000Y-71120000D03*
D14*
X114808000Y-77724000D03*
X104648000Y-77724000D03*
X114808000Y-89408000D03*
X104648000Y-89408000D03*
X114808000Y-101092000D03*
X104648000Y-101092000D03*
X114808000Y-82804000D03*
X104648000Y-82804000D03*
X114808000Y-94488000D03*
X104648000Y-94488000D03*
X114808000Y-106172000D03*
X104648000Y-106172000D03*
D15*
X118872000Y-80264000D03*
X118872000Y-77724000D03*
X118872000Y-82804000D03*
X118872000Y-91948000D03*
X118872000Y-89408000D03*
X118872000Y-94488000D03*
X118872000Y-103632000D03*
X118872000Y-101092000D03*
X118872000Y-106172000D03*
D16*
X94996000Y-106680000D03*
D17*
X92456000Y-106680000D03*
X94996000Y-104140000D03*
X92456000Y-104140000D03*
X94996000Y-101600000D03*
X92456000Y-101600000D03*
X94996000Y-99060000D03*
X92456000Y-99060000D03*
X94996000Y-96520000D03*
X92456000Y-96520000D03*
X94996000Y-93980000D03*
X92456000Y-93980000D03*
X94996000Y-91440000D03*
X92456000Y-91440000D03*
X94996000Y-88900000D03*
X92456000Y-88900000D03*
X94996000Y-86360000D03*
X92456000Y-86360000D03*
X94996000Y-83820000D03*
X92456000Y-83820000D03*
X94996000Y-81280000D03*
X92456000Y-81280000D03*
X94996000Y-78740000D03*
X92456000Y-78740000D03*
X94996000Y-76200000D03*
X92456000Y-76200000D03*
X94996000Y-73660000D03*
X92456000Y-73660000D03*
X94996000Y-71120000D03*
X92456000Y-71120000D03*
X94996000Y-68580000D03*
X92456000Y-68580000D03*
X94996000Y-66040000D03*
X92456000Y-66040000D03*
X94996000Y-63500000D03*
X92456000Y-63500000D03*
D18*
X131064000Y-71120000D02*
X131064000Y-71755000D01*
X131064000Y-71755000D02*
X129413000Y-73406000D01*
X129413000Y-73406000D02*
X124206000Y-73406000D01*
X124206000Y-73406000D02*
X121158000Y-76454000D01*
X121158000Y-76454000D02*
X121158000Y-79248000D01*
X121158000Y-79248000D02*
X120142000Y-80264000D01*
X120142000Y-80264000D02*
X118872000Y-80264000D01*
X133604000Y-71120000D02*
X133604000Y-71501000D01*
X121412000Y-91948000D02*
X118872000Y-91948000D01*
X122682000Y-90678000D02*
X121412000Y-91948000D01*
X122682000Y-77089000D02*
X122682000Y-90678000D01*
X124841000Y-74930000D02*
X122682000Y-77089000D01*
X130175000Y-74930000D02*
X124841000Y-74930000D01*
X133604000Y-71501000D02*
X130175000Y-74930000D01*
X136144000Y-71120000D02*
X136144000Y-71247000D01*
X122936000Y-103632000D02*
X118872000Y-103632000D01*
X124206000Y-102362000D02*
X122936000Y-103632000D01*
X124206000Y-77670002D02*
X124206000Y-102362000D01*
X125476000Y-76400002D02*
X124206000Y-77670002D01*
X130990998Y-76400002D02*
X125476000Y-76400002D01*
X136144000Y-71247000D02*
X130990998Y-76400002D01*
D19*
G36*
X138537893Y-60701415D02*
X138993894Y-61006106D01*
X139298585Y-61462107D01*
X139417000Y-62057421D01*
X139417000Y-75373000D01*
X133634446Y-75373000D01*
X136380665Y-72626781D01*
X136668889Y-72569450D01*
X137113868Y-72272125D01*
X137411193Y-71827146D01*
X137515600Y-71302257D01*
X137515600Y-70937743D01*
X137411193Y-70412854D01*
X137113868Y-69967875D01*
X136668889Y-69670550D01*
X136144000Y-69566143D01*
X135619111Y-69670550D01*
X135174132Y-69967875D01*
X134876807Y-70412854D01*
X134874000Y-70426966D01*
X134871193Y-70412854D01*
X134573868Y-69967875D01*
X134128889Y-69670550D01*
X133604000Y-69566143D01*
X133079111Y-69670550D01*
X132634132Y-69967875D01*
X132336807Y-70412854D01*
X132334000Y-70426966D01*
X132331193Y-70412854D01*
X132033868Y-69967875D01*
X131588889Y-69670550D01*
X131064000Y-69566143D01*
X130539111Y-69670550D01*
X130094132Y-69967875D01*
X129905552Y-70250105D01*
X129905552Y-70104000D01*
X129870130Y-69915747D01*
X129758872Y-69742847D01*
X129589112Y-69626855D01*
X129387600Y-69586048D01*
X127660400Y-69586048D01*
X127472147Y-69621470D01*
X127299247Y-69732728D01*
X127183255Y-69902488D01*
X127142448Y-70104000D01*
X127142448Y-72136000D01*
X127166345Y-72263000D01*
X124206000Y-72263000D01*
X123768593Y-72350006D01*
X123397777Y-72597777D01*
X120349777Y-75645777D01*
X120102006Y-76016593D01*
X120015000Y-76454000D01*
X120015000Y-76646640D01*
X119887179Y-76561233D01*
X119405545Y-76465430D01*
X118338455Y-76465430D01*
X117856821Y-76561233D01*
X117448512Y-76834057D01*
X117175688Y-77242366D01*
X117079885Y-77724000D01*
X117175688Y-78205634D01*
X117448512Y-78613943D01*
X117856821Y-78886767D01*
X118338455Y-78982570D01*
X119405545Y-78982570D01*
X119887179Y-78886767D01*
X119934217Y-78855337D01*
X119721314Y-79068240D01*
X119405545Y-79005430D01*
X118338455Y-79005430D01*
X117856821Y-79101233D01*
X117448512Y-79374057D01*
X117175688Y-79782366D01*
X117079885Y-80264000D01*
X117175688Y-80745634D01*
X117448512Y-81153943D01*
X117856821Y-81426767D01*
X118338455Y-81522570D01*
X119405545Y-81522570D01*
X119887179Y-81426767D01*
X119916762Y-81407000D01*
X120142000Y-81407000D01*
X120579407Y-81319994D01*
X120950223Y-81072223D01*
X121539000Y-80483446D01*
X121539000Y-90204554D01*
X120938554Y-90805000D01*
X119916762Y-90805000D01*
X119887179Y-90785233D01*
X119405545Y-90689430D01*
X118338455Y-90689430D01*
X117856821Y-90785233D01*
X117448512Y-91058057D01*
X117175688Y-91466366D01*
X117079885Y-91948000D01*
X117175688Y-92429634D01*
X117448512Y-92837943D01*
X117856821Y-93110767D01*
X118338455Y-93206570D01*
X119405545Y-93206570D01*
X119887179Y-93110767D01*
X119916762Y-93091000D01*
X121412000Y-93091000D01*
X121849407Y-93003994D01*
X122220223Y-92756223D01*
X123063000Y-91913446D01*
X123063000Y-101888554D01*
X122462554Y-102489000D01*
X119916762Y-102489000D01*
X119887179Y-102469233D01*
X119405545Y-102373430D01*
X118338455Y-102373430D01*
X117856821Y-102469233D01*
X117448512Y-102742057D01*
X117175688Y-103150366D01*
X117079885Y-103632000D01*
X117175688Y-104113634D01*
X117448512Y-104521943D01*
X117856821Y-104794767D01*
X118338455Y-104890570D01*
X119405545Y-104890570D01*
X119887179Y-104794767D01*
X119916762Y-104775000D01*
X122936000Y-104775000D01*
X123373407Y-104687994D01*
X123744223Y-104440223D01*
X125014223Y-103170223D01*
X125261994Y-102799407D01*
X125349000Y-102362000D01*
X125349000Y-78143448D01*
X125949446Y-77543002D01*
X130373000Y-77543002D01*
X130373000Y-109417000D01*
X92057421Y-109417000D01*
X91462107Y-109298585D01*
X91006106Y-108993894D01*
X90701415Y-108537893D01*
X90583000Y-107942578D01*
X90583000Y-63500000D01*
X91057529Y-63500000D01*
X91161936Y-64024889D01*
X91459261Y-64469868D01*
X91904240Y-64767193D01*
X91971423Y-64780556D01*
X91634129Y-64941891D01*
X91276462Y-65339996D01*
X91126973Y-65700920D01*
X91217897Y-65913000D01*
X92329000Y-65913000D01*
X92329000Y-65893000D01*
X92583000Y-65893000D01*
X92583000Y-65913000D01*
X92603000Y-65913000D01*
X92603000Y-66167000D01*
X92583000Y-66167000D01*
X92583000Y-66187000D01*
X92329000Y-66187000D01*
X92329000Y-66167000D01*
X91217897Y-66167000D01*
X91126973Y-66379080D01*
X91276462Y-66740004D01*
X91634129Y-67138109D01*
X91971423Y-67299444D01*
X91904240Y-67312807D01*
X91459261Y-67610132D01*
X91161936Y-68055111D01*
X91057529Y-68580000D01*
X91161936Y-69104889D01*
X91459261Y-69549868D01*
X91904240Y-69847193D01*
X91971423Y-69860556D01*
X91634129Y-70021891D01*
X91276462Y-70419996D01*
X91126973Y-70780920D01*
X91217897Y-70993000D01*
X92329000Y-70993000D01*
X92329000Y-70973000D01*
X92583000Y-70973000D01*
X92583000Y-70993000D01*
X92603000Y-70993000D01*
X92603000Y-71247000D01*
X92583000Y-71247000D01*
X92583000Y-71267000D01*
X92329000Y-71267000D01*
X92329000Y-71247000D01*
X91217897Y-71247000D01*
X91126973Y-71459080D01*
X91276462Y-71820004D01*
X91634129Y-72218109D01*
X91971423Y-72379444D01*
X91904240Y-72392807D01*
X91459261Y-72690132D01*
X91161936Y-73135111D01*
X91057529Y-73660000D01*
X91161936Y-74184889D01*
X91459261Y-74629868D01*
X91904240Y-74927193D01*
X91918352Y-74930000D01*
X91904240Y-74932807D01*
X91459261Y-75230132D01*
X91161936Y-75675111D01*
X91057529Y-76200000D01*
X91161936Y-76724889D01*
X91459261Y-77169868D01*
X91904240Y-77467193D01*
X91918352Y-77470000D01*
X91904240Y-77472807D01*
X91459261Y-77770132D01*
X91161936Y-78215111D01*
X91057529Y-78740000D01*
X91161936Y-79264889D01*
X91459261Y-79709868D01*
X91904240Y-80007193D01*
X91918352Y-80010000D01*
X91904240Y-80012807D01*
X91459261Y-80310132D01*
X91161936Y-80755111D01*
X91057529Y-81280000D01*
X91161936Y-81804889D01*
X91459261Y-82249868D01*
X91904240Y-82547193D01*
X91971423Y-82560556D01*
X91634129Y-82721891D01*
X91276462Y-83119996D01*
X91126973Y-83480920D01*
X91217897Y-83693000D01*
X92329000Y-83693000D01*
X92329000Y-83673000D01*
X92583000Y-83673000D01*
X92583000Y-83693000D01*
X92603000Y-83693000D01*
X92603000Y-83947000D01*
X92583000Y-83947000D01*
X92583000Y-83967000D01*
X92329000Y-83967000D01*
X92329000Y-83947000D01*
X91217897Y-83947000D01*
X91126973Y-84159080D01*
X91276462Y-84520004D01*
X91634129Y-84918109D01*
X91971423Y-85079444D01*
X91904240Y-85092807D01*
X91459261Y-85390132D01*
X91161936Y-85835111D01*
X91057529Y-86360000D01*
X91161936Y-86884889D01*
X91459261Y-87329868D01*
X91904240Y-87627193D01*
X91918352Y-87630000D01*
X91904240Y-87632807D01*
X91459261Y-87930132D01*
X91161936Y-88375111D01*
X91057529Y-88900000D01*
X91161936Y-89424889D01*
X91459261Y-89869868D01*
X91904240Y-90167193D01*
X91971423Y-90180556D01*
X91634129Y-90341891D01*
X91276462Y-90739996D01*
X91126973Y-91100920D01*
X91217897Y-91313000D01*
X92329000Y-91313000D01*
X92329000Y-91293000D01*
X92583000Y-91293000D01*
X92583000Y-91313000D01*
X92603000Y-91313000D01*
X92603000Y-91567000D01*
X92583000Y-91567000D01*
X92583000Y-91587000D01*
X92329000Y-91587000D01*
X92329000Y-91567000D01*
X91217897Y-91567000D01*
X91126973Y-91779080D01*
X91276462Y-92140004D01*
X91634129Y-92538109D01*
X91971423Y-92699444D01*
X91904240Y-92712807D01*
X91459261Y-93010132D01*
X91161936Y-93455111D01*
X91057529Y-93980000D01*
X91161936Y-94504889D01*
X91459261Y-94949868D01*
X91904240Y-95247193D01*
X91918352Y-95250000D01*
X91904240Y-95252807D01*
X91459261Y-95550132D01*
X91161936Y-95995111D01*
X91057529Y-96520000D01*
X91161936Y-97044889D01*
X91459261Y-97489868D01*
X91904240Y-97787193D01*
X91918352Y-97790000D01*
X91904240Y-97792807D01*
X91459261Y-98090132D01*
X91161936Y-98535111D01*
X91057529Y-99060000D01*
X91161936Y-99584889D01*
X91459261Y-100029868D01*
X91904240Y-100327193D01*
X91971423Y-100340556D01*
X91634129Y-100501891D01*
X91276462Y-100899996D01*
X91126973Y-101260920D01*
X91217897Y-101473000D01*
X92329000Y-101473000D01*
X92329000Y-101453000D01*
X92583000Y-101453000D01*
X92583000Y-101473000D01*
X92603000Y-101473000D01*
X92603000Y-101727000D01*
X92583000Y-101727000D01*
X92583000Y-101747000D01*
X92329000Y-101747000D01*
X92329000Y-101727000D01*
X91217897Y-101727000D01*
X91126973Y-101939080D01*
X91276462Y-102300004D01*
X91634129Y-102698109D01*
X91971423Y-102859444D01*
X91904240Y-102872807D01*
X91459261Y-103170132D01*
X91161936Y-103615111D01*
X91057529Y-104140000D01*
X91161936Y-104664889D01*
X91459261Y-105109868D01*
X91904240Y-105407193D01*
X91918352Y-105410000D01*
X91904240Y-105412807D01*
X91459261Y-105710132D01*
X91161936Y-106155111D01*
X91057529Y-106680000D01*
X91161936Y-107204889D01*
X91459261Y-107649868D01*
X91904240Y-107947193D01*
X92429129Y-108051600D01*
X92482871Y-108051600D01*
X93007760Y-107947193D01*
X93452739Y-107649868D01*
X93614448Y-107407853D01*
X93614448Y-107543600D01*
X93649870Y-107731853D01*
X93761128Y-107904753D01*
X93930888Y-108020745D01*
X94132400Y-108061552D01*
X95859600Y-108061552D01*
X96047853Y-108026130D01*
X96220753Y-107914872D01*
X96336745Y-107745112D01*
X96377552Y-107543600D01*
X96377552Y-107254787D01*
X103744818Y-107254787D01*
X103850396Y-107485874D01*
X104413908Y-107691092D01*
X105013059Y-107665041D01*
X105445604Y-107485874D01*
X105551182Y-107254787D01*
X104648000Y-106351605D01*
X103744818Y-107254787D01*
X96377552Y-107254787D01*
X96377552Y-105937908D01*
X103128908Y-105937908D01*
X103154959Y-106537059D01*
X103334126Y-106969604D01*
X103565213Y-107075182D01*
X104468395Y-106172000D01*
X104827605Y-106172000D01*
X105730787Y-107075182D01*
X105961874Y-106969604D01*
X106143620Y-106470543D01*
X113300249Y-106470543D01*
X113529267Y-107024809D01*
X113952961Y-107449242D01*
X114506826Y-107679227D01*
X115106543Y-107679751D01*
X115660809Y-107450733D01*
X116085242Y-107027039D01*
X116306863Y-106493315D01*
X117156027Y-106493315D01*
X117161522Y-106536300D01*
X117393144Y-106972140D01*
X117773923Y-107286166D01*
X118245890Y-107430570D01*
X118745000Y-107430570D01*
X118745000Y-106299000D01*
X118999000Y-106299000D01*
X118999000Y-107430570D01*
X119498110Y-107430570D01*
X119970077Y-107286166D01*
X120350856Y-106972140D01*
X120582478Y-106536300D01*
X120587973Y-106493315D01*
X120495531Y-106299000D01*
X118999000Y-106299000D01*
X118745000Y-106299000D01*
X117248469Y-106299000D01*
X117156027Y-106493315D01*
X116306863Y-106493315D01*
X116315227Y-106473174D01*
X116315751Y-105873457D01*
X116306342Y-105850685D01*
X117156027Y-105850685D01*
X117248469Y-106045000D01*
X118745000Y-106045000D01*
X118745000Y-104913430D01*
X118999000Y-104913430D01*
X118999000Y-106045000D01*
X120495531Y-106045000D01*
X120587973Y-105850685D01*
X120582478Y-105807700D01*
X120350856Y-105371860D01*
X119970077Y-105057834D01*
X119498110Y-104913430D01*
X118999000Y-104913430D01*
X118745000Y-104913430D01*
X118245890Y-104913430D01*
X117773923Y-105057834D01*
X117393144Y-105371860D01*
X117161522Y-105807700D01*
X117156027Y-105850685D01*
X116306342Y-105850685D01*
X116086733Y-105319191D01*
X115663039Y-104894758D01*
X115109174Y-104664773D01*
X114509457Y-104664249D01*
X113955191Y-104893267D01*
X113530758Y-105316961D01*
X113300773Y-105870826D01*
X113300249Y-106470543D01*
X106143620Y-106470543D01*
X106167092Y-106406092D01*
X106141041Y-105806941D01*
X105961874Y-105374396D01*
X105730787Y-105268818D01*
X104827605Y-106172000D01*
X104468395Y-106172000D01*
X103565213Y-105268818D01*
X103334126Y-105374396D01*
X103128908Y-105937908D01*
X96377552Y-105937908D01*
X96377552Y-105816400D01*
X96342130Y-105628147D01*
X96230872Y-105455247D01*
X96061112Y-105339255D01*
X95859600Y-105298448D01*
X95710509Y-105298448D01*
X95992739Y-105109868D01*
X96006540Y-105089213D01*
X103744818Y-105089213D01*
X104648000Y-105992395D01*
X105551182Y-105089213D01*
X105445604Y-104858126D01*
X104882092Y-104652908D01*
X104282941Y-104678959D01*
X103850396Y-104858126D01*
X103744818Y-105089213D01*
X96006540Y-105089213D01*
X96290064Y-104664889D01*
X96394471Y-104140000D01*
X96290064Y-103615111D01*
X95992739Y-103170132D01*
X95547760Y-102872807D01*
X95533648Y-102870000D01*
X95547760Y-102867193D01*
X95992739Y-102569868D01*
X96290064Y-102124889D01*
X96394471Y-101600000D01*
X96352808Y-101390543D01*
X103140249Y-101390543D01*
X103369267Y-101944809D01*
X103792961Y-102369242D01*
X104346826Y-102599227D01*
X104946543Y-102599751D01*
X105500809Y-102370733D01*
X105925242Y-101947039D01*
X106155227Y-101393174D01*
X106155229Y-101390543D01*
X113300249Y-101390543D01*
X113529267Y-101944809D01*
X113952961Y-102369242D01*
X114506826Y-102599227D01*
X115106543Y-102599751D01*
X115660809Y-102370733D01*
X116085242Y-101947039D01*
X116315227Y-101393174D01*
X116315490Y-101092000D01*
X117079885Y-101092000D01*
X117175688Y-101573634D01*
X117448512Y-101981943D01*
X117856821Y-102254767D01*
X118338455Y-102350570D01*
X119405545Y-102350570D01*
X119887179Y-102254767D01*
X120295488Y-101981943D01*
X120568312Y-101573634D01*
X120664115Y-101092000D01*
X120568312Y-100610366D01*
X120295488Y-100202057D01*
X119887179Y-99929233D01*
X119405545Y-99833430D01*
X118338455Y-99833430D01*
X117856821Y-99929233D01*
X117448512Y-100202057D01*
X117175688Y-100610366D01*
X117079885Y-101092000D01*
X116315490Y-101092000D01*
X116315751Y-100793457D01*
X116086733Y-100239191D01*
X115663039Y-99814758D01*
X115109174Y-99584773D01*
X114509457Y-99584249D01*
X113955191Y-99813267D01*
X113530758Y-100236961D01*
X113300773Y-100790826D01*
X113300249Y-101390543D01*
X106155229Y-101390543D01*
X106155751Y-100793457D01*
X105926733Y-100239191D01*
X105503039Y-99814758D01*
X104949174Y-99584773D01*
X104349457Y-99584249D01*
X103795191Y-99813267D01*
X103370758Y-100236961D01*
X103140773Y-100790826D01*
X103140249Y-101390543D01*
X96352808Y-101390543D01*
X96290064Y-101075111D01*
X95992739Y-100630132D01*
X95547760Y-100332807D01*
X95533648Y-100330000D01*
X95547760Y-100327193D01*
X95992739Y-100029868D01*
X96290064Y-99584889D01*
X96394471Y-99060000D01*
X96290064Y-98535111D01*
X95992739Y-98090132D01*
X95547760Y-97792807D01*
X95480577Y-97779444D01*
X95817871Y-97618109D01*
X96175538Y-97220004D01*
X96325027Y-96859080D01*
X96234103Y-96647000D01*
X95123000Y-96647000D01*
X95123000Y-96667000D01*
X94869000Y-96667000D01*
X94869000Y-96647000D01*
X94849000Y-96647000D01*
X94849000Y-96393000D01*
X94869000Y-96393000D01*
X94869000Y-96373000D01*
X95123000Y-96373000D01*
X95123000Y-96393000D01*
X96234103Y-96393000D01*
X96325027Y-96180920D01*
X96175538Y-95819996D01*
X95951643Y-95570787D01*
X103744818Y-95570787D01*
X103850396Y-95801874D01*
X104413908Y-96007092D01*
X105013059Y-95981041D01*
X105445604Y-95801874D01*
X105551182Y-95570787D01*
X104648000Y-94667605D01*
X103744818Y-95570787D01*
X95951643Y-95570787D01*
X95817871Y-95421891D01*
X95480577Y-95260556D01*
X95547760Y-95247193D01*
X95992739Y-94949868D01*
X96290064Y-94504889D01*
X96339987Y-94253908D01*
X103128908Y-94253908D01*
X103154959Y-94853059D01*
X103334126Y-95285604D01*
X103565213Y-95391182D01*
X104468395Y-94488000D01*
X104827605Y-94488000D01*
X105730787Y-95391182D01*
X105961874Y-95285604D01*
X106143620Y-94786543D01*
X113300249Y-94786543D01*
X113529267Y-95340809D01*
X113952961Y-95765242D01*
X114506826Y-95995227D01*
X115106543Y-95995751D01*
X115660809Y-95766733D01*
X116085242Y-95343039D01*
X116306863Y-94809315D01*
X117156027Y-94809315D01*
X117161522Y-94852300D01*
X117393144Y-95288140D01*
X117773923Y-95602166D01*
X118245890Y-95746570D01*
X118745000Y-95746570D01*
X118745000Y-94615000D01*
X118999000Y-94615000D01*
X118999000Y-95746570D01*
X119498110Y-95746570D01*
X119970077Y-95602166D01*
X120350856Y-95288140D01*
X120582478Y-94852300D01*
X120587973Y-94809315D01*
X120495531Y-94615000D01*
X118999000Y-94615000D01*
X118745000Y-94615000D01*
X117248469Y-94615000D01*
X117156027Y-94809315D01*
X116306863Y-94809315D01*
X116315227Y-94789174D01*
X116315751Y-94189457D01*
X116306342Y-94166685D01*
X117156027Y-94166685D01*
X117248469Y-94361000D01*
X118745000Y-94361000D01*
X118745000Y-93229430D01*
X118999000Y-93229430D01*
X118999000Y-94361000D01*
X120495531Y-94361000D01*
X120587973Y-94166685D01*
X120582478Y-94123700D01*
X120350856Y-93687860D01*
X119970077Y-93373834D01*
X119498110Y-93229430D01*
X118999000Y-93229430D01*
X118745000Y-93229430D01*
X118245890Y-93229430D01*
X117773923Y-93373834D01*
X117393144Y-93687860D01*
X117161522Y-94123700D01*
X117156027Y-94166685D01*
X116306342Y-94166685D01*
X116086733Y-93635191D01*
X115663039Y-93210758D01*
X115109174Y-92980773D01*
X114509457Y-92980249D01*
X113955191Y-93209267D01*
X113530758Y-93632961D01*
X113300773Y-94186826D01*
X113300249Y-94786543D01*
X106143620Y-94786543D01*
X106167092Y-94722092D01*
X106141041Y-94122941D01*
X105961874Y-93690396D01*
X105730787Y-93584818D01*
X104827605Y-94488000D01*
X104468395Y-94488000D01*
X103565213Y-93584818D01*
X103334126Y-93690396D01*
X103128908Y-94253908D01*
X96339987Y-94253908D01*
X96394471Y-93980000D01*
X96290064Y-93455111D01*
X96256724Y-93405213D01*
X103744818Y-93405213D01*
X104648000Y-94308395D01*
X105551182Y-93405213D01*
X105445604Y-93174126D01*
X104882092Y-92968908D01*
X104282941Y-92994959D01*
X103850396Y-93174126D01*
X103744818Y-93405213D01*
X96256724Y-93405213D01*
X95992739Y-93010132D01*
X95547760Y-92712807D01*
X95533648Y-92710000D01*
X95547760Y-92707193D01*
X95992739Y-92409868D01*
X96290064Y-91964889D01*
X96394471Y-91440000D01*
X96290064Y-90915111D01*
X95992739Y-90470132D01*
X95547760Y-90172807D01*
X95533648Y-90170000D01*
X95547760Y-90167193D01*
X95992739Y-89869868D01*
X96101869Y-89706543D01*
X103140249Y-89706543D01*
X103369267Y-90260809D01*
X103792961Y-90685242D01*
X104346826Y-90915227D01*
X104946543Y-90915751D01*
X105500809Y-90686733D01*
X105925242Y-90263039D01*
X106155227Y-89709174D01*
X106155229Y-89706543D01*
X113300249Y-89706543D01*
X113529267Y-90260809D01*
X113952961Y-90685242D01*
X114506826Y-90915227D01*
X115106543Y-90915751D01*
X115660809Y-90686733D01*
X116085242Y-90263039D01*
X116315227Y-89709174D01*
X116315490Y-89408000D01*
X117079885Y-89408000D01*
X117175688Y-89889634D01*
X117448512Y-90297943D01*
X117856821Y-90570767D01*
X118338455Y-90666570D01*
X119405545Y-90666570D01*
X119887179Y-90570767D01*
X120295488Y-90297943D01*
X120568312Y-89889634D01*
X120664115Y-89408000D01*
X120568312Y-88926366D01*
X120295488Y-88518057D01*
X119887179Y-88245233D01*
X119405545Y-88149430D01*
X118338455Y-88149430D01*
X117856821Y-88245233D01*
X117448512Y-88518057D01*
X117175688Y-88926366D01*
X117079885Y-89408000D01*
X116315490Y-89408000D01*
X116315751Y-89109457D01*
X116086733Y-88555191D01*
X115663039Y-88130758D01*
X115109174Y-87900773D01*
X114509457Y-87900249D01*
X113955191Y-88129267D01*
X113530758Y-88552961D01*
X113300773Y-89106826D01*
X113300249Y-89706543D01*
X106155229Y-89706543D01*
X106155751Y-89109457D01*
X105926733Y-88555191D01*
X105503039Y-88130758D01*
X104949174Y-87900773D01*
X104349457Y-87900249D01*
X103795191Y-88129267D01*
X103370758Y-88552961D01*
X103140773Y-89106826D01*
X103140249Y-89706543D01*
X96101869Y-89706543D01*
X96290064Y-89424889D01*
X96394471Y-88900000D01*
X96290064Y-88375111D01*
X95992739Y-87930132D01*
X95547760Y-87632807D01*
X95533648Y-87630000D01*
X95547760Y-87627193D01*
X95992739Y-87329868D01*
X96290064Y-86884889D01*
X96394471Y-86360000D01*
X96290064Y-85835111D01*
X95992739Y-85390132D01*
X95547760Y-85092807D01*
X95533648Y-85090000D01*
X95547760Y-85087193D01*
X95992739Y-84789868D01*
X96290064Y-84344889D01*
X96381186Y-83886787D01*
X103744818Y-83886787D01*
X103850396Y-84117874D01*
X104413908Y-84323092D01*
X105013059Y-84297041D01*
X105445604Y-84117874D01*
X105551182Y-83886787D01*
X104648000Y-82983605D01*
X103744818Y-83886787D01*
X96381186Y-83886787D01*
X96394471Y-83820000D01*
X96290064Y-83295111D01*
X95992739Y-82850132D01*
X95573354Y-82569908D01*
X103128908Y-82569908D01*
X103154959Y-83169059D01*
X103334126Y-83601604D01*
X103565213Y-83707182D01*
X104468395Y-82804000D01*
X104827605Y-82804000D01*
X105730787Y-83707182D01*
X105961874Y-83601604D01*
X106143620Y-83102543D01*
X113300249Y-83102543D01*
X113529267Y-83656809D01*
X113952961Y-84081242D01*
X114506826Y-84311227D01*
X115106543Y-84311751D01*
X115660809Y-84082733D01*
X116085242Y-83659039D01*
X116306863Y-83125315D01*
X117156027Y-83125315D01*
X117161522Y-83168300D01*
X117393144Y-83604140D01*
X117773923Y-83918166D01*
X118245890Y-84062570D01*
X118745000Y-84062570D01*
X118745000Y-82931000D01*
X118999000Y-82931000D01*
X118999000Y-84062570D01*
X119498110Y-84062570D01*
X119970077Y-83918166D01*
X120350856Y-83604140D01*
X120582478Y-83168300D01*
X120587973Y-83125315D01*
X120495531Y-82931000D01*
X118999000Y-82931000D01*
X118745000Y-82931000D01*
X117248469Y-82931000D01*
X117156027Y-83125315D01*
X116306863Y-83125315D01*
X116315227Y-83105174D01*
X116315751Y-82505457D01*
X116306342Y-82482685D01*
X117156027Y-82482685D01*
X117248469Y-82677000D01*
X118745000Y-82677000D01*
X118745000Y-81545430D01*
X118999000Y-81545430D01*
X118999000Y-82677000D01*
X120495531Y-82677000D01*
X120587973Y-82482685D01*
X120582478Y-82439700D01*
X120350856Y-82003860D01*
X119970077Y-81689834D01*
X119498110Y-81545430D01*
X118999000Y-81545430D01*
X118745000Y-81545430D01*
X118245890Y-81545430D01*
X117773923Y-81689834D01*
X117393144Y-82003860D01*
X117161522Y-82439700D01*
X117156027Y-82482685D01*
X116306342Y-82482685D01*
X116086733Y-81951191D01*
X115663039Y-81526758D01*
X115109174Y-81296773D01*
X114509457Y-81296249D01*
X113955191Y-81525267D01*
X113530758Y-81948961D01*
X113300773Y-82502826D01*
X113300249Y-83102543D01*
X106143620Y-83102543D01*
X106167092Y-83038092D01*
X106141041Y-82438941D01*
X105961874Y-82006396D01*
X105730787Y-81900818D01*
X104827605Y-82804000D01*
X104468395Y-82804000D01*
X103565213Y-81900818D01*
X103334126Y-82006396D01*
X103128908Y-82569908D01*
X95573354Y-82569908D01*
X95547760Y-82552807D01*
X95533648Y-82550000D01*
X95547760Y-82547193D01*
X95992739Y-82249868D01*
X96290064Y-81804889D01*
X96306708Y-81721213D01*
X103744818Y-81721213D01*
X104648000Y-82624395D01*
X105551182Y-81721213D01*
X105445604Y-81490126D01*
X104882092Y-81284908D01*
X104282941Y-81310959D01*
X103850396Y-81490126D01*
X103744818Y-81721213D01*
X96306708Y-81721213D01*
X96394471Y-81280000D01*
X96290064Y-80755111D01*
X95992739Y-80310132D01*
X95547760Y-80012807D01*
X95533648Y-80010000D01*
X95547760Y-80007193D01*
X95992739Y-79709868D01*
X96290064Y-79264889D01*
X96394471Y-78740000D01*
X96290064Y-78215111D01*
X96161395Y-78022543D01*
X103140249Y-78022543D01*
X103369267Y-78576809D01*
X103792961Y-79001242D01*
X104346826Y-79231227D01*
X104946543Y-79231751D01*
X105500809Y-79002733D01*
X105925242Y-78579039D01*
X106155227Y-78025174D01*
X106155229Y-78022543D01*
X113300249Y-78022543D01*
X113529267Y-78576809D01*
X113952961Y-79001242D01*
X114506826Y-79231227D01*
X115106543Y-79231751D01*
X115660809Y-79002733D01*
X116085242Y-78579039D01*
X116315227Y-78025174D01*
X116315751Y-77425457D01*
X116086733Y-76871191D01*
X115663039Y-76446758D01*
X115109174Y-76216773D01*
X114509457Y-76216249D01*
X113955191Y-76445267D01*
X113530758Y-76868961D01*
X113300773Y-77422826D01*
X113300249Y-78022543D01*
X106155229Y-78022543D01*
X106155751Y-77425457D01*
X105926733Y-76871191D01*
X105503039Y-76446758D01*
X104949174Y-76216773D01*
X104349457Y-76216249D01*
X103795191Y-76445267D01*
X103370758Y-76868961D01*
X103140773Y-77422826D01*
X103140249Y-78022543D01*
X96161395Y-78022543D01*
X95992739Y-77770132D01*
X95547760Y-77472807D01*
X95480577Y-77459444D01*
X95817871Y-77298109D01*
X96175538Y-76900004D01*
X96325027Y-76539080D01*
X96234103Y-76327000D01*
X95123000Y-76327000D01*
X95123000Y-76347000D01*
X94869000Y-76347000D01*
X94869000Y-76327000D01*
X94849000Y-76327000D01*
X94849000Y-76073000D01*
X94869000Y-76073000D01*
X94869000Y-76053000D01*
X95123000Y-76053000D01*
X95123000Y-76073000D01*
X96234103Y-76073000D01*
X96325027Y-75860920D01*
X96175538Y-75499996D01*
X95817871Y-75101891D01*
X95480577Y-74940556D01*
X95547760Y-74927193D01*
X95992739Y-74629868D01*
X96290064Y-74184889D01*
X96394471Y-73660000D01*
X96290064Y-73135111D01*
X95992739Y-72690132D01*
X95547760Y-72392807D01*
X95533648Y-72390000D01*
X95547760Y-72387193D01*
X95992739Y-72089868D01*
X96290064Y-71644889D01*
X96394471Y-71120000D01*
X96374262Y-71018400D01*
X103278940Y-71018400D01*
X103278940Y-72615507D01*
X103356278Y-72802218D01*
X103499181Y-72945121D01*
X103685892Y-73022460D01*
X105283000Y-73022460D01*
X105410000Y-72895460D01*
X105410000Y-70891400D01*
X105664000Y-70891400D01*
X105664000Y-72895460D01*
X105791000Y-73022460D01*
X107388108Y-73022460D01*
X107574819Y-72945121D01*
X107717722Y-72802218D01*
X107795060Y-72615507D01*
X107795060Y-72014080D01*
X107967988Y-72014080D01*
X107967988Y-75514200D01*
X108003410Y-75702453D01*
X108114668Y-75875353D01*
X108284428Y-75991345D01*
X108485940Y-76032152D01*
X111986060Y-76032152D01*
X112174313Y-75996730D01*
X112347213Y-75885472D01*
X112463205Y-75715712D01*
X112504012Y-75514200D01*
X112504012Y-72014080D01*
X112468590Y-71825827D01*
X112357332Y-71652927D01*
X112187572Y-71536935D01*
X111986060Y-71496128D01*
X108485940Y-71496128D01*
X108297687Y-71531550D01*
X108124787Y-71642808D01*
X108008795Y-71812568D01*
X107967988Y-72014080D01*
X107795060Y-72014080D01*
X107795060Y-71018400D01*
X107668060Y-70891400D01*
X105664000Y-70891400D01*
X105410000Y-70891400D01*
X103405940Y-70891400D01*
X103278940Y-71018400D01*
X96374262Y-71018400D01*
X96290064Y-70595111D01*
X95992739Y-70150132D01*
X95547760Y-69852807D01*
X95533648Y-69850000D01*
X95547760Y-69847193D01*
X95992739Y-69549868D01*
X96290064Y-69104889D01*
X96328174Y-68913293D01*
X103278940Y-68913293D01*
X103278940Y-70510400D01*
X103405940Y-70637400D01*
X105410000Y-70637400D01*
X105410000Y-68633340D01*
X105664000Y-68633340D01*
X105664000Y-70637400D01*
X107668060Y-70637400D01*
X107795060Y-70510400D01*
X107795060Y-68913293D01*
X107717722Y-68726582D01*
X107574819Y-68583679D01*
X107388108Y-68506340D01*
X105791000Y-68506340D01*
X105664000Y-68633340D01*
X105410000Y-68633340D01*
X105283000Y-68506340D01*
X103685892Y-68506340D01*
X103499181Y-68583679D01*
X103356278Y-68726582D01*
X103278940Y-68913293D01*
X96328174Y-68913293D01*
X96394471Y-68580000D01*
X96290064Y-68055111D01*
X96265709Y-68018660D01*
X107977940Y-68018660D01*
X107977940Y-69615767D01*
X108055278Y-69802478D01*
X108198181Y-69945381D01*
X108384892Y-70022720D01*
X109982000Y-70022720D01*
X110109000Y-69895720D01*
X110109000Y-67891660D01*
X110363000Y-67891660D01*
X110363000Y-69895720D01*
X110490000Y-70022720D01*
X112087108Y-70022720D01*
X112273819Y-69945381D01*
X112416722Y-69802478D01*
X112494060Y-69615767D01*
X112494060Y-68018660D01*
X112367060Y-67891660D01*
X110363000Y-67891660D01*
X110109000Y-67891660D01*
X108104940Y-67891660D01*
X107977940Y-68018660D01*
X96265709Y-68018660D01*
X95992739Y-67610132D01*
X95547760Y-67312807D01*
X95533648Y-67310000D01*
X95547760Y-67307193D01*
X95992739Y-67009868D01*
X96290064Y-66564889D01*
X96394471Y-66040000D01*
X96369320Y-65913553D01*
X107977940Y-65913553D01*
X107977940Y-67510660D01*
X108104940Y-67637660D01*
X110109000Y-67637660D01*
X110109000Y-65633600D01*
X110363000Y-65633600D01*
X110363000Y-67637660D01*
X112367060Y-67637660D01*
X112494060Y-67510660D01*
X112494060Y-65913553D01*
X112416722Y-65726842D01*
X112273819Y-65583939D01*
X112087108Y-65506600D01*
X110490000Y-65506600D01*
X110363000Y-65633600D01*
X110109000Y-65633600D01*
X109982000Y-65506600D01*
X108384892Y-65506600D01*
X108198181Y-65583939D01*
X108055278Y-65726842D01*
X107977940Y-65913553D01*
X96369320Y-65913553D01*
X96290064Y-65515111D01*
X95992739Y-65070132D01*
X95547760Y-64772807D01*
X95533648Y-64770000D01*
X95547760Y-64767193D01*
X95992739Y-64469868D01*
X96290064Y-64024889D01*
X96394471Y-63500000D01*
X96290064Y-62975111D01*
X95992739Y-62530132D01*
X95547760Y-62232807D01*
X95022871Y-62128400D01*
X94969129Y-62128400D01*
X94444240Y-62232807D01*
X93999261Y-62530132D01*
X93726000Y-62939097D01*
X93452739Y-62530132D01*
X93007760Y-62232807D01*
X92482871Y-62128400D01*
X92429129Y-62128400D01*
X91904240Y-62232807D01*
X91459261Y-62530132D01*
X91161936Y-62975111D01*
X91057529Y-63500000D01*
X90583000Y-63500000D01*
X90583000Y-62057422D01*
X90701415Y-61462107D01*
X91006106Y-61006106D01*
X91462107Y-60701415D01*
X92057421Y-60583000D01*
X137942578Y-60583000D01*
X138537893Y-60701415D01*
X138537893Y-60701415D01*
G37*
X138537893Y-60701415D02*
X138993894Y-61006106D01*
X139298585Y-61462107D01*
X139417000Y-62057421D01*
X139417000Y-75373000D01*
X133634446Y-75373000D01*
X136380665Y-72626781D01*
X136668889Y-72569450D01*
X137113868Y-72272125D01*
X137411193Y-71827146D01*
X137515600Y-71302257D01*
X137515600Y-70937743D01*
X137411193Y-70412854D01*
X137113868Y-69967875D01*
X136668889Y-69670550D01*
X136144000Y-69566143D01*
X135619111Y-69670550D01*
X135174132Y-69967875D01*
X134876807Y-70412854D01*
X134874000Y-70426966D01*
X134871193Y-70412854D01*
X134573868Y-69967875D01*
X134128889Y-69670550D01*
X133604000Y-69566143D01*
X133079111Y-69670550D01*
X132634132Y-69967875D01*
X132336807Y-70412854D01*
X132334000Y-70426966D01*
X132331193Y-70412854D01*
X132033868Y-69967875D01*
X131588889Y-69670550D01*
X131064000Y-69566143D01*
X130539111Y-69670550D01*
X130094132Y-69967875D01*
X129905552Y-70250105D01*
X129905552Y-70104000D01*
X129870130Y-69915747D01*
X129758872Y-69742847D01*
X129589112Y-69626855D01*
X129387600Y-69586048D01*
X127660400Y-69586048D01*
X127472147Y-69621470D01*
X127299247Y-69732728D01*
X127183255Y-69902488D01*
X127142448Y-70104000D01*
X127142448Y-72136000D01*
X127166345Y-72263000D01*
X124206000Y-72263000D01*
X123768593Y-72350006D01*
X123397777Y-72597777D01*
X120349777Y-75645777D01*
X120102006Y-76016593D01*
X120015000Y-76454000D01*
X120015000Y-76646640D01*
X119887179Y-76561233D01*
X119405545Y-76465430D01*
X118338455Y-76465430D01*
X117856821Y-76561233D01*
X117448512Y-76834057D01*
X117175688Y-77242366D01*
X117079885Y-77724000D01*
X117175688Y-78205634D01*
X117448512Y-78613943D01*
X117856821Y-78886767D01*
X118338455Y-78982570D01*
X119405545Y-78982570D01*
X119887179Y-78886767D01*
X119934217Y-78855337D01*
X119721314Y-79068240D01*
X119405545Y-79005430D01*
X118338455Y-79005430D01*
X117856821Y-79101233D01*
X117448512Y-79374057D01*
X117175688Y-79782366D01*
X117079885Y-80264000D01*
X117175688Y-80745634D01*
X117448512Y-81153943D01*
X117856821Y-81426767D01*
X118338455Y-81522570D01*
X119405545Y-81522570D01*
X119887179Y-81426767D01*
X119916762Y-81407000D01*
X120142000Y-81407000D01*
X120579407Y-81319994D01*
X120950223Y-81072223D01*
X121539000Y-80483446D01*
X121539000Y-90204554D01*
X120938554Y-90805000D01*
X119916762Y-90805000D01*
X119887179Y-90785233D01*
X119405545Y-90689430D01*
X118338455Y-90689430D01*
X117856821Y-90785233D01*
X117448512Y-91058057D01*
X117175688Y-91466366D01*
X117079885Y-91948000D01*
X117175688Y-92429634D01*
X117448512Y-92837943D01*
X117856821Y-93110767D01*
X118338455Y-93206570D01*
X119405545Y-93206570D01*
X119887179Y-93110767D01*
X119916762Y-93091000D01*
X121412000Y-93091000D01*
X121849407Y-93003994D01*
X122220223Y-92756223D01*
X123063000Y-91913446D01*
X123063000Y-101888554D01*
X122462554Y-102489000D01*
X119916762Y-102489000D01*
X119887179Y-102469233D01*
X119405545Y-102373430D01*
X118338455Y-102373430D01*
X117856821Y-102469233D01*
X117448512Y-102742057D01*
X117175688Y-103150366D01*
X117079885Y-103632000D01*
X117175688Y-104113634D01*
X117448512Y-104521943D01*
X117856821Y-104794767D01*
X118338455Y-104890570D01*
X119405545Y-104890570D01*
X119887179Y-104794767D01*
X119916762Y-104775000D01*
X122936000Y-104775000D01*
X123373407Y-104687994D01*
X123744223Y-104440223D01*
X125014223Y-103170223D01*
X125261994Y-102799407D01*
X125349000Y-102362000D01*
X125349000Y-78143448D01*
X125949446Y-77543002D01*
X130373000Y-77543002D01*
X130373000Y-109417000D01*
X92057421Y-109417000D01*
X91462107Y-109298585D01*
X91006106Y-108993894D01*
X90701415Y-108537893D01*
X90583000Y-107942578D01*
X90583000Y-63500000D01*
X91057529Y-63500000D01*
X91161936Y-64024889D01*
X91459261Y-64469868D01*
X91904240Y-64767193D01*
X91971423Y-64780556D01*
X91634129Y-64941891D01*
X91276462Y-65339996D01*
X91126973Y-65700920D01*
X91217897Y-65913000D01*
X92329000Y-65913000D01*
X92329000Y-65893000D01*
X92583000Y-65893000D01*
X92583000Y-65913000D01*
X92603000Y-65913000D01*
X92603000Y-66167000D01*
X92583000Y-66167000D01*
X92583000Y-66187000D01*
X92329000Y-66187000D01*
X92329000Y-66167000D01*
X91217897Y-66167000D01*
X91126973Y-66379080D01*
X91276462Y-66740004D01*
X91634129Y-67138109D01*
X91971423Y-67299444D01*
X91904240Y-67312807D01*
X91459261Y-67610132D01*
X91161936Y-68055111D01*
X91057529Y-68580000D01*
X91161936Y-69104889D01*
X91459261Y-69549868D01*
X91904240Y-69847193D01*
X91971423Y-69860556D01*
X91634129Y-70021891D01*
X91276462Y-70419996D01*
X91126973Y-70780920D01*
X91217897Y-70993000D01*
X92329000Y-70993000D01*
X92329000Y-70973000D01*
X92583000Y-70973000D01*
X92583000Y-70993000D01*
X92603000Y-70993000D01*
X92603000Y-71247000D01*
X92583000Y-71247000D01*
X92583000Y-71267000D01*
X92329000Y-71267000D01*
X92329000Y-71247000D01*
X91217897Y-71247000D01*
X91126973Y-71459080D01*
X91276462Y-71820004D01*
X91634129Y-72218109D01*
X91971423Y-72379444D01*
X91904240Y-72392807D01*
X91459261Y-72690132D01*
X91161936Y-73135111D01*
X91057529Y-73660000D01*
X91161936Y-74184889D01*
X91459261Y-74629868D01*
X91904240Y-74927193D01*
X91918352Y-74930000D01*
X91904240Y-74932807D01*
X91459261Y-75230132D01*
X91161936Y-75675111D01*
X91057529Y-76200000D01*
X91161936Y-76724889D01*
X91459261Y-77169868D01*
X91904240Y-77467193D01*
X91918352Y-77470000D01*
X91904240Y-77472807D01*
X91459261Y-77770132D01*
X91161936Y-78215111D01*
X91057529Y-78740000D01*
X91161936Y-79264889D01*
X91459261Y-79709868D01*
X91904240Y-80007193D01*
X91918352Y-80010000D01*
X91904240Y-80012807D01*
X91459261Y-80310132D01*
X91161936Y-80755111D01*
X91057529Y-81280000D01*
X91161936Y-81804889D01*
X91459261Y-82249868D01*
X91904240Y-82547193D01*
X91971423Y-82560556D01*
X91634129Y-82721891D01*
X91276462Y-83119996D01*
X91126973Y-83480920D01*
X91217897Y-83693000D01*
X92329000Y-83693000D01*
X92329000Y-83673000D01*
X92583000Y-83673000D01*
X92583000Y-83693000D01*
X92603000Y-83693000D01*
X92603000Y-83947000D01*
X92583000Y-83947000D01*
X92583000Y-83967000D01*
X92329000Y-83967000D01*
X92329000Y-83947000D01*
X91217897Y-83947000D01*
X91126973Y-84159080D01*
X91276462Y-84520004D01*
X91634129Y-84918109D01*
X91971423Y-85079444D01*
X91904240Y-85092807D01*
X91459261Y-85390132D01*
X91161936Y-85835111D01*
X91057529Y-86360000D01*
X91161936Y-86884889D01*
X91459261Y-87329868D01*
X91904240Y-87627193D01*
X91918352Y-87630000D01*
X91904240Y-87632807D01*
X91459261Y-87930132D01*
X91161936Y-88375111D01*
X91057529Y-88900000D01*
X91161936Y-89424889D01*
X91459261Y-89869868D01*
X91904240Y-90167193D01*
X91971423Y-90180556D01*
X91634129Y-90341891D01*
X91276462Y-90739996D01*
X91126973Y-91100920D01*
X91217897Y-91313000D01*
X92329000Y-91313000D01*
X92329000Y-91293000D01*
X92583000Y-91293000D01*
X92583000Y-91313000D01*
X92603000Y-91313000D01*
X92603000Y-91567000D01*
X92583000Y-91567000D01*
X92583000Y-91587000D01*
X92329000Y-91587000D01*
X92329000Y-91567000D01*
X91217897Y-91567000D01*
X91126973Y-91779080D01*
X91276462Y-92140004D01*
X91634129Y-92538109D01*
X91971423Y-92699444D01*
X91904240Y-92712807D01*
X91459261Y-93010132D01*
X91161936Y-93455111D01*
X91057529Y-93980000D01*
X91161936Y-94504889D01*
X91459261Y-94949868D01*
X91904240Y-95247193D01*
X91918352Y-95250000D01*
X91904240Y-95252807D01*
X91459261Y-95550132D01*
X91161936Y-95995111D01*
X91057529Y-96520000D01*
X91161936Y-97044889D01*
X91459261Y-97489868D01*
X91904240Y-97787193D01*
X91918352Y-97790000D01*
X91904240Y-97792807D01*
X91459261Y-98090132D01*
X91161936Y-98535111D01*
X91057529Y-99060000D01*
X91161936Y-99584889D01*
X91459261Y-100029868D01*
X91904240Y-100327193D01*
X91971423Y-100340556D01*
X91634129Y-100501891D01*
X91276462Y-100899996D01*
X91126973Y-101260920D01*
X91217897Y-101473000D01*
X92329000Y-101473000D01*
X92329000Y-101453000D01*
X92583000Y-101453000D01*
X92583000Y-101473000D01*
X92603000Y-101473000D01*
X92603000Y-101727000D01*
X92583000Y-101727000D01*
X92583000Y-101747000D01*
X92329000Y-101747000D01*
X92329000Y-101727000D01*
X91217897Y-101727000D01*
X91126973Y-101939080D01*
X91276462Y-102300004D01*
X91634129Y-102698109D01*
X91971423Y-102859444D01*
X91904240Y-102872807D01*
X91459261Y-103170132D01*
X91161936Y-103615111D01*
X91057529Y-104140000D01*
X91161936Y-104664889D01*
X91459261Y-105109868D01*
X91904240Y-105407193D01*
X91918352Y-105410000D01*
X91904240Y-105412807D01*
X91459261Y-105710132D01*
X91161936Y-106155111D01*
X91057529Y-106680000D01*
X91161936Y-107204889D01*
X91459261Y-107649868D01*
X91904240Y-107947193D01*
X92429129Y-108051600D01*
X92482871Y-108051600D01*
X93007760Y-107947193D01*
X93452739Y-107649868D01*
X93614448Y-107407853D01*
X93614448Y-107543600D01*
X93649870Y-107731853D01*
X93761128Y-107904753D01*
X93930888Y-108020745D01*
X94132400Y-108061552D01*
X95859600Y-108061552D01*
X96047853Y-108026130D01*
X96220753Y-107914872D01*
X96336745Y-107745112D01*
X96377552Y-107543600D01*
X96377552Y-107254787D01*
X103744818Y-107254787D01*
X103850396Y-107485874D01*
X104413908Y-107691092D01*
X105013059Y-107665041D01*
X105445604Y-107485874D01*
X105551182Y-107254787D01*
X104648000Y-106351605D01*
X103744818Y-107254787D01*
X96377552Y-107254787D01*
X96377552Y-105937908D01*
X103128908Y-105937908D01*
X103154959Y-106537059D01*
X103334126Y-106969604D01*
X103565213Y-107075182D01*
X104468395Y-106172000D01*
X104827605Y-106172000D01*
X105730787Y-107075182D01*
X105961874Y-106969604D01*
X106143620Y-106470543D01*
X113300249Y-106470543D01*
X113529267Y-107024809D01*
X113952961Y-107449242D01*
X114506826Y-107679227D01*
X115106543Y-107679751D01*
X115660809Y-107450733D01*
X116085242Y-107027039D01*
X116306863Y-106493315D01*
X117156027Y-106493315D01*
X117161522Y-106536300D01*
X117393144Y-106972140D01*
X117773923Y-107286166D01*
X118245890Y-107430570D01*
X118745000Y-107430570D01*
X118745000Y-106299000D01*
X118999000Y-106299000D01*
X118999000Y-107430570D01*
X119498110Y-107430570D01*
X119970077Y-107286166D01*
X120350856Y-106972140D01*
X120582478Y-106536300D01*
X120587973Y-106493315D01*
X120495531Y-106299000D01*
X118999000Y-106299000D01*
X118745000Y-106299000D01*
X117248469Y-106299000D01*
X117156027Y-106493315D01*
X116306863Y-106493315D01*
X116315227Y-106473174D01*
X116315751Y-105873457D01*
X116306342Y-105850685D01*
X117156027Y-105850685D01*
X117248469Y-106045000D01*
X118745000Y-106045000D01*
X118745000Y-104913430D01*
X118999000Y-104913430D01*
X118999000Y-106045000D01*
X120495531Y-106045000D01*
X120587973Y-105850685D01*
X120582478Y-105807700D01*
X120350856Y-105371860D01*
X119970077Y-105057834D01*
X119498110Y-104913430D01*
X118999000Y-104913430D01*
X118745000Y-104913430D01*
X118245890Y-104913430D01*
X117773923Y-105057834D01*
X117393144Y-105371860D01*
X117161522Y-105807700D01*
X117156027Y-105850685D01*
X116306342Y-105850685D01*
X116086733Y-105319191D01*
X115663039Y-104894758D01*
X115109174Y-104664773D01*
X114509457Y-104664249D01*
X113955191Y-104893267D01*
X113530758Y-105316961D01*
X113300773Y-105870826D01*
X113300249Y-106470543D01*
X106143620Y-106470543D01*
X106167092Y-106406092D01*
X106141041Y-105806941D01*
X105961874Y-105374396D01*
X105730787Y-105268818D01*
X104827605Y-106172000D01*
X104468395Y-106172000D01*
X103565213Y-105268818D01*
X103334126Y-105374396D01*
X103128908Y-105937908D01*
X96377552Y-105937908D01*
X96377552Y-105816400D01*
X96342130Y-105628147D01*
X96230872Y-105455247D01*
X96061112Y-105339255D01*
X95859600Y-105298448D01*
X95710509Y-105298448D01*
X95992739Y-105109868D01*
X96006540Y-105089213D01*
X103744818Y-105089213D01*
X104648000Y-105992395D01*
X105551182Y-105089213D01*
X105445604Y-104858126D01*
X104882092Y-104652908D01*
X104282941Y-104678959D01*
X103850396Y-104858126D01*
X103744818Y-105089213D01*
X96006540Y-105089213D01*
X96290064Y-104664889D01*
X96394471Y-104140000D01*
X96290064Y-103615111D01*
X95992739Y-103170132D01*
X95547760Y-102872807D01*
X95533648Y-102870000D01*
X95547760Y-102867193D01*
X95992739Y-102569868D01*
X96290064Y-102124889D01*
X96394471Y-101600000D01*
X96352808Y-101390543D01*
X103140249Y-101390543D01*
X103369267Y-101944809D01*
X103792961Y-102369242D01*
X104346826Y-102599227D01*
X104946543Y-102599751D01*
X105500809Y-102370733D01*
X105925242Y-101947039D01*
X106155227Y-101393174D01*
X106155229Y-101390543D01*
X113300249Y-101390543D01*
X113529267Y-101944809D01*
X113952961Y-102369242D01*
X114506826Y-102599227D01*
X115106543Y-102599751D01*
X115660809Y-102370733D01*
X116085242Y-101947039D01*
X116315227Y-101393174D01*
X116315490Y-101092000D01*
X117079885Y-101092000D01*
X117175688Y-101573634D01*
X117448512Y-101981943D01*
X117856821Y-102254767D01*
X118338455Y-102350570D01*
X119405545Y-102350570D01*
X119887179Y-102254767D01*
X120295488Y-101981943D01*
X120568312Y-101573634D01*
X120664115Y-101092000D01*
X120568312Y-100610366D01*
X120295488Y-100202057D01*
X119887179Y-99929233D01*
X119405545Y-99833430D01*
X118338455Y-99833430D01*
X117856821Y-99929233D01*
X117448512Y-100202057D01*
X117175688Y-100610366D01*
X117079885Y-101092000D01*
X116315490Y-101092000D01*
X116315751Y-100793457D01*
X116086733Y-100239191D01*
X115663039Y-99814758D01*
X115109174Y-99584773D01*
X114509457Y-99584249D01*
X113955191Y-99813267D01*
X113530758Y-100236961D01*
X113300773Y-100790826D01*
X113300249Y-101390543D01*
X106155229Y-101390543D01*
X106155751Y-100793457D01*
X105926733Y-100239191D01*
X105503039Y-99814758D01*
X104949174Y-99584773D01*
X104349457Y-99584249D01*
X103795191Y-99813267D01*
X103370758Y-100236961D01*
X103140773Y-100790826D01*
X103140249Y-101390543D01*
X96352808Y-101390543D01*
X96290064Y-101075111D01*
X95992739Y-100630132D01*
X95547760Y-100332807D01*
X95533648Y-100330000D01*
X95547760Y-100327193D01*
X95992739Y-100029868D01*
X96290064Y-99584889D01*
X96394471Y-99060000D01*
X96290064Y-98535111D01*
X95992739Y-98090132D01*
X95547760Y-97792807D01*
X95480577Y-97779444D01*
X95817871Y-97618109D01*
X96175538Y-97220004D01*
X96325027Y-96859080D01*
X96234103Y-96647000D01*
X95123000Y-96647000D01*
X95123000Y-96667000D01*
X94869000Y-96667000D01*
X94869000Y-96647000D01*
X94849000Y-96647000D01*
X94849000Y-96393000D01*
X94869000Y-96393000D01*
X94869000Y-96373000D01*
X95123000Y-96373000D01*
X95123000Y-96393000D01*
X96234103Y-96393000D01*
X96325027Y-96180920D01*
X96175538Y-95819996D01*
X95951643Y-95570787D01*
X103744818Y-95570787D01*
X103850396Y-95801874D01*
X104413908Y-96007092D01*
X105013059Y-95981041D01*
X105445604Y-95801874D01*
X105551182Y-95570787D01*
X104648000Y-94667605D01*
X103744818Y-95570787D01*
X95951643Y-95570787D01*
X95817871Y-95421891D01*
X95480577Y-95260556D01*
X95547760Y-95247193D01*
X95992739Y-94949868D01*
X96290064Y-94504889D01*
X96339987Y-94253908D01*
X103128908Y-94253908D01*
X103154959Y-94853059D01*
X103334126Y-95285604D01*
X103565213Y-95391182D01*
X104468395Y-94488000D01*
X104827605Y-94488000D01*
X105730787Y-95391182D01*
X105961874Y-95285604D01*
X106143620Y-94786543D01*
X113300249Y-94786543D01*
X113529267Y-95340809D01*
X113952961Y-95765242D01*
X114506826Y-95995227D01*
X115106543Y-95995751D01*
X115660809Y-95766733D01*
X116085242Y-95343039D01*
X116306863Y-94809315D01*
X117156027Y-94809315D01*
X117161522Y-94852300D01*
X117393144Y-95288140D01*
X117773923Y-95602166D01*
X118245890Y-95746570D01*
X118745000Y-95746570D01*
X118745000Y-94615000D01*
X118999000Y-94615000D01*
X118999000Y-95746570D01*
X119498110Y-95746570D01*
X119970077Y-95602166D01*
X120350856Y-95288140D01*
X120582478Y-94852300D01*
X120587973Y-94809315D01*
X120495531Y-94615000D01*
X118999000Y-94615000D01*
X118745000Y-94615000D01*
X117248469Y-94615000D01*
X117156027Y-94809315D01*
X116306863Y-94809315D01*
X116315227Y-94789174D01*
X116315751Y-94189457D01*
X116306342Y-94166685D01*
X117156027Y-94166685D01*
X117248469Y-94361000D01*
X118745000Y-94361000D01*
X118745000Y-93229430D01*
X118999000Y-93229430D01*
X118999000Y-94361000D01*
X120495531Y-94361000D01*
X120587973Y-94166685D01*
X120582478Y-94123700D01*
X120350856Y-93687860D01*
X119970077Y-93373834D01*
X119498110Y-93229430D01*
X118999000Y-93229430D01*
X118745000Y-93229430D01*
X118245890Y-93229430D01*
X117773923Y-93373834D01*
X117393144Y-93687860D01*
X117161522Y-94123700D01*
X117156027Y-94166685D01*
X116306342Y-94166685D01*
X116086733Y-93635191D01*
X115663039Y-93210758D01*
X115109174Y-92980773D01*
X114509457Y-92980249D01*
X113955191Y-93209267D01*
X113530758Y-93632961D01*
X113300773Y-94186826D01*
X113300249Y-94786543D01*
X106143620Y-94786543D01*
X106167092Y-94722092D01*
X106141041Y-94122941D01*
X105961874Y-93690396D01*
X105730787Y-93584818D01*
X104827605Y-94488000D01*
X104468395Y-94488000D01*
X103565213Y-93584818D01*
X103334126Y-93690396D01*
X103128908Y-94253908D01*
X96339987Y-94253908D01*
X96394471Y-93980000D01*
X96290064Y-93455111D01*
X96256724Y-93405213D01*
X103744818Y-93405213D01*
X104648000Y-94308395D01*
X105551182Y-93405213D01*
X105445604Y-93174126D01*
X104882092Y-92968908D01*
X104282941Y-92994959D01*
X103850396Y-93174126D01*
X103744818Y-93405213D01*
X96256724Y-93405213D01*
X95992739Y-93010132D01*
X95547760Y-92712807D01*
X95533648Y-92710000D01*
X95547760Y-92707193D01*
X95992739Y-92409868D01*
X96290064Y-91964889D01*
X96394471Y-91440000D01*
X96290064Y-90915111D01*
X95992739Y-90470132D01*
X95547760Y-90172807D01*
X95533648Y-90170000D01*
X95547760Y-90167193D01*
X95992739Y-89869868D01*
X96101869Y-89706543D01*
X103140249Y-89706543D01*
X103369267Y-90260809D01*
X103792961Y-90685242D01*
X104346826Y-90915227D01*
X104946543Y-90915751D01*
X105500809Y-90686733D01*
X105925242Y-90263039D01*
X106155227Y-89709174D01*
X106155229Y-89706543D01*
X113300249Y-89706543D01*
X113529267Y-90260809D01*
X113952961Y-90685242D01*
X114506826Y-90915227D01*
X115106543Y-90915751D01*
X115660809Y-90686733D01*
X116085242Y-90263039D01*
X116315227Y-89709174D01*
X116315490Y-89408000D01*
X117079885Y-89408000D01*
X117175688Y-89889634D01*
X117448512Y-90297943D01*
X117856821Y-90570767D01*
X118338455Y-90666570D01*
X119405545Y-90666570D01*
X119887179Y-90570767D01*
X120295488Y-90297943D01*
X120568312Y-89889634D01*
X120664115Y-89408000D01*
X120568312Y-88926366D01*
X120295488Y-88518057D01*
X119887179Y-88245233D01*
X119405545Y-88149430D01*
X118338455Y-88149430D01*
X117856821Y-88245233D01*
X117448512Y-88518057D01*
X117175688Y-88926366D01*
X117079885Y-89408000D01*
X116315490Y-89408000D01*
X116315751Y-89109457D01*
X116086733Y-88555191D01*
X115663039Y-88130758D01*
X115109174Y-87900773D01*
X114509457Y-87900249D01*
X113955191Y-88129267D01*
X113530758Y-88552961D01*
X113300773Y-89106826D01*
X113300249Y-89706543D01*
X106155229Y-89706543D01*
X106155751Y-89109457D01*
X105926733Y-88555191D01*
X105503039Y-88130758D01*
X104949174Y-87900773D01*
X104349457Y-87900249D01*
X103795191Y-88129267D01*
X103370758Y-88552961D01*
X103140773Y-89106826D01*
X103140249Y-89706543D01*
X96101869Y-89706543D01*
X96290064Y-89424889D01*
X96394471Y-88900000D01*
X96290064Y-88375111D01*
X95992739Y-87930132D01*
X95547760Y-87632807D01*
X95533648Y-87630000D01*
X95547760Y-87627193D01*
X95992739Y-87329868D01*
X96290064Y-86884889D01*
X96394471Y-86360000D01*
X96290064Y-85835111D01*
X95992739Y-85390132D01*
X95547760Y-85092807D01*
X95533648Y-85090000D01*
X95547760Y-85087193D01*
X95992739Y-84789868D01*
X96290064Y-84344889D01*
X96381186Y-83886787D01*
X103744818Y-83886787D01*
X103850396Y-84117874D01*
X104413908Y-84323092D01*
X105013059Y-84297041D01*
X105445604Y-84117874D01*
X105551182Y-83886787D01*
X104648000Y-82983605D01*
X103744818Y-83886787D01*
X96381186Y-83886787D01*
X96394471Y-83820000D01*
X96290064Y-83295111D01*
X95992739Y-82850132D01*
X95573354Y-82569908D01*
X103128908Y-82569908D01*
X103154959Y-83169059D01*
X103334126Y-83601604D01*
X103565213Y-83707182D01*
X104468395Y-82804000D01*
X104827605Y-82804000D01*
X105730787Y-83707182D01*
X105961874Y-83601604D01*
X106143620Y-83102543D01*
X113300249Y-83102543D01*
X113529267Y-83656809D01*
X113952961Y-84081242D01*
X114506826Y-84311227D01*
X115106543Y-84311751D01*
X115660809Y-84082733D01*
X116085242Y-83659039D01*
X116306863Y-83125315D01*
X117156027Y-83125315D01*
X117161522Y-83168300D01*
X117393144Y-83604140D01*
X117773923Y-83918166D01*
X118245890Y-84062570D01*
X118745000Y-84062570D01*
X118745000Y-82931000D01*
X118999000Y-82931000D01*
X118999000Y-84062570D01*
X119498110Y-84062570D01*
X119970077Y-83918166D01*
X120350856Y-83604140D01*
X120582478Y-83168300D01*
X120587973Y-83125315D01*
X120495531Y-82931000D01*
X118999000Y-82931000D01*
X118745000Y-82931000D01*
X117248469Y-82931000D01*
X117156027Y-83125315D01*
X116306863Y-83125315D01*
X116315227Y-83105174D01*
X116315751Y-82505457D01*
X116306342Y-82482685D01*
X117156027Y-82482685D01*
X117248469Y-82677000D01*
X118745000Y-82677000D01*
X118745000Y-81545430D01*
X118999000Y-81545430D01*
X118999000Y-82677000D01*
X120495531Y-82677000D01*
X120587973Y-82482685D01*
X120582478Y-82439700D01*
X120350856Y-82003860D01*
X119970077Y-81689834D01*
X119498110Y-81545430D01*
X118999000Y-81545430D01*
X118745000Y-81545430D01*
X118245890Y-81545430D01*
X117773923Y-81689834D01*
X117393144Y-82003860D01*
X117161522Y-82439700D01*
X117156027Y-82482685D01*
X116306342Y-82482685D01*
X116086733Y-81951191D01*
X115663039Y-81526758D01*
X115109174Y-81296773D01*
X114509457Y-81296249D01*
X113955191Y-81525267D01*
X113530758Y-81948961D01*
X113300773Y-82502826D01*
X113300249Y-83102543D01*
X106143620Y-83102543D01*
X106167092Y-83038092D01*
X106141041Y-82438941D01*
X105961874Y-82006396D01*
X105730787Y-81900818D01*
X104827605Y-82804000D01*
X104468395Y-82804000D01*
X103565213Y-81900818D01*
X103334126Y-82006396D01*
X103128908Y-82569908D01*
X95573354Y-82569908D01*
X95547760Y-82552807D01*
X95533648Y-82550000D01*
X95547760Y-82547193D01*
X95992739Y-82249868D01*
X96290064Y-81804889D01*
X96306708Y-81721213D01*
X103744818Y-81721213D01*
X104648000Y-82624395D01*
X105551182Y-81721213D01*
X105445604Y-81490126D01*
X104882092Y-81284908D01*
X104282941Y-81310959D01*
X103850396Y-81490126D01*
X103744818Y-81721213D01*
X96306708Y-81721213D01*
X96394471Y-81280000D01*
X96290064Y-80755111D01*
X95992739Y-80310132D01*
X95547760Y-80012807D01*
X95533648Y-80010000D01*
X95547760Y-80007193D01*
X95992739Y-79709868D01*
X96290064Y-79264889D01*
X96394471Y-78740000D01*
X96290064Y-78215111D01*
X96161395Y-78022543D01*
X103140249Y-78022543D01*
X103369267Y-78576809D01*
X103792961Y-79001242D01*
X104346826Y-79231227D01*
X104946543Y-79231751D01*
X105500809Y-79002733D01*
X105925242Y-78579039D01*
X106155227Y-78025174D01*
X106155229Y-78022543D01*
X113300249Y-78022543D01*
X113529267Y-78576809D01*
X113952961Y-79001242D01*
X114506826Y-79231227D01*
X115106543Y-79231751D01*
X115660809Y-79002733D01*
X116085242Y-78579039D01*
X116315227Y-78025174D01*
X116315751Y-77425457D01*
X116086733Y-76871191D01*
X115663039Y-76446758D01*
X115109174Y-76216773D01*
X114509457Y-76216249D01*
X113955191Y-76445267D01*
X113530758Y-76868961D01*
X113300773Y-77422826D01*
X113300249Y-78022543D01*
X106155229Y-78022543D01*
X106155751Y-77425457D01*
X105926733Y-76871191D01*
X105503039Y-76446758D01*
X104949174Y-76216773D01*
X104349457Y-76216249D01*
X103795191Y-76445267D01*
X103370758Y-76868961D01*
X103140773Y-77422826D01*
X103140249Y-78022543D01*
X96161395Y-78022543D01*
X95992739Y-77770132D01*
X95547760Y-77472807D01*
X95480577Y-77459444D01*
X95817871Y-77298109D01*
X96175538Y-76900004D01*
X96325027Y-76539080D01*
X96234103Y-76327000D01*
X95123000Y-76327000D01*
X95123000Y-76347000D01*
X94869000Y-76347000D01*
X94869000Y-76327000D01*
X94849000Y-76327000D01*
X94849000Y-76073000D01*
X94869000Y-76073000D01*
X94869000Y-76053000D01*
X95123000Y-76053000D01*
X95123000Y-76073000D01*
X96234103Y-76073000D01*
X96325027Y-75860920D01*
X96175538Y-75499996D01*
X95817871Y-75101891D01*
X95480577Y-74940556D01*
X95547760Y-74927193D01*
X95992739Y-74629868D01*
X96290064Y-74184889D01*
X96394471Y-73660000D01*
X96290064Y-73135111D01*
X95992739Y-72690132D01*
X95547760Y-72392807D01*
X95533648Y-72390000D01*
X95547760Y-72387193D01*
X95992739Y-72089868D01*
X96290064Y-71644889D01*
X96394471Y-71120000D01*
X96374262Y-71018400D01*
X103278940Y-71018400D01*
X103278940Y-72615507D01*
X103356278Y-72802218D01*
X103499181Y-72945121D01*
X103685892Y-73022460D01*
X105283000Y-73022460D01*
X105410000Y-72895460D01*
X105410000Y-70891400D01*
X105664000Y-70891400D01*
X105664000Y-72895460D01*
X105791000Y-73022460D01*
X107388108Y-73022460D01*
X107574819Y-72945121D01*
X107717722Y-72802218D01*
X107795060Y-72615507D01*
X107795060Y-72014080D01*
X107967988Y-72014080D01*
X107967988Y-75514200D01*
X108003410Y-75702453D01*
X108114668Y-75875353D01*
X108284428Y-75991345D01*
X108485940Y-76032152D01*
X111986060Y-76032152D01*
X112174313Y-75996730D01*
X112347213Y-75885472D01*
X112463205Y-75715712D01*
X112504012Y-75514200D01*
X112504012Y-72014080D01*
X112468590Y-71825827D01*
X112357332Y-71652927D01*
X112187572Y-71536935D01*
X111986060Y-71496128D01*
X108485940Y-71496128D01*
X108297687Y-71531550D01*
X108124787Y-71642808D01*
X108008795Y-71812568D01*
X107967988Y-72014080D01*
X107795060Y-72014080D01*
X107795060Y-71018400D01*
X107668060Y-70891400D01*
X105664000Y-70891400D01*
X105410000Y-70891400D01*
X103405940Y-70891400D01*
X103278940Y-71018400D01*
X96374262Y-71018400D01*
X96290064Y-70595111D01*
X95992739Y-70150132D01*
X95547760Y-69852807D01*
X95533648Y-69850000D01*
X95547760Y-69847193D01*
X95992739Y-69549868D01*
X96290064Y-69104889D01*
X96328174Y-68913293D01*
X103278940Y-68913293D01*
X103278940Y-70510400D01*
X103405940Y-70637400D01*
X105410000Y-70637400D01*
X105410000Y-68633340D01*
X105664000Y-68633340D01*
X105664000Y-70637400D01*
X107668060Y-70637400D01*
X107795060Y-70510400D01*
X107795060Y-68913293D01*
X107717722Y-68726582D01*
X107574819Y-68583679D01*
X107388108Y-68506340D01*
X105791000Y-68506340D01*
X105664000Y-68633340D01*
X105410000Y-68633340D01*
X105283000Y-68506340D01*
X103685892Y-68506340D01*
X103499181Y-68583679D01*
X103356278Y-68726582D01*
X103278940Y-68913293D01*
X96328174Y-68913293D01*
X96394471Y-68580000D01*
X96290064Y-68055111D01*
X96265709Y-68018660D01*
X107977940Y-68018660D01*
X107977940Y-69615767D01*
X108055278Y-69802478D01*
X108198181Y-69945381D01*
X108384892Y-70022720D01*
X109982000Y-70022720D01*
X110109000Y-69895720D01*
X110109000Y-67891660D01*
X110363000Y-67891660D01*
X110363000Y-69895720D01*
X110490000Y-70022720D01*
X112087108Y-70022720D01*
X112273819Y-69945381D01*
X112416722Y-69802478D01*
X112494060Y-69615767D01*
X112494060Y-68018660D01*
X112367060Y-67891660D01*
X110363000Y-67891660D01*
X110109000Y-67891660D01*
X108104940Y-67891660D01*
X107977940Y-68018660D01*
X96265709Y-68018660D01*
X95992739Y-67610132D01*
X95547760Y-67312807D01*
X95533648Y-67310000D01*
X95547760Y-67307193D01*
X95992739Y-67009868D01*
X96290064Y-66564889D01*
X96394471Y-66040000D01*
X96369320Y-65913553D01*
X107977940Y-65913553D01*
X107977940Y-67510660D01*
X108104940Y-67637660D01*
X110109000Y-67637660D01*
X110109000Y-65633600D01*
X110363000Y-65633600D01*
X110363000Y-67637660D01*
X112367060Y-67637660D01*
X112494060Y-67510660D01*
X112494060Y-65913553D01*
X112416722Y-65726842D01*
X112273819Y-65583939D01*
X112087108Y-65506600D01*
X110490000Y-65506600D01*
X110363000Y-65633600D01*
X110109000Y-65633600D01*
X109982000Y-65506600D01*
X108384892Y-65506600D01*
X108198181Y-65583939D01*
X108055278Y-65726842D01*
X107977940Y-65913553D01*
X96369320Y-65913553D01*
X96290064Y-65515111D01*
X95992739Y-65070132D01*
X95547760Y-64772807D01*
X95533648Y-64770000D01*
X95547760Y-64767193D01*
X95992739Y-64469868D01*
X96290064Y-64024889D01*
X96394471Y-63500000D01*
X96290064Y-62975111D01*
X95992739Y-62530132D01*
X95547760Y-62232807D01*
X95022871Y-62128400D01*
X94969129Y-62128400D01*
X94444240Y-62232807D01*
X93999261Y-62530132D01*
X93726000Y-62939097D01*
X93452739Y-62530132D01*
X93007760Y-62232807D01*
X92482871Y-62128400D01*
X92429129Y-62128400D01*
X91904240Y-62232807D01*
X91459261Y-62530132D01*
X91161936Y-62975111D01*
X91057529Y-63500000D01*
X90583000Y-63500000D01*
X90583000Y-62057422D01*
X90701415Y-61462107D01*
X91006106Y-61006106D01*
X91462107Y-60701415D01*
X92057421Y-60583000D01*
X137942578Y-60583000D01*
X138537893Y-60701415D01*
M02*
