G04 #@! TF.FileFunction,Soldermask,Bot*
%FSLAX46Y46*%
G04 Gerber Fmt 4.6, Leading zero omitted, Abs format (unit mm)*
G04 Created by KiCad (PCBNEW (2015-08-15 BZR 6094)-product) date Mon 17 Aug 2015 18:15:34 BST*
%MOMM*%
G01*
G04 APERTURE LIST*
%ADD10C,0.100000*%
%ADD11R,3.900120X3.900120*%
%ADD12R,2.127200X2.432000*%
%ADD13O,2.127200X2.432000*%
%ADD14C,2.398980*%
%ADD15O,2.899360X1.901140*%
%ADD16C,4.199840*%
%ADD17R,2.127200X2.127200*%
%ADD18O,2.127200X2.127200*%
G04 APERTURE END LIST*
D10*
D11*
X110236000Y-73764140D03*
X110236000Y-67764660D03*
X105537000Y-70764400D03*
D12*
X128524000Y-71120000D03*
D13*
X131064000Y-71120000D03*
X133604000Y-71120000D03*
X136144000Y-71120000D03*
D14*
X114808000Y-77724000D03*
X104648000Y-77724000D03*
X114808000Y-89408000D03*
X104648000Y-89408000D03*
X114808000Y-101092000D03*
X104648000Y-101092000D03*
X114808000Y-82804000D03*
X104648000Y-82804000D03*
X114808000Y-94488000D03*
X104648000Y-94488000D03*
X114808000Y-106172000D03*
X104648000Y-106172000D03*
D15*
X118872000Y-80264000D03*
X118872000Y-77724000D03*
X118872000Y-82804000D03*
D16*
X135636000Y-80264000D03*
D15*
X118872000Y-91948000D03*
X118872000Y-89408000D03*
X118872000Y-94488000D03*
D16*
X135636000Y-91948000D03*
D15*
X118872000Y-103632000D03*
X118872000Y-101092000D03*
X118872000Y-106172000D03*
D16*
X135636000Y-103632000D03*
D17*
X94996000Y-106680000D03*
D18*
X92456000Y-106680000D03*
X94996000Y-104140000D03*
X92456000Y-104140000D03*
X94996000Y-101600000D03*
X92456000Y-101600000D03*
X94996000Y-99060000D03*
X92456000Y-99060000D03*
X94996000Y-96520000D03*
X92456000Y-96520000D03*
X94996000Y-93980000D03*
X92456000Y-93980000D03*
X94996000Y-91440000D03*
X92456000Y-91440000D03*
X94996000Y-88900000D03*
X92456000Y-88900000D03*
X94996000Y-86360000D03*
X92456000Y-86360000D03*
X94996000Y-83820000D03*
X92456000Y-83820000D03*
X94996000Y-81280000D03*
X92456000Y-81280000D03*
X94996000Y-78740000D03*
X92456000Y-78740000D03*
X94996000Y-76200000D03*
X92456000Y-76200000D03*
X94996000Y-73660000D03*
X92456000Y-73660000D03*
X94996000Y-71120000D03*
X92456000Y-71120000D03*
X94996000Y-68580000D03*
X92456000Y-68580000D03*
X94996000Y-66040000D03*
X92456000Y-66040000D03*
X94996000Y-63500000D03*
X92456000Y-63500000D03*
M02*
