G04 #@! TF.FileFunction,Legend,Bot*
%FSLAX46Y46*%
G04 Gerber Fmt 4.6, Leading zero omitted, Abs format (unit mm)*
G04 Created by KiCad (PCBNEW (2015-08-15 BZR 6094)-product) date Mon 17 Aug 2015 18:15:34 BST*
%MOMM*%
G01*
G04 APERTURE LIST*
%ADD10C,0.100000*%
%ADD11C,0.150000*%
G04 APERTURE END LIST*
D10*
D11*
X125428571Y-85305143D02*
X123928571Y-85305143D01*
X123928571Y-85876571D01*
X124000000Y-86019429D01*
X124071429Y-86090857D01*
X124214286Y-86162286D01*
X124428571Y-86162286D01*
X124571429Y-86090857D01*
X124642857Y-86019429D01*
X124714286Y-85876571D01*
X124714286Y-85305143D01*
X125428571Y-86805143D02*
X124428571Y-86805143D01*
X123928571Y-86805143D02*
X124000000Y-86733714D01*
X124071429Y-86805143D01*
X124000000Y-86876571D01*
X123928571Y-86805143D01*
X124071429Y-86805143D01*
X124857143Y-87519429D02*
X124857143Y-88662286D01*
X125428571Y-90090858D02*
X125428571Y-89376572D01*
X123928571Y-89376572D01*
X124642857Y-90590858D02*
X124642857Y-91090858D01*
X125428571Y-91305144D02*
X125428571Y-90590858D01*
X123928571Y-90590858D01*
X123928571Y-91305144D01*
X125428571Y-91948001D02*
X123928571Y-91948001D01*
X123928571Y-92305144D01*
X124000000Y-92519429D01*
X124142857Y-92662287D01*
X124285714Y-92733715D01*
X124571429Y-92805144D01*
X124785714Y-92805144D01*
X125071429Y-92733715D01*
X125214286Y-92662287D01*
X125357143Y-92519429D01*
X125428571Y-92305144D01*
X125428571Y-91948001D01*
X124428571Y-94448001D02*
X125428571Y-94805144D01*
X124428571Y-95162286D01*
X123928571Y-96019429D02*
X123928571Y-96162286D01*
X124000000Y-96305143D01*
X124071429Y-96376572D01*
X124214286Y-96448001D01*
X124500000Y-96519429D01*
X124857143Y-96519429D01*
X125142857Y-96448001D01*
X125285714Y-96376572D01*
X125357143Y-96305143D01*
X125428571Y-96162286D01*
X125428571Y-96019429D01*
X125357143Y-95876572D01*
X125285714Y-95805143D01*
X125142857Y-95733715D01*
X124857143Y-95662286D01*
X124500000Y-95662286D01*
X124214286Y-95733715D01*
X124071429Y-95805143D01*
X124000000Y-95876572D01*
X123928571Y-96019429D01*
X125285714Y-97162286D02*
X125357143Y-97233714D01*
X125428571Y-97162286D01*
X125357143Y-97090857D01*
X125285714Y-97162286D01*
X125428571Y-97162286D01*
X125428571Y-98662286D02*
X125428571Y-97805143D01*
X125428571Y-98233715D02*
X123928571Y-98233715D01*
X124142857Y-98090858D01*
X124285714Y-97948000D01*
X124357143Y-97805143D01*
X127678571Y-87233715D02*
X127678571Y-86376572D01*
X127678571Y-86805144D02*
X126178571Y-86805144D01*
X126392857Y-86662287D01*
X126535714Y-86519429D01*
X126607143Y-86376572D01*
X126178571Y-88590858D02*
X126178571Y-87876572D01*
X126892857Y-87805143D01*
X126821429Y-87876572D01*
X126750000Y-88019429D01*
X126750000Y-88376572D01*
X126821429Y-88519429D01*
X126892857Y-88590858D01*
X127035714Y-88662286D01*
X127392857Y-88662286D01*
X127535714Y-88590858D01*
X127607143Y-88519429D01*
X127678571Y-88376572D01*
X127678571Y-88019429D01*
X127607143Y-87876572D01*
X127535714Y-87805143D01*
X126107143Y-90376571D02*
X128035714Y-89090857D01*
X126178571Y-91162286D02*
X126178571Y-91305143D01*
X126250000Y-91448000D01*
X126321429Y-91519429D01*
X126464286Y-91590858D01*
X126750000Y-91662286D01*
X127107143Y-91662286D01*
X127392857Y-91590858D01*
X127535714Y-91519429D01*
X127607143Y-91448000D01*
X127678571Y-91305143D01*
X127678571Y-91162286D01*
X127607143Y-91019429D01*
X127535714Y-90948000D01*
X127392857Y-90876572D01*
X127107143Y-90805143D01*
X126750000Y-90805143D01*
X126464286Y-90876572D01*
X126321429Y-90948000D01*
X126250000Y-91019429D01*
X126178571Y-91162286D01*
X126821429Y-92519429D02*
X126750000Y-92376571D01*
X126678571Y-92305143D01*
X126535714Y-92233714D01*
X126464286Y-92233714D01*
X126321429Y-92305143D01*
X126250000Y-92376571D01*
X126178571Y-92519429D01*
X126178571Y-92805143D01*
X126250000Y-92948000D01*
X126321429Y-93019429D01*
X126464286Y-93090857D01*
X126535714Y-93090857D01*
X126678571Y-93019429D01*
X126750000Y-92948000D01*
X126821429Y-92805143D01*
X126821429Y-92519429D01*
X126892857Y-92376571D01*
X126964286Y-92305143D01*
X127107143Y-92233714D01*
X127392857Y-92233714D01*
X127535714Y-92305143D01*
X127607143Y-92376571D01*
X127678571Y-92519429D01*
X127678571Y-92805143D01*
X127607143Y-92948000D01*
X127535714Y-93019429D01*
X127392857Y-93090857D01*
X127107143Y-93090857D01*
X126964286Y-93019429D01*
X126892857Y-92948000D01*
X126821429Y-92805143D01*
X126107143Y-94805142D02*
X128035714Y-93519428D01*
X127678571Y-96090857D02*
X127678571Y-95233714D01*
X127678571Y-95662286D02*
X126178571Y-95662286D01*
X126392857Y-95519429D01*
X126535714Y-95376571D01*
X126607143Y-95233714D01*
X126178571Y-97448000D02*
X126178571Y-96733714D01*
X126892857Y-96662285D01*
X126821429Y-96733714D01*
X126750000Y-96876571D01*
X126750000Y-97233714D01*
X126821429Y-97376571D01*
X126892857Y-97448000D01*
X127035714Y-97519428D01*
X127392857Y-97519428D01*
X127535714Y-97448000D01*
X127607143Y-97376571D01*
X127678571Y-97233714D01*
X127678571Y-96876571D01*
X127607143Y-96733714D01*
X127535714Y-96662285D01*
X129928571Y-75376571D02*
X128428571Y-75376571D01*
X129142857Y-75376571D02*
X129142857Y-76233714D01*
X129928571Y-76233714D02*
X128428571Y-76233714D01*
X129928571Y-77590857D02*
X129142857Y-77590857D01*
X129000000Y-77519428D01*
X128928571Y-77376571D01*
X128928571Y-77090857D01*
X129000000Y-76948000D01*
X129857143Y-77590857D02*
X129928571Y-77448000D01*
X129928571Y-77090857D01*
X129857143Y-76948000D01*
X129714286Y-76876571D01*
X129571429Y-76876571D01*
X129428571Y-76948000D01*
X129357143Y-77090857D01*
X129357143Y-77448000D01*
X129285714Y-77590857D01*
X129928571Y-78305143D02*
X128928571Y-78305143D01*
X129214286Y-78305143D02*
X129071429Y-78376571D01*
X129000000Y-78448000D01*
X128928571Y-78590857D01*
X128928571Y-78733714D01*
X129928571Y-79233714D02*
X128428571Y-79233714D01*
X129357143Y-79376571D02*
X129928571Y-79805142D01*
X128928571Y-79805142D02*
X129500000Y-79233714D01*
X128928571Y-82733714D02*
X129357143Y-81590857D01*
X129785714Y-82733714D01*
X129928571Y-83448000D02*
X128428571Y-83448000D01*
X129000000Y-83448000D02*
X128928571Y-83590857D01*
X128928571Y-83876571D01*
X129000000Y-84019428D01*
X129071429Y-84090857D01*
X129214286Y-84162286D01*
X129642857Y-84162286D01*
X129785714Y-84090857D01*
X129857143Y-84019428D01*
X129928571Y-83876571D01*
X129928571Y-83590857D01*
X129857143Y-83448000D01*
X129928571Y-85019429D02*
X129857143Y-84876571D01*
X129785714Y-84805143D01*
X129642857Y-84733714D01*
X129214286Y-84733714D01*
X129071429Y-84805143D01*
X129000000Y-84876571D01*
X128928571Y-85019429D01*
X128928571Y-85233714D01*
X129000000Y-85376571D01*
X129071429Y-85448000D01*
X129214286Y-85519429D01*
X129642857Y-85519429D01*
X129785714Y-85448000D01*
X129857143Y-85376571D01*
X129928571Y-85233714D01*
X129928571Y-85019429D01*
X129928571Y-86805143D02*
X129142857Y-86805143D01*
X129000000Y-86733714D01*
X128928571Y-86590857D01*
X128928571Y-86305143D01*
X129000000Y-86162286D01*
X129857143Y-86805143D02*
X129928571Y-86662286D01*
X129928571Y-86305143D01*
X129857143Y-86162286D01*
X129714286Y-86090857D01*
X129571429Y-86090857D01*
X129428571Y-86162286D01*
X129357143Y-86305143D01*
X129357143Y-86662286D01*
X129285714Y-86805143D01*
X129928571Y-87519429D02*
X128928571Y-87519429D01*
X129214286Y-87519429D02*
X129071429Y-87590857D01*
X129000000Y-87662286D01*
X128928571Y-87805143D01*
X128928571Y-87948000D01*
X129928571Y-89090857D02*
X128428571Y-89090857D01*
X129857143Y-89090857D02*
X129928571Y-88948000D01*
X129928571Y-88662286D01*
X129857143Y-88519428D01*
X129785714Y-88448000D01*
X129642857Y-88376571D01*
X129214286Y-88376571D01*
X129071429Y-88448000D01*
X129000000Y-88519428D01*
X128928571Y-88662286D01*
X128928571Y-88948000D01*
X129000000Y-89090857D01*
X129857143Y-89733714D02*
X129928571Y-89876571D01*
X129928571Y-90162286D01*
X129857143Y-90305143D01*
X129714286Y-90376571D01*
X129642857Y-90376571D01*
X129500000Y-90305143D01*
X129428571Y-90162286D01*
X129428571Y-89948000D01*
X129357143Y-89805143D01*
X129214286Y-89733714D01*
X129142857Y-89733714D01*
X129000000Y-89805143D01*
X128928571Y-89948000D01*
X128928571Y-90162286D01*
X129000000Y-90305143D01*
X129214286Y-91948000D02*
X129142857Y-91876572D01*
X129071429Y-91733715D01*
X129071429Y-91590857D01*
X129142857Y-91448000D01*
X129214286Y-91376572D01*
X129357143Y-91305143D01*
X129500000Y-91305143D01*
X129642857Y-91376572D01*
X129714286Y-91448000D01*
X129785714Y-91590857D01*
X129785714Y-91733715D01*
X129714286Y-91876572D01*
X129642857Y-91948000D01*
X129071429Y-91948000D02*
X129642857Y-91948000D01*
X129714286Y-92019429D01*
X129714286Y-92090857D01*
X129642857Y-92233715D01*
X129500000Y-92305143D01*
X129142857Y-92305143D01*
X128928571Y-92162286D01*
X128785714Y-91948000D01*
X128714286Y-91662286D01*
X128785714Y-91376572D01*
X128928571Y-91162286D01*
X129142857Y-91019429D01*
X129428571Y-90948000D01*
X129714286Y-91019429D01*
X129928571Y-91162286D01*
X130071429Y-91376572D01*
X130142857Y-91662286D01*
X130071429Y-91948000D01*
X129928571Y-92162286D01*
X129928571Y-92948000D02*
X128428571Y-92948000D01*
X129928571Y-93590857D02*
X129142857Y-93590857D01*
X129000000Y-93519428D01*
X128928571Y-93376571D01*
X128928571Y-93162286D01*
X129000000Y-93019428D01*
X129071429Y-92948000D01*
X129928571Y-94948000D02*
X129142857Y-94948000D01*
X129000000Y-94876571D01*
X128928571Y-94733714D01*
X128928571Y-94448000D01*
X129000000Y-94305143D01*
X129857143Y-94948000D02*
X129928571Y-94805143D01*
X129928571Y-94448000D01*
X129857143Y-94305143D01*
X129714286Y-94233714D01*
X129571429Y-94233714D01*
X129428571Y-94305143D01*
X129357143Y-94448000D01*
X129357143Y-94805143D01*
X129285714Y-94948000D01*
X129928571Y-95662286D02*
X128928571Y-95662286D01*
X129214286Y-95662286D02*
X129071429Y-95733714D01*
X129000000Y-95805143D01*
X128928571Y-95948000D01*
X128928571Y-96090857D01*
X129928571Y-96590857D02*
X128428571Y-96590857D01*
X129357143Y-96733714D02*
X129928571Y-97162285D01*
X128928571Y-97162285D02*
X129500000Y-96590857D01*
X129928571Y-98019429D02*
X129857143Y-97876571D01*
X129785714Y-97805143D01*
X129642857Y-97733714D01*
X129214286Y-97733714D01*
X129071429Y-97805143D01*
X129000000Y-97876571D01*
X128928571Y-98019429D01*
X128928571Y-98233714D01*
X129000000Y-98376571D01*
X129071429Y-98448000D01*
X129214286Y-98519429D01*
X129642857Y-98519429D01*
X129785714Y-98448000D01*
X129857143Y-98376571D01*
X129928571Y-98233714D01*
X129928571Y-98019429D01*
X128928571Y-99162286D02*
X129928571Y-99162286D01*
X129071429Y-99162286D02*
X129000000Y-99233714D01*
X128928571Y-99376572D01*
X128928571Y-99590857D01*
X129000000Y-99733714D01*
X129142857Y-99805143D01*
X129928571Y-99805143D01*
X129857143Y-101090857D02*
X129928571Y-100948000D01*
X129928571Y-100662286D01*
X129857143Y-100519429D01*
X129714286Y-100448000D01*
X129142857Y-100448000D01*
X129000000Y-100519429D01*
X128928571Y-100662286D01*
X128928571Y-100948000D01*
X129000000Y-101090857D01*
X129142857Y-101162286D01*
X129285714Y-101162286D01*
X129428571Y-100448000D01*
X128928571Y-101805143D02*
X129928571Y-101805143D01*
X129071429Y-101805143D02*
X129000000Y-101876571D01*
X128928571Y-102019429D01*
X128928571Y-102233714D01*
X129000000Y-102376571D01*
X129142857Y-102448000D01*
X129928571Y-102448000D01*
X129785714Y-103162286D02*
X129857143Y-103233714D01*
X129928571Y-103162286D01*
X129857143Y-103090857D01*
X129785714Y-103162286D01*
X129928571Y-103162286D01*
X128928571Y-103876572D02*
X129928571Y-103876572D01*
X129071429Y-103876572D02*
X129000000Y-103948000D01*
X128928571Y-104090858D01*
X128928571Y-104305143D01*
X129000000Y-104448000D01*
X129142857Y-104519429D01*
X129928571Y-104519429D01*
X129857143Y-105805143D02*
X129928571Y-105662286D01*
X129928571Y-105376572D01*
X129857143Y-105233715D01*
X129714286Y-105162286D01*
X129142857Y-105162286D01*
X129000000Y-105233715D01*
X128928571Y-105376572D01*
X128928571Y-105662286D01*
X129000000Y-105805143D01*
X129142857Y-105876572D01*
X129285714Y-105876572D01*
X129428571Y-105162286D01*
X128928571Y-106305143D02*
X128928571Y-106876572D01*
X128428571Y-106519429D02*
X129714286Y-106519429D01*
X129857143Y-106590857D01*
X129928571Y-106733715D01*
X129928571Y-106876572D01*
X128928571Y-107376572D02*
X129357143Y-108519429D01*
X129785714Y-107376572D01*
X98468571Y-80360001D02*
X97754286Y-79860001D01*
X98468571Y-79502858D02*
X96968571Y-79502858D01*
X96968571Y-80074286D01*
X97040000Y-80217144D01*
X97111429Y-80288572D01*
X97254286Y-80360001D01*
X97468571Y-80360001D01*
X97611429Y-80288572D01*
X97682857Y-80217144D01*
X97754286Y-80074286D01*
X97754286Y-79502858D01*
X98468571Y-81645715D02*
X97682857Y-81645715D01*
X97540000Y-81574286D01*
X97468571Y-81431429D01*
X97468571Y-81145715D01*
X97540000Y-81002858D01*
X98397143Y-81645715D02*
X98468571Y-81502858D01*
X98468571Y-81145715D01*
X98397143Y-81002858D01*
X98254286Y-80931429D01*
X98111429Y-80931429D01*
X97968571Y-81002858D01*
X97897143Y-81145715D01*
X97897143Y-81502858D01*
X97825714Y-81645715D01*
X98397143Y-82288572D02*
X98468571Y-82431429D01*
X98468571Y-82717144D01*
X98397143Y-82860001D01*
X98254286Y-82931429D01*
X98182857Y-82931429D01*
X98040000Y-82860001D01*
X97968571Y-82717144D01*
X97968571Y-82502858D01*
X97897143Y-82360001D01*
X97754286Y-82288572D01*
X97682857Y-82288572D01*
X97540000Y-82360001D01*
X97468571Y-82502858D01*
X97468571Y-82717144D01*
X97540000Y-82860001D01*
X97468571Y-83574287D02*
X98968571Y-83574287D01*
X97540000Y-83574287D02*
X97468571Y-83717144D01*
X97468571Y-84002858D01*
X97540000Y-84145715D01*
X97611429Y-84217144D01*
X97754286Y-84288573D01*
X98182857Y-84288573D01*
X98325714Y-84217144D01*
X98397143Y-84145715D01*
X98468571Y-84002858D01*
X98468571Y-83717144D01*
X98397143Y-83574287D01*
X98468571Y-84931430D02*
X96968571Y-84931430D01*
X97540000Y-84931430D02*
X97468571Y-85074287D01*
X97468571Y-85360001D01*
X97540000Y-85502858D01*
X97611429Y-85574287D01*
X97754286Y-85645716D01*
X98182857Y-85645716D01*
X98325714Y-85574287D01*
X98397143Y-85502858D01*
X98468571Y-85360001D01*
X98468571Y-85074287D01*
X98397143Y-84931430D01*
X98397143Y-86860001D02*
X98468571Y-86717144D01*
X98468571Y-86431430D01*
X98397143Y-86288573D01*
X98254286Y-86217144D01*
X97682857Y-86217144D01*
X97540000Y-86288573D01*
X97468571Y-86431430D01*
X97468571Y-86717144D01*
X97540000Y-86860001D01*
X97682857Y-86931430D01*
X97825714Y-86931430D01*
X97968571Y-86217144D01*
X98468571Y-87574287D02*
X97468571Y-87574287D01*
X97754286Y-87574287D02*
X97611429Y-87645715D01*
X97540000Y-87717144D01*
X97468571Y-87860001D01*
X97468571Y-88002858D01*
X98468571Y-88502858D02*
X97468571Y-88502858D01*
X97754286Y-88502858D02*
X97611429Y-88574286D01*
X97540000Y-88645715D01*
X97468571Y-88788572D01*
X97468571Y-88931429D01*
X97468571Y-89288572D02*
X98468571Y-89645715D01*
X97468571Y-90002857D02*
X98468571Y-89645715D01*
X98825714Y-89502857D01*
X98897143Y-89431429D01*
X98968571Y-89288572D01*
X98468571Y-91717143D02*
X96968571Y-91717143D01*
X96968571Y-92288571D01*
X97040000Y-92431429D01*
X97111429Y-92502857D01*
X97254286Y-92574286D01*
X97468571Y-92574286D01*
X97611429Y-92502857D01*
X97682857Y-92431429D01*
X97754286Y-92288571D01*
X97754286Y-91717143D01*
X98468571Y-93217143D02*
X97468571Y-93217143D01*
X96968571Y-93217143D02*
X97040000Y-93145714D01*
X97111429Y-93217143D01*
X97040000Y-93288571D01*
X96968571Y-93217143D01*
X97111429Y-93217143D01*
M02*
