M48
;DRILL file {KiCad (2015-08-15 BZR 6094)-product} date Mon 17 Aug 2015 18:02:46 BST
;FORMAT={-:-/ absolute / inch / decimal}
FMAT,2
INCH,TZ
T1C0.039
T2C0.040
T3C0.150
%
G90
G05
M72
T1
X4.12Y-3.06
X4.12Y-3.26
X4.12Y-3.52
X4.12Y-3.72
X4.12Y-3.98
X4.12Y-4.18
X4.52Y-3.06
X4.52Y-3.26
X4.52Y-3.52
X4.52Y-3.72
X4.52Y-3.98
X4.52Y-4.18
X4.68Y-3.06
X4.68Y-3.16
X4.68Y-3.26
X4.68Y-3.52
X4.68Y-3.62
X4.68Y-3.72
X4.68Y-3.98
X4.68Y-4.08
X4.68Y-4.18
T2
X3.64Y-2.5
X3.64Y-2.6
X3.64Y-2.7
X3.64Y-2.8
X3.64Y-2.9
X3.64Y-3.
X3.64Y-3.1
X3.64Y-3.2
X3.64Y-3.3
X3.64Y-3.4
X3.64Y-3.5
X3.64Y-3.6
X3.64Y-3.7
X3.64Y-3.8
X3.64Y-3.9
X3.64Y-4.
X3.64Y-4.1
X3.64Y-4.2
X3.74Y-2.5
X3.74Y-2.6
X3.74Y-2.7
X3.74Y-2.8
X3.74Y-2.9
X3.74Y-3.
X3.74Y-3.1
X3.74Y-3.2
X3.74Y-3.3
X3.74Y-3.4
X3.74Y-3.5
X3.74Y-3.6
X3.74Y-3.7
X3.74Y-3.8
X3.74Y-3.9
X3.74Y-4.
X3.74Y-4.1
X3.74Y-4.2
X5.06Y-2.8
X5.16Y-2.8
X5.26Y-2.8
X5.36Y-2.8
T3
X5.34Y-3.16
X5.34Y-3.62
X5.34Y-4.08
T1
X4.155Y-2.7466G85X4.155Y-2.8253
G05
X4.3793Y-2.6679G85X4.3007Y-2.6679
G05
X4.3793Y-2.9041G85X4.3007Y-2.9041
G05
T0
M30
