G04 #@! TF.FileFunction,Copper,L1,Top,Signal*
%FSLAX46Y46*%
G04 Gerber Fmt 4.6, Leading zero omitted, Abs format (unit mm)*
G04 Created by KiCad (PCBNEW (2015-08-15 BZR 6094)-product) date Mon 17 Aug 2015 18:15:34 BST*
%MOMM*%
G01*
G04 APERTURE LIST*
%ADD10C,0.100000*%
%ADD11R,3.500120X3.500120*%
%ADD12R,1.727200X2.032000*%
%ADD13O,1.727200X2.032000*%
%ADD14C,1.998980*%
%ADD15O,2.499360X1.501140*%
%ADD16R,1.727200X1.727200*%
%ADD17O,1.727200X1.727200*%
%ADD18C,1.270000*%
%ADD19C,0.508000*%
%ADD20C,0.254000*%
G04 APERTURE END LIST*
D10*
D11*
X110236000Y-73764140D03*
X110236000Y-67764660D03*
X105537000Y-70764400D03*
D12*
X128524000Y-71120000D03*
D13*
X131064000Y-71120000D03*
X133604000Y-71120000D03*
X136144000Y-71120000D03*
D14*
X114808000Y-77724000D03*
X104648000Y-77724000D03*
X114808000Y-89408000D03*
X104648000Y-89408000D03*
X114808000Y-101092000D03*
X104648000Y-101092000D03*
X114808000Y-82804000D03*
X104648000Y-82804000D03*
X114808000Y-94488000D03*
X104648000Y-94488000D03*
X114808000Y-106172000D03*
X104648000Y-106172000D03*
D15*
X118872000Y-80264000D03*
X118872000Y-77724000D03*
X118872000Y-82804000D03*
X118872000Y-91948000D03*
X118872000Y-89408000D03*
X118872000Y-94488000D03*
X118872000Y-103632000D03*
X118872000Y-101092000D03*
X118872000Y-106172000D03*
D16*
X94996000Y-106680000D03*
D17*
X92456000Y-106680000D03*
X94996000Y-104140000D03*
X92456000Y-104140000D03*
X94996000Y-101600000D03*
X92456000Y-101600000D03*
X94996000Y-99060000D03*
X92456000Y-99060000D03*
X94996000Y-96520000D03*
X92456000Y-96520000D03*
X94996000Y-93980000D03*
X92456000Y-93980000D03*
X94996000Y-91440000D03*
X92456000Y-91440000D03*
X94996000Y-88900000D03*
X92456000Y-88900000D03*
X94996000Y-86360000D03*
X92456000Y-86360000D03*
X94996000Y-83820000D03*
X92456000Y-83820000D03*
X94996000Y-81280000D03*
X92456000Y-81280000D03*
X94996000Y-78740000D03*
X92456000Y-78740000D03*
X94996000Y-76200000D03*
X92456000Y-76200000D03*
X94996000Y-73660000D03*
X92456000Y-73660000D03*
X94996000Y-71120000D03*
X92456000Y-71120000D03*
X94996000Y-68580000D03*
X92456000Y-68580000D03*
X94996000Y-66040000D03*
X92456000Y-66040000D03*
X94996000Y-63500000D03*
X92456000Y-63500000D03*
D18*
X110236000Y-73764140D02*
X112880140Y-71120000D01*
X112880140Y-71120000D02*
X128524000Y-71120000D01*
D19*
X94996000Y-104140000D02*
X98044000Y-101092000D01*
X98044000Y-101092000D02*
X104648000Y-101092000D01*
X94996000Y-101600000D02*
X98044000Y-98552000D01*
X99314000Y-89408000D02*
X104648000Y-89408000D01*
X98044000Y-90678000D02*
X99314000Y-89408000D01*
X98044000Y-96520000D02*
X98044000Y-90678000D01*
X98044000Y-98552000D02*
X98044000Y-96520000D01*
X94996000Y-99060000D02*
X97282000Y-96774000D01*
X98552000Y-77724000D02*
X104648000Y-77724000D01*
X97282000Y-78994000D02*
X98552000Y-77724000D01*
X97282000Y-96774000D02*
X97282000Y-78994000D01*
X114808000Y-82804000D02*
X114808000Y-77724000D01*
X114808000Y-77724000D02*
X118872000Y-77724000D01*
X114808000Y-89408000D02*
X118872000Y-89408000D01*
X114808000Y-89408000D02*
X114808000Y-94488000D01*
X114808000Y-94488000D02*
X115062000Y-94488000D01*
X115062000Y-94488000D02*
X114808000Y-94488000D01*
X114808000Y-106172000D02*
X114808000Y-101092000D01*
X114808000Y-101092000D02*
X118872000Y-101092000D01*
D20*
G36*
X138488338Y-60821046D02*
X138902333Y-61097669D01*
X139178953Y-61511660D01*
X139290000Y-62069931D01*
X139290000Y-74598271D01*
X139283035Y-74587447D01*
X139241410Y-74559006D01*
X139192000Y-74549000D01*
X122428000Y-74549000D01*
X122381841Y-74557685D01*
X122339447Y-74584965D01*
X122311006Y-74626590D01*
X122301000Y-74676000D01*
X122301000Y-109220000D01*
X122309685Y-109266159D01*
X122325026Y-109290000D01*
X92069931Y-109290000D01*
X91511660Y-109178953D01*
X91097669Y-108902333D01*
X90821046Y-108488338D01*
X90710000Y-107930069D01*
X90710000Y-63500000D01*
X90928041Y-63500000D01*
X91042115Y-64073489D01*
X91366971Y-64559670D01*
X91690228Y-64775664D01*
X91567510Y-64833179D01*
X91173312Y-65265053D01*
X91001042Y-65680974D01*
X91122183Y-65913000D01*
X92329000Y-65913000D01*
X92329000Y-65893000D01*
X92583000Y-65893000D01*
X92583000Y-65913000D01*
X92603000Y-65913000D01*
X92603000Y-66167000D01*
X92583000Y-66167000D01*
X92583000Y-66187000D01*
X92329000Y-66187000D01*
X92329000Y-66167000D01*
X91122183Y-66167000D01*
X91001042Y-66399026D01*
X91173312Y-66814947D01*
X91567510Y-67246821D01*
X91690228Y-67304336D01*
X91366971Y-67520330D01*
X91042115Y-68006511D01*
X90928041Y-68580000D01*
X91042115Y-69153489D01*
X91366971Y-69639670D01*
X91690228Y-69855664D01*
X91567510Y-69913179D01*
X91173312Y-70345053D01*
X91001042Y-70760974D01*
X91122183Y-70993000D01*
X92329000Y-70993000D01*
X92329000Y-70973000D01*
X92583000Y-70973000D01*
X92583000Y-70993000D01*
X92603000Y-70993000D01*
X92603000Y-71247000D01*
X92583000Y-71247000D01*
X92583000Y-71267000D01*
X92329000Y-71267000D01*
X92329000Y-71247000D01*
X91122183Y-71247000D01*
X91001042Y-71479026D01*
X91173312Y-71894947D01*
X91567510Y-72326821D01*
X91690228Y-72384336D01*
X91366971Y-72600330D01*
X91042115Y-73086511D01*
X90928041Y-73660000D01*
X91042115Y-74233489D01*
X91366971Y-74719670D01*
X91681752Y-74930000D01*
X91366971Y-75140330D01*
X91042115Y-75626511D01*
X90928041Y-76200000D01*
X91042115Y-76773489D01*
X91366971Y-77259670D01*
X91681752Y-77470000D01*
X91366971Y-77680330D01*
X91042115Y-78166511D01*
X90928041Y-78740000D01*
X91042115Y-79313489D01*
X91366971Y-79799670D01*
X91681752Y-80010000D01*
X91366971Y-80220330D01*
X91042115Y-80706511D01*
X90928041Y-81280000D01*
X91042115Y-81853489D01*
X91366971Y-82339670D01*
X91690228Y-82555664D01*
X91567510Y-82613179D01*
X91173312Y-83045053D01*
X91001042Y-83460974D01*
X91122183Y-83693000D01*
X92329000Y-83693000D01*
X92329000Y-83673000D01*
X92583000Y-83673000D01*
X92583000Y-83693000D01*
X92603000Y-83693000D01*
X92603000Y-83947000D01*
X92583000Y-83947000D01*
X92583000Y-83967000D01*
X92329000Y-83967000D01*
X92329000Y-83947000D01*
X91122183Y-83947000D01*
X91001042Y-84179026D01*
X91173312Y-84594947D01*
X91567510Y-85026821D01*
X91690228Y-85084336D01*
X91366971Y-85300330D01*
X91042115Y-85786511D01*
X90928041Y-86360000D01*
X91042115Y-86933489D01*
X91366971Y-87419670D01*
X91681752Y-87630000D01*
X91366971Y-87840330D01*
X91042115Y-88326511D01*
X90928041Y-88900000D01*
X91042115Y-89473489D01*
X91366971Y-89959670D01*
X91690228Y-90175664D01*
X91567510Y-90233179D01*
X91173312Y-90665053D01*
X91001042Y-91080974D01*
X91122183Y-91313000D01*
X92329000Y-91313000D01*
X92329000Y-91293000D01*
X92583000Y-91293000D01*
X92583000Y-91313000D01*
X92603000Y-91313000D01*
X92603000Y-91567000D01*
X92583000Y-91567000D01*
X92583000Y-91587000D01*
X92329000Y-91587000D01*
X92329000Y-91567000D01*
X91122183Y-91567000D01*
X91001042Y-91799026D01*
X91173312Y-92214947D01*
X91567510Y-92646821D01*
X91690228Y-92704336D01*
X91366971Y-92920330D01*
X91042115Y-93406511D01*
X90928041Y-93980000D01*
X91042115Y-94553489D01*
X91366971Y-95039670D01*
X91681752Y-95250000D01*
X91366971Y-95460330D01*
X91042115Y-95946511D01*
X90928041Y-96520000D01*
X91042115Y-97093489D01*
X91366971Y-97579670D01*
X91681752Y-97790000D01*
X91366971Y-98000330D01*
X91042115Y-98486511D01*
X90928041Y-99060000D01*
X91042115Y-99633489D01*
X91366971Y-100119670D01*
X91690228Y-100335664D01*
X91567510Y-100393179D01*
X91173312Y-100825053D01*
X91001042Y-101240974D01*
X91122183Y-101473000D01*
X92329000Y-101473000D01*
X92329000Y-101453000D01*
X92583000Y-101453000D01*
X92583000Y-101473000D01*
X92603000Y-101473000D01*
X92603000Y-101727000D01*
X92583000Y-101727000D01*
X92583000Y-101747000D01*
X92329000Y-101747000D01*
X92329000Y-101727000D01*
X91122183Y-101727000D01*
X91001042Y-101959026D01*
X91173312Y-102374947D01*
X91567510Y-102806821D01*
X91690228Y-102864336D01*
X91366971Y-103080330D01*
X91042115Y-103566511D01*
X90928041Y-104140000D01*
X91042115Y-104713489D01*
X91366971Y-105199670D01*
X91681752Y-105410000D01*
X91366971Y-105620330D01*
X91042115Y-106106511D01*
X90928041Y-106680000D01*
X91042115Y-107253489D01*
X91366971Y-107739670D01*
X91853152Y-108064526D01*
X92426641Y-108178600D01*
X92485359Y-108178600D01*
X93058848Y-108064526D01*
X93524442Y-107753426D01*
X93529238Y-107778917D01*
X93668310Y-107995041D01*
X93880510Y-108140031D01*
X94132400Y-108191040D01*
X95859600Y-108191040D01*
X96094917Y-108146762D01*
X96311041Y-108007690D01*
X96456031Y-107795490D01*
X96507040Y-107543600D01*
X96507040Y-107324163D01*
X103675443Y-107324163D01*
X103774042Y-107590965D01*
X104383582Y-107817401D01*
X105033377Y-107793341D01*
X105521958Y-107590965D01*
X105620557Y-107324163D01*
X104648000Y-106351605D01*
X103675443Y-107324163D01*
X96507040Y-107324163D01*
X96507040Y-105907582D01*
X103002599Y-105907582D01*
X103026659Y-106557377D01*
X103229035Y-107045958D01*
X103495837Y-107144557D01*
X104468395Y-106172000D01*
X104827605Y-106172000D01*
X105800163Y-107144557D01*
X106066965Y-107045958D01*
X106293401Y-106436418D01*
X106269341Y-105786623D01*
X106066965Y-105298042D01*
X105800163Y-105199443D01*
X104827605Y-106172000D01*
X104468395Y-106172000D01*
X103495837Y-105199443D01*
X103229035Y-105298042D01*
X103002599Y-105907582D01*
X96507040Y-105907582D01*
X96507040Y-105816400D01*
X96462762Y-105581083D01*
X96323690Y-105364959D01*
X96111490Y-105219969D01*
X96067869Y-105211136D01*
X96085029Y-105199670D01*
X96205189Y-105019837D01*
X103675443Y-105019837D01*
X104648000Y-105992395D01*
X105620557Y-105019837D01*
X105521958Y-104753035D01*
X104912418Y-104526599D01*
X104262623Y-104550659D01*
X103774042Y-104753035D01*
X103675443Y-105019837D01*
X96205189Y-105019837D01*
X96409885Y-104713489D01*
X96523959Y-104140000D01*
X96479043Y-103914193D01*
X98412236Y-101981000D01*
X103246806Y-101981000D01*
X103261538Y-102016655D01*
X103720927Y-102476846D01*
X104321453Y-102726206D01*
X104971694Y-102726774D01*
X105572655Y-102478462D01*
X106032846Y-102019073D01*
X106282206Y-101418547D01*
X106282208Y-101415694D01*
X113173226Y-101415694D01*
X113421538Y-102016655D01*
X113880927Y-102476846D01*
X113919000Y-102492655D01*
X113919000Y-104770806D01*
X113883345Y-104785538D01*
X113423154Y-105244927D01*
X113173794Y-105845453D01*
X113173226Y-106495694D01*
X113421538Y-107096655D01*
X113880927Y-107556846D01*
X114481453Y-107806206D01*
X115131694Y-107806774D01*
X115732655Y-107558462D01*
X116192846Y-107099073D01*
X116436090Y-106513275D01*
X117030007Y-106513275D01*
X117044190Y-106584903D01*
X117303342Y-107061944D01*
X117725323Y-107403499D01*
X118245890Y-107557570D01*
X118745000Y-107557570D01*
X118745000Y-106299000D01*
X118999000Y-106299000D01*
X118999000Y-107557570D01*
X119498110Y-107557570D01*
X120018677Y-107403499D01*
X120440658Y-107061944D01*
X120699810Y-106584903D01*
X120713993Y-106513275D01*
X120591339Y-106299000D01*
X118999000Y-106299000D01*
X118745000Y-106299000D01*
X117152661Y-106299000D01*
X117030007Y-106513275D01*
X116436090Y-106513275D01*
X116442206Y-106498547D01*
X116442774Y-105848306D01*
X116194462Y-105247345D01*
X115735073Y-104787154D01*
X115697000Y-104771345D01*
X115697000Y-102493194D01*
X115732655Y-102478462D01*
X116192846Y-102019073D01*
X116208655Y-101981000D01*
X117295586Y-101981000D01*
X117356221Y-102071746D01*
X117790616Y-102362000D01*
X117356221Y-102652254D01*
X117055867Y-103101765D01*
X116950397Y-103632000D01*
X117055867Y-104162235D01*
X117356221Y-104611746D01*
X117805732Y-104912100D01*
X117815032Y-104913950D01*
X117725323Y-104940501D01*
X117303342Y-105282056D01*
X117044190Y-105759097D01*
X117030007Y-105830725D01*
X117152661Y-106045000D01*
X118745000Y-106045000D01*
X118745000Y-106025000D01*
X118999000Y-106025000D01*
X118999000Y-106045000D01*
X120591339Y-106045000D01*
X120713993Y-105830725D01*
X120699810Y-105759097D01*
X120440658Y-105282056D01*
X120018677Y-104940501D01*
X119928968Y-104913950D01*
X119938268Y-104912100D01*
X120387779Y-104611746D01*
X120688133Y-104162235D01*
X120793603Y-103632000D01*
X120688133Y-103101765D01*
X120387779Y-102652254D01*
X119953384Y-102362000D01*
X120387779Y-102071746D01*
X120688133Y-101622235D01*
X120793603Y-101092000D01*
X120688133Y-100561765D01*
X120387779Y-100112254D01*
X119938268Y-99811900D01*
X119408033Y-99706430D01*
X118335967Y-99706430D01*
X117805732Y-99811900D01*
X117356221Y-100112254D01*
X117295586Y-100203000D01*
X116209194Y-100203000D01*
X116194462Y-100167345D01*
X115735073Y-99707154D01*
X115134547Y-99457794D01*
X114484306Y-99457226D01*
X113883345Y-99705538D01*
X113423154Y-100164927D01*
X113173794Y-100765453D01*
X113173226Y-101415694D01*
X106282208Y-101415694D01*
X106282774Y-100768306D01*
X106034462Y-100167345D01*
X105575073Y-99707154D01*
X104974547Y-99457794D01*
X104324306Y-99457226D01*
X103723345Y-99705538D01*
X103263154Y-100164927D01*
X103247345Y-100203000D01*
X98044000Y-100203000D01*
X97703794Y-100270671D01*
X97520448Y-100393179D01*
X97415382Y-100463382D01*
X96483279Y-101395485D01*
X96479043Y-101374193D01*
X98672618Y-99180618D01*
X98753212Y-99060000D01*
X98865329Y-98892206D01*
X98933000Y-98552000D01*
X98933000Y-95640163D01*
X103675443Y-95640163D01*
X103774042Y-95906965D01*
X104383582Y-96133401D01*
X105033377Y-96109341D01*
X105521958Y-95906965D01*
X105620557Y-95640163D01*
X104648000Y-94667605D01*
X103675443Y-95640163D01*
X98933000Y-95640163D01*
X98933000Y-94223582D01*
X103002599Y-94223582D01*
X103026659Y-94873377D01*
X103229035Y-95361958D01*
X103495837Y-95460557D01*
X104468395Y-94488000D01*
X104827605Y-94488000D01*
X105800163Y-95460557D01*
X106066965Y-95361958D01*
X106293401Y-94752418D01*
X106269341Y-94102623D01*
X106066965Y-93614042D01*
X105800163Y-93515443D01*
X104827605Y-94488000D01*
X104468395Y-94488000D01*
X103495837Y-93515443D01*
X103229035Y-93614042D01*
X103002599Y-94223582D01*
X98933000Y-94223582D01*
X98933000Y-93335837D01*
X103675443Y-93335837D01*
X104648000Y-94308395D01*
X105620557Y-93335837D01*
X105521958Y-93069035D01*
X104912418Y-92842599D01*
X104262623Y-92866659D01*
X103774042Y-93069035D01*
X103675443Y-93335837D01*
X98933000Y-93335837D01*
X98933000Y-91046236D01*
X99682236Y-90297000D01*
X103246806Y-90297000D01*
X103261538Y-90332655D01*
X103720927Y-90792846D01*
X104321453Y-91042206D01*
X104971694Y-91042774D01*
X105572655Y-90794462D01*
X106032846Y-90335073D01*
X106282206Y-89734547D01*
X106282208Y-89731694D01*
X113173226Y-89731694D01*
X113421538Y-90332655D01*
X113880927Y-90792846D01*
X113919000Y-90808655D01*
X113919000Y-93086806D01*
X113883345Y-93101538D01*
X113423154Y-93560927D01*
X113173794Y-94161453D01*
X113173226Y-94811694D01*
X113421538Y-95412655D01*
X113880927Y-95872846D01*
X114481453Y-96122206D01*
X115131694Y-96122774D01*
X115732655Y-95874462D01*
X116192846Y-95415073D01*
X116436090Y-94829275D01*
X117030007Y-94829275D01*
X117044190Y-94900903D01*
X117303342Y-95377944D01*
X117725323Y-95719499D01*
X118245890Y-95873570D01*
X118745000Y-95873570D01*
X118745000Y-94615000D01*
X118999000Y-94615000D01*
X118999000Y-95873570D01*
X119498110Y-95873570D01*
X120018677Y-95719499D01*
X120440658Y-95377944D01*
X120699810Y-94900903D01*
X120713993Y-94829275D01*
X120591339Y-94615000D01*
X118999000Y-94615000D01*
X118745000Y-94615000D01*
X117152661Y-94615000D01*
X117030007Y-94829275D01*
X116436090Y-94829275D01*
X116442206Y-94814547D01*
X116442774Y-94164306D01*
X116194462Y-93563345D01*
X115735073Y-93103154D01*
X115697000Y-93087345D01*
X115697000Y-90809194D01*
X115732655Y-90794462D01*
X116192846Y-90335073D01*
X116208655Y-90297000D01*
X117295586Y-90297000D01*
X117356221Y-90387746D01*
X117790616Y-90678000D01*
X117356221Y-90968254D01*
X117055867Y-91417765D01*
X116950397Y-91948000D01*
X117055867Y-92478235D01*
X117356221Y-92927746D01*
X117805732Y-93228100D01*
X117815032Y-93229950D01*
X117725323Y-93256501D01*
X117303342Y-93598056D01*
X117044190Y-94075097D01*
X117030007Y-94146725D01*
X117152661Y-94361000D01*
X118745000Y-94361000D01*
X118745000Y-94341000D01*
X118999000Y-94341000D01*
X118999000Y-94361000D01*
X120591339Y-94361000D01*
X120713993Y-94146725D01*
X120699810Y-94075097D01*
X120440658Y-93598056D01*
X120018677Y-93256501D01*
X119928968Y-93229950D01*
X119938268Y-93228100D01*
X120387779Y-92927746D01*
X120688133Y-92478235D01*
X120793603Y-91948000D01*
X120688133Y-91417765D01*
X120387779Y-90968254D01*
X119953384Y-90678000D01*
X120387779Y-90387746D01*
X120688133Y-89938235D01*
X120793603Y-89408000D01*
X120688133Y-88877765D01*
X120387779Y-88428254D01*
X119938268Y-88127900D01*
X119408033Y-88022430D01*
X118335967Y-88022430D01*
X117805732Y-88127900D01*
X117356221Y-88428254D01*
X117295586Y-88519000D01*
X116209194Y-88519000D01*
X116194462Y-88483345D01*
X115735073Y-88023154D01*
X115134547Y-87773794D01*
X114484306Y-87773226D01*
X113883345Y-88021538D01*
X113423154Y-88480927D01*
X113173794Y-89081453D01*
X113173226Y-89731694D01*
X106282208Y-89731694D01*
X106282774Y-89084306D01*
X106034462Y-88483345D01*
X105575073Y-88023154D01*
X104974547Y-87773794D01*
X104324306Y-87773226D01*
X103723345Y-88021538D01*
X103263154Y-88480927D01*
X103247345Y-88519000D01*
X99314000Y-88519000D01*
X98973794Y-88586671D01*
X98685382Y-88779382D01*
X98171000Y-89293764D01*
X98171000Y-83956163D01*
X103675443Y-83956163D01*
X103774042Y-84222965D01*
X104383582Y-84449401D01*
X105033377Y-84425341D01*
X105521958Y-84222965D01*
X105620557Y-83956163D01*
X104648000Y-82983605D01*
X103675443Y-83956163D01*
X98171000Y-83956163D01*
X98171000Y-82539582D01*
X103002599Y-82539582D01*
X103026659Y-83189377D01*
X103229035Y-83677958D01*
X103495837Y-83776557D01*
X104468395Y-82804000D01*
X104827605Y-82804000D01*
X105800163Y-83776557D01*
X106066965Y-83677958D01*
X106293401Y-83068418D01*
X106269341Y-82418623D01*
X106066965Y-81930042D01*
X105800163Y-81831443D01*
X104827605Y-82804000D01*
X104468395Y-82804000D01*
X103495837Y-81831443D01*
X103229035Y-81930042D01*
X103002599Y-82539582D01*
X98171000Y-82539582D01*
X98171000Y-81651837D01*
X103675443Y-81651837D01*
X104648000Y-82624395D01*
X105620557Y-81651837D01*
X105521958Y-81385035D01*
X104912418Y-81158599D01*
X104262623Y-81182659D01*
X103774042Y-81385035D01*
X103675443Y-81651837D01*
X98171000Y-81651837D01*
X98171000Y-79362236D01*
X98920236Y-78613000D01*
X103246806Y-78613000D01*
X103261538Y-78648655D01*
X103720927Y-79108846D01*
X104321453Y-79358206D01*
X104971694Y-79358774D01*
X105572655Y-79110462D01*
X106032846Y-78651073D01*
X106282206Y-78050547D01*
X106282208Y-78047694D01*
X113173226Y-78047694D01*
X113421538Y-78648655D01*
X113880927Y-79108846D01*
X113919000Y-79124655D01*
X113919000Y-81402806D01*
X113883345Y-81417538D01*
X113423154Y-81876927D01*
X113173794Y-82477453D01*
X113173226Y-83127694D01*
X113421538Y-83728655D01*
X113880927Y-84188846D01*
X114481453Y-84438206D01*
X115131694Y-84438774D01*
X115732655Y-84190462D01*
X116192846Y-83731073D01*
X116436090Y-83145275D01*
X117030007Y-83145275D01*
X117044190Y-83216903D01*
X117303342Y-83693944D01*
X117725323Y-84035499D01*
X118245890Y-84189570D01*
X118745000Y-84189570D01*
X118745000Y-82931000D01*
X118999000Y-82931000D01*
X118999000Y-84189570D01*
X119498110Y-84189570D01*
X120018677Y-84035499D01*
X120440658Y-83693944D01*
X120699810Y-83216903D01*
X120713993Y-83145275D01*
X120591339Y-82931000D01*
X118999000Y-82931000D01*
X118745000Y-82931000D01*
X117152661Y-82931000D01*
X117030007Y-83145275D01*
X116436090Y-83145275D01*
X116442206Y-83130547D01*
X116442774Y-82480306D01*
X116194462Y-81879345D01*
X115735073Y-81419154D01*
X115697000Y-81403345D01*
X115697000Y-79125194D01*
X115732655Y-79110462D01*
X116192846Y-78651073D01*
X116208655Y-78613000D01*
X117295586Y-78613000D01*
X117356221Y-78703746D01*
X117790616Y-78994000D01*
X117356221Y-79284254D01*
X117055867Y-79733765D01*
X116950397Y-80264000D01*
X117055867Y-80794235D01*
X117356221Y-81243746D01*
X117805732Y-81544100D01*
X117815032Y-81545950D01*
X117725323Y-81572501D01*
X117303342Y-81914056D01*
X117044190Y-82391097D01*
X117030007Y-82462725D01*
X117152661Y-82677000D01*
X118745000Y-82677000D01*
X118745000Y-82657000D01*
X118999000Y-82657000D01*
X118999000Y-82677000D01*
X120591339Y-82677000D01*
X120713993Y-82462725D01*
X120699810Y-82391097D01*
X120440658Y-81914056D01*
X120018677Y-81572501D01*
X119928968Y-81545950D01*
X119938268Y-81544100D01*
X120387779Y-81243746D01*
X120688133Y-80794235D01*
X120793603Y-80264000D01*
X120688133Y-79733765D01*
X120387779Y-79284254D01*
X119953384Y-78994000D01*
X120387779Y-78703746D01*
X120688133Y-78254235D01*
X120793603Y-77724000D01*
X120688133Y-77193765D01*
X120387779Y-76744254D01*
X119938268Y-76443900D01*
X119408033Y-76338430D01*
X118335967Y-76338430D01*
X117805732Y-76443900D01*
X117356221Y-76744254D01*
X117295586Y-76835000D01*
X116209194Y-76835000D01*
X116194462Y-76799345D01*
X115735073Y-76339154D01*
X115134547Y-76089794D01*
X114484306Y-76089226D01*
X113883345Y-76337538D01*
X113423154Y-76796927D01*
X113173794Y-77397453D01*
X113173226Y-78047694D01*
X106282208Y-78047694D01*
X106282774Y-77400306D01*
X106034462Y-76799345D01*
X105575073Y-76339154D01*
X104974547Y-76089794D01*
X104324306Y-76089226D01*
X103723345Y-76337538D01*
X103263154Y-76796927D01*
X103247345Y-76835000D01*
X98552000Y-76835000D01*
X98211794Y-76902671D01*
X97923382Y-77095382D01*
X96653382Y-78365382D01*
X96496227Y-78600581D01*
X96409885Y-78166511D01*
X96085029Y-77680330D01*
X95761772Y-77464336D01*
X95884490Y-77406821D01*
X96278688Y-76974947D01*
X96450958Y-76559026D01*
X96329817Y-76327000D01*
X95123000Y-76327000D01*
X95123000Y-76347000D01*
X94869000Y-76347000D01*
X94869000Y-76327000D01*
X94849000Y-76327000D01*
X94849000Y-76073000D01*
X94869000Y-76073000D01*
X94869000Y-76053000D01*
X95123000Y-76053000D01*
X95123000Y-76073000D01*
X96329817Y-76073000D01*
X96450958Y-75840974D01*
X96278688Y-75425053D01*
X95884490Y-74993179D01*
X95761772Y-74935664D01*
X96085029Y-74719670D01*
X96409885Y-74233489D01*
X96523959Y-73660000D01*
X96409885Y-73086511D01*
X96085029Y-72600330D01*
X95770248Y-72390000D01*
X96085029Y-72179670D01*
X96409885Y-71693489D01*
X96523959Y-71120000D01*
X96510065Y-71050150D01*
X103151940Y-71050150D01*
X103151940Y-72640769D01*
X103248613Y-72874158D01*
X103427241Y-73052787D01*
X103660630Y-73149460D01*
X105251250Y-73149460D01*
X105410000Y-72990710D01*
X105410000Y-70891400D01*
X105664000Y-70891400D01*
X105664000Y-72990710D01*
X105822750Y-73149460D01*
X107413370Y-73149460D01*
X107646759Y-73052787D01*
X107825387Y-72874158D01*
X107838500Y-72842500D01*
X107838500Y-75514200D01*
X107882778Y-75749517D01*
X108021850Y-75965641D01*
X108234050Y-76110631D01*
X108485940Y-76161640D01*
X111986060Y-76161640D01*
X112221377Y-76117362D01*
X112437501Y-75978290D01*
X112582491Y-75766090D01*
X112633500Y-75514200D01*
X112633500Y-73162691D01*
X113406191Y-72390000D01*
X127069260Y-72390000D01*
X127196310Y-72587441D01*
X127408510Y-72732431D01*
X127660400Y-72783440D01*
X129387600Y-72783440D01*
X129622917Y-72739162D01*
X129839041Y-72600090D01*
X129984031Y-72387890D01*
X129992400Y-72346561D01*
X130004330Y-72364415D01*
X130490511Y-72689271D01*
X131064000Y-72803345D01*
X131637489Y-72689271D01*
X132123670Y-72364415D01*
X132334000Y-72049634D01*
X132544330Y-72364415D01*
X133030511Y-72689271D01*
X133604000Y-72803345D01*
X134177489Y-72689271D01*
X134663670Y-72364415D01*
X134874000Y-72049634D01*
X135084330Y-72364415D01*
X135570511Y-72689271D01*
X136144000Y-72803345D01*
X136717489Y-72689271D01*
X137203670Y-72364415D01*
X137528526Y-71878234D01*
X137642600Y-71304745D01*
X137642600Y-70935255D01*
X137528526Y-70361766D01*
X137203670Y-69875585D01*
X136717489Y-69550729D01*
X136144000Y-69436655D01*
X135570511Y-69550729D01*
X135084330Y-69875585D01*
X134874000Y-70190366D01*
X134663670Y-69875585D01*
X134177489Y-69550729D01*
X133604000Y-69436655D01*
X133030511Y-69550729D01*
X132544330Y-69875585D01*
X132334000Y-70190366D01*
X132123670Y-69875585D01*
X131637489Y-69550729D01*
X131064000Y-69436655D01*
X130490511Y-69550729D01*
X130004330Y-69875585D01*
X129994757Y-69889913D01*
X129990762Y-69868683D01*
X129851690Y-69652559D01*
X129639490Y-69507569D01*
X129387600Y-69456560D01*
X127660400Y-69456560D01*
X127425083Y-69500838D01*
X127208959Y-69639910D01*
X127065411Y-69850000D01*
X112880145Y-69850000D01*
X112880140Y-69849999D01*
X112466534Y-69932271D01*
X112524387Y-69874418D01*
X112621060Y-69641029D01*
X112621060Y-68050410D01*
X112462310Y-67891660D01*
X110363000Y-67891660D01*
X110363000Y-69990970D01*
X110521750Y-70149720D01*
X112090250Y-70149720D01*
X111982114Y-70221974D01*
X111982112Y-70221977D01*
X110837449Y-71366640D01*
X108485940Y-71366640D01*
X108250623Y-71410918D01*
X108034499Y-71549990D01*
X107922060Y-71714550D01*
X107922060Y-71050150D01*
X107763310Y-70891400D01*
X105664000Y-70891400D01*
X105410000Y-70891400D01*
X103310690Y-70891400D01*
X103151940Y-71050150D01*
X96510065Y-71050150D01*
X96409885Y-70546511D01*
X96085029Y-70060330D01*
X95770248Y-69850000D01*
X96085029Y-69639670D01*
X96409885Y-69153489D01*
X96462687Y-68888031D01*
X103151940Y-68888031D01*
X103151940Y-70478650D01*
X103310690Y-70637400D01*
X105410000Y-70637400D01*
X105410000Y-68538090D01*
X105664000Y-68538090D01*
X105664000Y-70637400D01*
X107763310Y-70637400D01*
X107922060Y-70478650D01*
X107922060Y-69812728D01*
X107947613Y-69874418D01*
X108126241Y-70053047D01*
X108359630Y-70149720D01*
X109950250Y-70149720D01*
X110109000Y-69990970D01*
X110109000Y-67891660D01*
X108009690Y-67891660D01*
X107850940Y-68050410D01*
X107850940Y-68716332D01*
X107825387Y-68654642D01*
X107646759Y-68476013D01*
X107413370Y-68379340D01*
X105822750Y-68379340D01*
X105664000Y-68538090D01*
X105410000Y-68538090D01*
X105251250Y-68379340D01*
X103660630Y-68379340D01*
X103427241Y-68476013D01*
X103248613Y-68654642D01*
X103151940Y-68888031D01*
X96462687Y-68888031D01*
X96523959Y-68580000D01*
X96409885Y-68006511D01*
X96085029Y-67520330D01*
X95770248Y-67310000D01*
X96085029Y-67099670D01*
X96409885Y-66613489D01*
X96523959Y-66040000D01*
X96493783Y-65888291D01*
X107850940Y-65888291D01*
X107850940Y-67478910D01*
X108009690Y-67637660D01*
X110109000Y-67637660D01*
X110109000Y-65538350D01*
X110363000Y-65538350D01*
X110363000Y-67637660D01*
X112462310Y-67637660D01*
X112621060Y-67478910D01*
X112621060Y-65888291D01*
X112524387Y-65654902D01*
X112345759Y-65476273D01*
X112112370Y-65379600D01*
X110521750Y-65379600D01*
X110363000Y-65538350D01*
X110109000Y-65538350D01*
X109950250Y-65379600D01*
X108359630Y-65379600D01*
X108126241Y-65476273D01*
X107947613Y-65654902D01*
X107850940Y-65888291D01*
X96493783Y-65888291D01*
X96409885Y-65466511D01*
X96085029Y-64980330D01*
X95770248Y-64770000D01*
X96085029Y-64559670D01*
X96409885Y-64073489D01*
X96523959Y-63500000D01*
X96409885Y-62926511D01*
X96085029Y-62440330D01*
X95598848Y-62115474D01*
X95025359Y-62001400D01*
X94966641Y-62001400D01*
X94393152Y-62115474D01*
X93906971Y-62440330D01*
X93726000Y-62711172D01*
X93545029Y-62440330D01*
X93058848Y-62115474D01*
X92485359Y-62001400D01*
X92426641Y-62001400D01*
X91853152Y-62115474D01*
X91366971Y-62440330D01*
X91042115Y-62926511D01*
X90928041Y-63500000D01*
X90710000Y-63500000D01*
X90710000Y-62069931D01*
X90821046Y-61511662D01*
X91097669Y-61097667D01*
X91511660Y-60821047D01*
X92069931Y-60710000D01*
X137930069Y-60710000D01*
X138488338Y-60821046D01*
X138488338Y-60821046D01*
G37*
X138488338Y-60821046D02*
X138902333Y-61097669D01*
X139178953Y-61511660D01*
X139290000Y-62069931D01*
X139290000Y-74598271D01*
X139283035Y-74587447D01*
X139241410Y-74559006D01*
X139192000Y-74549000D01*
X122428000Y-74549000D01*
X122381841Y-74557685D01*
X122339447Y-74584965D01*
X122311006Y-74626590D01*
X122301000Y-74676000D01*
X122301000Y-109220000D01*
X122309685Y-109266159D01*
X122325026Y-109290000D01*
X92069931Y-109290000D01*
X91511660Y-109178953D01*
X91097669Y-108902333D01*
X90821046Y-108488338D01*
X90710000Y-107930069D01*
X90710000Y-63500000D01*
X90928041Y-63500000D01*
X91042115Y-64073489D01*
X91366971Y-64559670D01*
X91690228Y-64775664D01*
X91567510Y-64833179D01*
X91173312Y-65265053D01*
X91001042Y-65680974D01*
X91122183Y-65913000D01*
X92329000Y-65913000D01*
X92329000Y-65893000D01*
X92583000Y-65893000D01*
X92583000Y-65913000D01*
X92603000Y-65913000D01*
X92603000Y-66167000D01*
X92583000Y-66167000D01*
X92583000Y-66187000D01*
X92329000Y-66187000D01*
X92329000Y-66167000D01*
X91122183Y-66167000D01*
X91001042Y-66399026D01*
X91173312Y-66814947D01*
X91567510Y-67246821D01*
X91690228Y-67304336D01*
X91366971Y-67520330D01*
X91042115Y-68006511D01*
X90928041Y-68580000D01*
X91042115Y-69153489D01*
X91366971Y-69639670D01*
X91690228Y-69855664D01*
X91567510Y-69913179D01*
X91173312Y-70345053D01*
X91001042Y-70760974D01*
X91122183Y-70993000D01*
X92329000Y-70993000D01*
X92329000Y-70973000D01*
X92583000Y-70973000D01*
X92583000Y-70993000D01*
X92603000Y-70993000D01*
X92603000Y-71247000D01*
X92583000Y-71247000D01*
X92583000Y-71267000D01*
X92329000Y-71267000D01*
X92329000Y-71247000D01*
X91122183Y-71247000D01*
X91001042Y-71479026D01*
X91173312Y-71894947D01*
X91567510Y-72326821D01*
X91690228Y-72384336D01*
X91366971Y-72600330D01*
X91042115Y-73086511D01*
X90928041Y-73660000D01*
X91042115Y-74233489D01*
X91366971Y-74719670D01*
X91681752Y-74930000D01*
X91366971Y-75140330D01*
X91042115Y-75626511D01*
X90928041Y-76200000D01*
X91042115Y-76773489D01*
X91366971Y-77259670D01*
X91681752Y-77470000D01*
X91366971Y-77680330D01*
X91042115Y-78166511D01*
X90928041Y-78740000D01*
X91042115Y-79313489D01*
X91366971Y-79799670D01*
X91681752Y-80010000D01*
X91366971Y-80220330D01*
X91042115Y-80706511D01*
X90928041Y-81280000D01*
X91042115Y-81853489D01*
X91366971Y-82339670D01*
X91690228Y-82555664D01*
X91567510Y-82613179D01*
X91173312Y-83045053D01*
X91001042Y-83460974D01*
X91122183Y-83693000D01*
X92329000Y-83693000D01*
X92329000Y-83673000D01*
X92583000Y-83673000D01*
X92583000Y-83693000D01*
X92603000Y-83693000D01*
X92603000Y-83947000D01*
X92583000Y-83947000D01*
X92583000Y-83967000D01*
X92329000Y-83967000D01*
X92329000Y-83947000D01*
X91122183Y-83947000D01*
X91001042Y-84179026D01*
X91173312Y-84594947D01*
X91567510Y-85026821D01*
X91690228Y-85084336D01*
X91366971Y-85300330D01*
X91042115Y-85786511D01*
X90928041Y-86360000D01*
X91042115Y-86933489D01*
X91366971Y-87419670D01*
X91681752Y-87630000D01*
X91366971Y-87840330D01*
X91042115Y-88326511D01*
X90928041Y-88900000D01*
X91042115Y-89473489D01*
X91366971Y-89959670D01*
X91690228Y-90175664D01*
X91567510Y-90233179D01*
X91173312Y-90665053D01*
X91001042Y-91080974D01*
X91122183Y-91313000D01*
X92329000Y-91313000D01*
X92329000Y-91293000D01*
X92583000Y-91293000D01*
X92583000Y-91313000D01*
X92603000Y-91313000D01*
X92603000Y-91567000D01*
X92583000Y-91567000D01*
X92583000Y-91587000D01*
X92329000Y-91587000D01*
X92329000Y-91567000D01*
X91122183Y-91567000D01*
X91001042Y-91799026D01*
X91173312Y-92214947D01*
X91567510Y-92646821D01*
X91690228Y-92704336D01*
X91366971Y-92920330D01*
X91042115Y-93406511D01*
X90928041Y-93980000D01*
X91042115Y-94553489D01*
X91366971Y-95039670D01*
X91681752Y-95250000D01*
X91366971Y-95460330D01*
X91042115Y-95946511D01*
X90928041Y-96520000D01*
X91042115Y-97093489D01*
X91366971Y-97579670D01*
X91681752Y-97790000D01*
X91366971Y-98000330D01*
X91042115Y-98486511D01*
X90928041Y-99060000D01*
X91042115Y-99633489D01*
X91366971Y-100119670D01*
X91690228Y-100335664D01*
X91567510Y-100393179D01*
X91173312Y-100825053D01*
X91001042Y-101240974D01*
X91122183Y-101473000D01*
X92329000Y-101473000D01*
X92329000Y-101453000D01*
X92583000Y-101453000D01*
X92583000Y-101473000D01*
X92603000Y-101473000D01*
X92603000Y-101727000D01*
X92583000Y-101727000D01*
X92583000Y-101747000D01*
X92329000Y-101747000D01*
X92329000Y-101727000D01*
X91122183Y-101727000D01*
X91001042Y-101959026D01*
X91173312Y-102374947D01*
X91567510Y-102806821D01*
X91690228Y-102864336D01*
X91366971Y-103080330D01*
X91042115Y-103566511D01*
X90928041Y-104140000D01*
X91042115Y-104713489D01*
X91366971Y-105199670D01*
X91681752Y-105410000D01*
X91366971Y-105620330D01*
X91042115Y-106106511D01*
X90928041Y-106680000D01*
X91042115Y-107253489D01*
X91366971Y-107739670D01*
X91853152Y-108064526D01*
X92426641Y-108178600D01*
X92485359Y-108178600D01*
X93058848Y-108064526D01*
X93524442Y-107753426D01*
X93529238Y-107778917D01*
X93668310Y-107995041D01*
X93880510Y-108140031D01*
X94132400Y-108191040D01*
X95859600Y-108191040D01*
X96094917Y-108146762D01*
X96311041Y-108007690D01*
X96456031Y-107795490D01*
X96507040Y-107543600D01*
X96507040Y-107324163D01*
X103675443Y-107324163D01*
X103774042Y-107590965D01*
X104383582Y-107817401D01*
X105033377Y-107793341D01*
X105521958Y-107590965D01*
X105620557Y-107324163D01*
X104648000Y-106351605D01*
X103675443Y-107324163D01*
X96507040Y-107324163D01*
X96507040Y-105907582D01*
X103002599Y-105907582D01*
X103026659Y-106557377D01*
X103229035Y-107045958D01*
X103495837Y-107144557D01*
X104468395Y-106172000D01*
X104827605Y-106172000D01*
X105800163Y-107144557D01*
X106066965Y-107045958D01*
X106293401Y-106436418D01*
X106269341Y-105786623D01*
X106066965Y-105298042D01*
X105800163Y-105199443D01*
X104827605Y-106172000D01*
X104468395Y-106172000D01*
X103495837Y-105199443D01*
X103229035Y-105298042D01*
X103002599Y-105907582D01*
X96507040Y-105907582D01*
X96507040Y-105816400D01*
X96462762Y-105581083D01*
X96323690Y-105364959D01*
X96111490Y-105219969D01*
X96067869Y-105211136D01*
X96085029Y-105199670D01*
X96205189Y-105019837D01*
X103675443Y-105019837D01*
X104648000Y-105992395D01*
X105620557Y-105019837D01*
X105521958Y-104753035D01*
X104912418Y-104526599D01*
X104262623Y-104550659D01*
X103774042Y-104753035D01*
X103675443Y-105019837D01*
X96205189Y-105019837D01*
X96409885Y-104713489D01*
X96523959Y-104140000D01*
X96479043Y-103914193D01*
X98412236Y-101981000D01*
X103246806Y-101981000D01*
X103261538Y-102016655D01*
X103720927Y-102476846D01*
X104321453Y-102726206D01*
X104971694Y-102726774D01*
X105572655Y-102478462D01*
X106032846Y-102019073D01*
X106282206Y-101418547D01*
X106282208Y-101415694D01*
X113173226Y-101415694D01*
X113421538Y-102016655D01*
X113880927Y-102476846D01*
X113919000Y-102492655D01*
X113919000Y-104770806D01*
X113883345Y-104785538D01*
X113423154Y-105244927D01*
X113173794Y-105845453D01*
X113173226Y-106495694D01*
X113421538Y-107096655D01*
X113880927Y-107556846D01*
X114481453Y-107806206D01*
X115131694Y-107806774D01*
X115732655Y-107558462D01*
X116192846Y-107099073D01*
X116436090Y-106513275D01*
X117030007Y-106513275D01*
X117044190Y-106584903D01*
X117303342Y-107061944D01*
X117725323Y-107403499D01*
X118245890Y-107557570D01*
X118745000Y-107557570D01*
X118745000Y-106299000D01*
X118999000Y-106299000D01*
X118999000Y-107557570D01*
X119498110Y-107557570D01*
X120018677Y-107403499D01*
X120440658Y-107061944D01*
X120699810Y-106584903D01*
X120713993Y-106513275D01*
X120591339Y-106299000D01*
X118999000Y-106299000D01*
X118745000Y-106299000D01*
X117152661Y-106299000D01*
X117030007Y-106513275D01*
X116436090Y-106513275D01*
X116442206Y-106498547D01*
X116442774Y-105848306D01*
X116194462Y-105247345D01*
X115735073Y-104787154D01*
X115697000Y-104771345D01*
X115697000Y-102493194D01*
X115732655Y-102478462D01*
X116192846Y-102019073D01*
X116208655Y-101981000D01*
X117295586Y-101981000D01*
X117356221Y-102071746D01*
X117790616Y-102362000D01*
X117356221Y-102652254D01*
X117055867Y-103101765D01*
X116950397Y-103632000D01*
X117055867Y-104162235D01*
X117356221Y-104611746D01*
X117805732Y-104912100D01*
X117815032Y-104913950D01*
X117725323Y-104940501D01*
X117303342Y-105282056D01*
X117044190Y-105759097D01*
X117030007Y-105830725D01*
X117152661Y-106045000D01*
X118745000Y-106045000D01*
X118745000Y-106025000D01*
X118999000Y-106025000D01*
X118999000Y-106045000D01*
X120591339Y-106045000D01*
X120713993Y-105830725D01*
X120699810Y-105759097D01*
X120440658Y-105282056D01*
X120018677Y-104940501D01*
X119928968Y-104913950D01*
X119938268Y-104912100D01*
X120387779Y-104611746D01*
X120688133Y-104162235D01*
X120793603Y-103632000D01*
X120688133Y-103101765D01*
X120387779Y-102652254D01*
X119953384Y-102362000D01*
X120387779Y-102071746D01*
X120688133Y-101622235D01*
X120793603Y-101092000D01*
X120688133Y-100561765D01*
X120387779Y-100112254D01*
X119938268Y-99811900D01*
X119408033Y-99706430D01*
X118335967Y-99706430D01*
X117805732Y-99811900D01*
X117356221Y-100112254D01*
X117295586Y-100203000D01*
X116209194Y-100203000D01*
X116194462Y-100167345D01*
X115735073Y-99707154D01*
X115134547Y-99457794D01*
X114484306Y-99457226D01*
X113883345Y-99705538D01*
X113423154Y-100164927D01*
X113173794Y-100765453D01*
X113173226Y-101415694D01*
X106282208Y-101415694D01*
X106282774Y-100768306D01*
X106034462Y-100167345D01*
X105575073Y-99707154D01*
X104974547Y-99457794D01*
X104324306Y-99457226D01*
X103723345Y-99705538D01*
X103263154Y-100164927D01*
X103247345Y-100203000D01*
X98044000Y-100203000D01*
X97703794Y-100270671D01*
X97520448Y-100393179D01*
X97415382Y-100463382D01*
X96483279Y-101395485D01*
X96479043Y-101374193D01*
X98672618Y-99180618D01*
X98753212Y-99060000D01*
X98865329Y-98892206D01*
X98933000Y-98552000D01*
X98933000Y-95640163D01*
X103675443Y-95640163D01*
X103774042Y-95906965D01*
X104383582Y-96133401D01*
X105033377Y-96109341D01*
X105521958Y-95906965D01*
X105620557Y-95640163D01*
X104648000Y-94667605D01*
X103675443Y-95640163D01*
X98933000Y-95640163D01*
X98933000Y-94223582D01*
X103002599Y-94223582D01*
X103026659Y-94873377D01*
X103229035Y-95361958D01*
X103495837Y-95460557D01*
X104468395Y-94488000D01*
X104827605Y-94488000D01*
X105800163Y-95460557D01*
X106066965Y-95361958D01*
X106293401Y-94752418D01*
X106269341Y-94102623D01*
X106066965Y-93614042D01*
X105800163Y-93515443D01*
X104827605Y-94488000D01*
X104468395Y-94488000D01*
X103495837Y-93515443D01*
X103229035Y-93614042D01*
X103002599Y-94223582D01*
X98933000Y-94223582D01*
X98933000Y-93335837D01*
X103675443Y-93335837D01*
X104648000Y-94308395D01*
X105620557Y-93335837D01*
X105521958Y-93069035D01*
X104912418Y-92842599D01*
X104262623Y-92866659D01*
X103774042Y-93069035D01*
X103675443Y-93335837D01*
X98933000Y-93335837D01*
X98933000Y-91046236D01*
X99682236Y-90297000D01*
X103246806Y-90297000D01*
X103261538Y-90332655D01*
X103720927Y-90792846D01*
X104321453Y-91042206D01*
X104971694Y-91042774D01*
X105572655Y-90794462D01*
X106032846Y-90335073D01*
X106282206Y-89734547D01*
X106282208Y-89731694D01*
X113173226Y-89731694D01*
X113421538Y-90332655D01*
X113880927Y-90792846D01*
X113919000Y-90808655D01*
X113919000Y-93086806D01*
X113883345Y-93101538D01*
X113423154Y-93560927D01*
X113173794Y-94161453D01*
X113173226Y-94811694D01*
X113421538Y-95412655D01*
X113880927Y-95872846D01*
X114481453Y-96122206D01*
X115131694Y-96122774D01*
X115732655Y-95874462D01*
X116192846Y-95415073D01*
X116436090Y-94829275D01*
X117030007Y-94829275D01*
X117044190Y-94900903D01*
X117303342Y-95377944D01*
X117725323Y-95719499D01*
X118245890Y-95873570D01*
X118745000Y-95873570D01*
X118745000Y-94615000D01*
X118999000Y-94615000D01*
X118999000Y-95873570D01*
X119498110Y-95873570D01*
X120018677Y-95719499D01*
X120440658Y-95377944D01*
X120699810Y-94900903D01*
X120713993Y-94829275D01*
X120591339Y-94615000D01*
X118999000Y-94615000D01*
X118745000Y-94615000D01*
X117152661Y-94615000D01*
X117030007Y-94829275D01*
X116436090Y-94829275D01*
X116442206Y-94814547D01*
X116442774Y-94164306D01*
X116194462Y-93563345D01*
X115735073Y-93103154D01*
X115697000Y-93087345D01*
X115697000Y-90809194D01*
X115732655Y-90794462D01*
X116192846Y-90335073D01*
X116208655Y-90297000D01*
X117295586Y-90297000D01*
X117356221Y-90387746D01*
X117790616Y-90678000D01*
X117356221Y-90968254D01*
X117055867Y-91417765D01*
X116950397Y-91948000D01*
X117055867Y-92478235D01*
X117356221Y-92927746D01*
X117805732Y-93228100D01*
X117815032Y-93229950D01*
X117725323Y-93256501D01*
X117303342Y-93598056D01*
X117044190Y-94075097D01*
X117030007Y-94146725D01*
X117152661Y-94361000D01*
X118745000Y-94361000D01*
X118745000Y-94341000D01*
X118999000Y-94341000D01*
X118999000Y-94361000D01*
X120591339Y-94361000D01*
X120713993Y-94146725D01*
X120699810Y-94075097D01*
X120440658Y-93598056D01*
X120018677Y-93256501D01*
X119928968Y-93229950D01*
X119938268Y-93228100D01*
X120387779Y-92927746D01*
X120688133Y-92478235D01*
X120793603Y-91948000D01*
X120688133Y-91417765D01*
X120387779Y-90968254D01*
X119953384Y-90678000D01*
X120387779Y-90387746D01*
X120688133Y-89938235D01*
X120793603Y-89408000D01*
X120688133Y-88877765D01*
X120387779Y-88428254D01*
X119938268Y-88127900D01*
X119408033Y-88022430D01*
X118335967Y-88022430D01*
X117805732Y-88127900D01*
X117356221Y-88428254D01*
X117295586Y-88519000D01*
X116209194Y-88519000D01*
X116194462Y-88483345D01*
X115735073Y-88023154D01*
X115134547Y-87773794D01*
X114484306Y-87773226D01*
X113883345Y-88021538D01*
X113423154Y-88480927D01*
X113173794Y-89081453D01*
X113173226Y-89731694D01*
X106282208Y-89731694D01*
X106282774Y-89084306D01*
X106034462Y-88483345D01*
X105575073Y-88023154D01*
X104974547Y-87773794D01*
X104324306Y-87773226D01*
X103723345Y-88021538D01*
X103263154Y-88480927D01*
X103247345Y-88519000D01*
X99314000Y-88519000D01*
X98973794Y-88586671D01*
X98685382Y-88779382D01*
X98171000Y-89293764D01*
X98171000Y-83956163D01*
X103675443Y-83956163D01*
X103774042Y-84222965D01*
X104383582Y-84449401D01*
X105033377Y-84425341D01*
X105521958Y-84222965D01*
X105620557Y-83956163D01*
X104648000Y-82983605D01*
X103675443Y-83956163D01*
X98171000Y-83956163D01*
X98171000Y-82539582D01*
X103002599Y-82539582D01*
X103026659Y-83189377D01*
X103229035Y-83677958D01*
X103495837Y-83776557D01*
X104468395Y-82804000D01*
X104827605Y-82804000D01*
X105800163Y-83776557D01*
X106066965Y-83677958D01*
X106293401Y-83068418D01*
X106269341Y-82418623D01*
X106066965Y-81930042D01*
X105800163Y-81831443D01*
X104827605Y-82804000D01*
X104468395Y-82804000D01*
X103495837Y-81831443D01*
X103229035Y-81930042D01*
X103002599Y-82539582D01*
X98171000Y-82539582D01*
X98171000Y-81651837D01*
X103675443Y-81651837D01*
X104648000Y-82624395D01*
X105620557Y-81651837D01*
X105521958Y-81385035D01*
X104912418Y-81158599D01*
X104262623Y-81182659D01*
X103774042Y-81385035D01*
X103675443Y-81651837D01*
X98171000Y-81651837D01*
X98171000Y-79362236D01*
X98920236Y-78613000D01*
X103246806Y-78613000D01*
X103261538Y-78648655D01*
X103720927Y-79108846D01*
X104321453Y-79358206D01*
X104971694Y-79358774D01*
X105572655Y-79110462D01*
X106032846Y-78651073D01*
X106282206Y-78050547D01*
X106282208Y-78047694D01*
X113173226Y-78047694D01*
X113421538Y-78648655D01*
X113880927Y-79108846D01*
X113919000Y-79124655D01*
X113919000Y-81402806D01*
X113883345Y-81417538D01*
X113423154Y-81876927D01*
X113173794Y-82477453D01*
X113173226Y-83127694D01*
X113421538Y-83728655D01*
X113880927Y-84188846D01*
X114481453Y-84438206D01*
X115131694Y-84438774D01*
X115732655Y-84190462D01*
X116192846Y-83731073D01*
X116436090Y-83145275D01*
X117030007Y-83145275D01*
X117044190Y-83216903D01*
X117303342Y-83693944D01*
X117725323Y-84035499D01*
X118245890Y-84189570D01*
X118745000Y-84189570D01*
X118745000Y-82931000D01*
X118999000Y-82931000D01*
X118999000Y-84189570D01*
X119498110Y-84189570D01*
X120018677Y-84035499D01*
X120440658Y-83693944D01*
X120699810Y-83216903D01*
X120713993Y-83145275D01*
X120591339Y-82931000D01*
X118999000Y-82931000D01*
X118745000Y-82931000D01*
X117152661Y-82931000D01*
X117030007Y-83145275D01*
X116436090Y-83145275D01*
X116442206Y-83130547D01*
X116442774Y-82480306D01*
X116194462Y-81879345D01*
X115735073Y-81419154D01*
X115697000Y-81403345D01*
X115697000Y-79125194D01*
X115732655Y-79110462D01*
X116192846Y-78651073D01*
X116208655Y-78613000D01*
X117295586Y-78613000D01*
X117356221Y-78703746D01*
X117790616Y-78994000D01*
X117356221Y-79284254D01*
X117055867Y-79733765D01*
X116950397Y-80264000D01*
X117055867Y-80794235D01*
X117356221Y-81243746D01*
X117805732Y-81544100D01*
X117815032Y-81545950D01*
X117725323Y-81572501D01*
X117303342Y-81914056D01*
X117044190Y-82391097D01*
X117030007Y-82462725D01*
X117152661Y-82677000D01*
X118745000Y-82677000D01*
X118745000Y-82657000D01*
X118999000Y-82657000D01*
X118999000Y-82677000D01*
X120591339Y-82677000D01*
X120713993Y-82462725D01*
X120699810Y-82391097D01*
X120440658Y-81914056D01*
X120018677Y-81572501D01*
X119928968Y-81545950D01*
X119938268Y-81544100D01*
X120387779Y-81243746D01*
X120688133Y-80794235D01*
X120793603Y-80264000D01*
X120688133Y-79733765D01*
X120387779Y-79284254D01*
X119953384Y-78994000D01*
X120387779Y-78703746D01*
X120688133Y-78254235D01*
X120793603Y-77724000D01*
X120688133Y-77193765D01*
X120387779Y-76744254D01*
X119938268Y-76443900D01*
X119408033Y-76338430D01*
X118335967Y-76338430D01*
X117805732Y-76443900D01*
X117356221Y-76744254D01*
X117295586Y-76835000D01*
X116209194Y-76835000D01*
X116194462Y-76799345D01*
X115735073Y-76339154D01*
X115134547Y-76089794D01*
X114484306Y-76089226D01*
X113883345Y-76337538D01*
X113423154Y-76796927D01*
X113173794Y-77397453D01*
X113173226Y-78047694D01*
X106282208Y-78047694D01*
X106282774Y-77400306D01*
X106034462Y-76799345D01*
X105575073Y-76339154D01*
X104974547Y-76089794D01*
X104324306Y-76089226D01*
X103723345Y-76337538D01*
X103263154Y-76796927D01*
X103247345Y-76835000D01*
X98552000Y-76835000D01*
X98211794Y-76902671D01*
X97923382Y-77095382D01*
X96653382Y-78365382D01*
X96496227Y-78600581D01*
X96409885Y-78166511D01*
X96085029Y-77680330D01*
X95761772Y-77464336D01*
X95884490Y-77406821D01*
X96278688Y-76974947D01*
X96450958Y-76559026D01*
X96329817Y-76327000D01*
X95123000Y-76327000D01*
X95123000Y-76347000D01*
X94869000Y-76347000D01*
X94869000Y-76327000D01*
X94849000Y-76327000D01*
X94849000Y-76073000D01*
X94869000Y-76073000D01*
X94869000Y-76053000D01*
X95123000Y-76053000D01*
X95123000Y-76073000D01*
X96329817Y-76073000D01*
X96450958Y-75840974D01*
X96278688Y-75425053D01*
X95884490Y-74993179D01*
X95761772Y-74935664D01*
X96085029Y-74719670D01*
X96409885Y-74233489D01*
X96523959Y-73660000D01*
X96409885Y-73086511D01*
X96085029Y-72600330D01*
X95770248Y-72390000D01*
X96085029Y-72179670D01*
X96409885Y-71693489D01*
X96523959Y-71120000D01*
X96510065Y-71050150D01*
X103151940Y-71050150D01*
X103151940Y-72640769D01*
X103248613Y-72874158D01*
X103427241Y-73052787D01*
X103660630Y-73149460D01*
X105251250Y-73149460D01*
X105410000Y-72990710D01*
X105410000Y-70891400D01*
X105664000Y-70891400D01*
X105664000Y-72990710D01*
X105822750Y-73149460D01*
X107413370Y-73149460D01*
X107646759Y-73052787D01*
X107825387Y-72874158D01*
X107838500Y-72842500D01*
X107838500Y-75514200D01*
X107882778Y-75749517D01*
X108021850Y-75965641D01*
X108234050Y-76110631D01*
X108485940Y-76161640D01*
X111986060Y-76161640D01*
X112221377Y-76117362D01*
X112437501Y-75978290D01*
X112582491Y-75766090D01*
X112633500Y-75514200D01*
X112633500Y-73162691D01*
X113406191Y-72390000D01*
X127069260Y-72390000D01*
X127196310Y-72587441D01*
X127408510Y-72732431D01*
X127660400Y-72783440D01*
X129387600Y-72783440D01*
X129622917Y-72739162D01*
X129839041Y-72600090D01*
X129984031Y-72387890D01*
X129992400Y-72346561D01*
X130004330Y-72364415D01*
X130490511Y-72689271D01*
X131064000Y-72803345D01*
X131637489Y-72689271D01*
X132123670Y-72364415D01*
X132334000Y-72049634D01*
X132544330Y-72364415D01*
X133030511Y-72689271D01*
X133604000Y-72803345D01*
X134177489Y-72689271D01*
X134663670Y-72364415D01*
X134874000Y-72049634D01*
X135084330Y-72364415D01*
X135570511Y-72689271D01*
X136144000Y-72803345D01*
X136717489Y-72689271D01*
X137203670Y-72364415D01*
X137528526Y-71878234D01*
X137642600Y-71304745D01*
X137642600Y-70935255D01*
X137528526Y-70361766D01*
X137203670Y-69875585D01*
X136717489Y-69550729D01*
X136144000Y-69436655D01*
X135570511Y-69550729D01*
X135084330Y-69875585D01*
X134874000Y-70190366D01*
X134663670Y-69875585D01*
X134177489Y-69550729D01*
X133604000Y-69436655D01*
X133030511Y-69550729D01*
X132544330Y-69875585D01*
X132334000Y-70190366D01*
X132123670Y-69875585D01*
X131637489Y-69550729D01*
X131064000Y-69436655D01*
X130490511Y-69550729D01*
X130004330Y-69875585D01*
X129994757Y-69889913D01*
X129990762Y-69868683D01*
X129851690Y-69652559D01*
X129639490Y-69507569D01*
X129387600Y-69456560D01*
X127660400Y-69456560D01*
X127425083Y-69500838D01*
X127208959Y-69639910D01*
X127065411Y-69850000D01*
X112880145Y-69850000D01*
X112880140Y-69849999D01*
X112466534Y-69932271D01*
X112524387Y-69874418D01*
X112621060Y-69641029D01*
X112621060Y-68050410D01*
X112462310Y-67891660D01*
X110363000Y-67891660D01*
X110363000Y-69990970D01*
X110521750Y-70149720D01*
X112090250Y-70149720D01*
X111982114Y-70221974D01*
X111982112Y-70221977D01*
X110837449Y-71366640D01*
X108485940Y-71366640D01*
X108250623Y-71410918D01*
X108034499Y-71549990D01*
X107922060Y-71714550D01*
X107922060Y-71050150D01*
X107763310Y-70891400D01*
X105664000Y-70891400D01*
X105410000Y-70891400D01*
X103310690Y-70891400D01*
X103151940Y-71050150D01*
X96510065Y-71050150D01*
X96409885Y-70546511D01*
X96085029Y-70060330D01*
X95770248Y-69850000D01*
X96085029Y-69639670D01*
X96409885Y-69153489D01*
X96462687Y-68888031D01*
X103151940Y-68888031D01*
X103151940Y-70478650D01*
X103310690Y-70637400D01*
X105410000Y-70637400D01*
X105410000Y-68538090D01*
X105664000Y-68538090D01*
X105664000Y-70637400D01*
X107763310Y-70637400D01*
X107922060Y-70478650D01*
X107922060Y-69812728D01*
X107947613Y-69874418D01*
X108126241Y-70053047D01*
X108359630Y-70149720D01*
X109950250Y-70149720D01*
X110109000Y-69990970D01*
X110109000Y-67891660D01*
X108009690Y-67891660D01*
X107850940Y-68050410D01*
X107850940Y-68716332D01*
X107825387Y-68654642D01*
X107646759Y-68476013D01*
X107413370Y-68379340D01*
X105822750Y-68379340D01*
X105664000Y-68538090D01*
X105410000Y-68538090D01*
X105251250Y-68379340D01*
X103660630Y-68379340D01*
X103427241Y-68476013D01*
X103248613Y-68654642D01*
X103151940Y-68888031D01*
X96462687Y-68888031D01*
X96523959Y-68580000D01*
X96409885Y-68006511D01*
X96085029Y-67520330D01*
X95770248Y-67310000D01*
X96085029Y-67099670D01*
X96409885Y-66613489D01*
X96523959Y-66040000D01*
X96493783Y-65888291D01*
X107850940Y-65888291D01*
X107850940Y-67478910D01*
X108009690Y-67637660D01*
X110109000Y-67637660D01*
X110109000Y-65538350D01*
X110363000Y-65538350D01*
X110363000Y-67637660D01*
X112462310Y-67637660D01*
X112621060Y-67478910D01*
X112621060Y-65888291D01*
X112524387Y-65654902D01*
X112345759Y-65476273D01*
X112112370Y-65379600D01*
X110521750Y-65379600D01*
X110363000Y-65538350D01*
X110109000Y-65538350D01*
X109950250Y-65379600D01*
X108359630Y-65379600D01*
X108126241Y-65476273D01*
X107947613Y-65654902D01*
X107850940Y-65888291D01*
X96493783Y-65888291D01*
X96409885Y-65466511D01*
X96085029Y-64980330D01*
X95770248Y-64770000D01*
X96085029Y-64559670D01*
X96409885Y-64073489D01*
X96523959Y-63500000D01*
X96409885Y-62926511D01*
X96085029Y-62440330D01*
X95598848Y-62115474D01*
X95025359Y-62001400D01*
X94966641Y-62001400D01*
X94393152Y-62115474D01*
X93906971Y-62440330D01*
X93726000Y-62711172D01*
X93545029Y-62440330D01*
X93058848Y-62115474D01*
X92485359Y-62001400D01*
X92426641Y-62001400D01*
X91853152Y-62115474D01*
X91366971Y-62440330D01*
X91042115Y-62926511D01*
X90928041Y-63500000D01*
X90710000Y-63500000D01*
X90710000Y-62069931D01*
X90821046Y-61511662D01*
X91097669Y-61097667D01*
X91511660Y-60821047D01*
X92069931Y-60710000D01*
X137930069Y-60710000D01*
X138488338Y-60821046D01*
G36*
X95123000Y-96393000D02*
X95143000Y-96393000D01*
X95143000Y-96647000D01*
X95123000Y-96647000D01*
X95123000Y-96667000D01*
X94869000Y-96667000D01*
X94869000Y-96647000D01*
X94849000Y-96647000D01*
X94849000Y-96393000D01*
X94869000Y-96393000D01*
X94869000Y-96373000D01*
X95123000Y-96373000D01*
X95123000Y-96393000D01*
X95123000Y-96393000D01*
G37*
X95123000Y-96393000D02*
X95143000Y-96393000D01*
X95143000Y-96647000D01*
X95123000Y-96647000D01*
X95123000Y-96667000D01*
X94869000Y-96667000D01*
X94869000Y-96647000D01*
X94849000Y-96647000D01*
X94849000Y-96393000D01*
X94869000Y-96393000D01*
X94869000Y-96373000D01*
X95123000Y-96373000D01*
X95123000Y-96393000D01*
M02*
